<svg xmlns="http://www.w3.org/2000/svg" width="auto" height="auto" viewBox="0 0 24 24">
    <defs>
        <path id="a" d="M0 .75h17.999v5.625H0z"/>
    </defs>
    <g fill="none" fill-rule="evenodd">
        <path fill-rule="nonzero" d="M0 0h24v24H0z"/>
        <path fill="#000" d="M7.5 8.25a2.25 2.25 0 1 0-.002-4.502A2.25 2.25 0 0 0 7.5 8.25M16.5 8.25a2.25 2.25 0 1 0-.002-4.502A2.25 2.25 0 0 0 16.5 8.25M3.402 19.234a1.128 1.128 0 0 0 1.584-.135c.102-.123 2.573-2.974 7.013-2.974 4.44 0 6.91 2.851 7.013 2.974a1.126 1.126 0 0 0 1.726-1.444c-.128-.155-3.213-3.78-8.739-3.78-5.526 0-8.61 3.625-8.739 3.78a1.123 1.123 0 0 0 .142 1.58"/>
    </g>
</svg>
