<svg width="125" height="126" viewBox="0 0 125 126" fill="none" xmlns="http://www.w3.org/2000/svg">
<rect width="103.784" height="51.7988" rx="1" transform="matrix(0.99875 -0.0499873 0.0471044 0.99889 1 20.1879)" fill="url(#paint0_linear_374_46)"/>
<path fill-rule="evenodd" clip-rule="evenodd" d="M125 92.7929C125 102.46 117.131 110.296 107.425 110.296C97.7189 110.296 89.8504 102.46 89.8504 92.7929C89.8504 83.126 97.7189 75.2895 107.425 75.2895C117.131 75.2895 125 83.126 125 92.7929ZM108.257 92.0865C107.878 92.0865 107.5 91.9565 107.247 91.6315L104.282 88.5769C103.715 87.992 103.715 87.0821 104.282 86.4971L107.184 83.5075C107.752 82.9225 108.635 82.9225 109.203 83.5075C109.771 84.0924 109.771 85.0023 109.203 85.5872L108.763 86.0403C112.825 86.5508 115.953 90.0996 115.953 94.4263C116.017 99.0407 112.294 102.81 107.815 102.81C103.273 102.81 99.6142 99.0407 99.6142 94.3613C99.6142 93.5814 100.245 92.9315 101.002 92.9315C101.759 92.9315 102.39 93.5814 102.39 94.3613C102.39 97.4159 104.787 99.8856 107.752 99.8856C110.717 99.8856 113.115 97.4159 113.115 94.3613C113.115 91.6205 111.185 89.3506 108.646 88.9131L109.266 89.5518C109.834 90.1367 109.834 91.0466 109.266 91.6315C109.014 91.8915 108.635 92.0865 108.257 92.0865Z" fill="#7988C3"/>
<path fill-rule="evenodd" clip-rule="evenodd" d="M122.984 38.8297L17.9004 24.9225L10.6315 83.2156L85.0884 93.0696C85.0092 92.3399 84.9685 91.5987 84.9685 90.8481C84.9685 79.5701 94.1484 70.4274 105.472 70.4274C110.404 70.4274 114.93 72.1617 118.467 75.0513L122.984 38.8297Z" fill="#E1DFDD"/>
<path d="M30.0297 43.3749C27.5887 42.6942 25.1478 44.0556 24.562 46.4866C23.9761 48.9176 25.4407 51.4459 27.8816 52.2238C30.3226 52.9045 32.8612 51.5431 33.447 49.1121C34.0328 46.5838 32.4706 44.0556 30.0297 43.3749Z" fill="#C9C6C5"/>
<rect width="53.4196" height="4.54734" rx="2.27367" transform="matrix(0.991356 0.131196 -0.123732 0.992316 43.4868 48.062)" fill="#C9C6C5"/>
<rect width="43.551" height="4.54733" rx="2.27367" transform="matrix(0.991356 0.131196 -0.123732 0.992316 41.5942 56.5111)" fill="#C9C6C5"/>
<defs>
<linearGradient id="paint0_linear_374_46" x1="-13.8249" y1="30.4857" x2="21.221" y2="82.1138" gradientUnits="userSpaceOnUse">
<stop stop-color="#798AC4"/>
<stop offset="0.2478" stop-color="#798AC4"/>
<stop offset="0.5705" stop-color="#798AC4"/>
<stop offset="1" stop-color="#8F9DD3"/>
</linearGradient>
</defs>
</svg>
