<svg width="125" height="126" viewBox="0 0 125 126" fill="none" xmlns="http://www.w3.org/2000/svg">
<rect width="103.785" height="52.0097" rx="1" transform="matrix(0.99874 -0.0501907 0.0469135 0.998899 1 20.209)" fill="#605E5B"/>
<path fill-rule="evenodd" clip-rule="evenodd" d="M125 93.1102C125 102.817 117.132 110.685 107.425 110.685C97.7189 110.685 89.8504 102.817 89.8504 93.1102C89.8504 83.4039 97.7189 75.5354 107.425 75.5354C117.132 75.5354 125 83.4039 125 93.1102ZM108.257 92.4009C107.878 92.4009 107.5 92.2704 107.247 91.9441L104.282 88.877C103.714 88.2897 103.714 87.3761 104.282 86.7888L107.184 83.7869C107.752 83.1996 108.635 83.1996 109.203 83.7869C109.771 84.3742 109.771 85.2879 109.203 85.8752L108.763 86.3301C112.825 86.8426 115.953 90.4059 115.953 94.7503C116.016 99.3836 112.294 103.168 107.815 103.168C103.273 103.168 99.6141 99.3836 99.6141 94.685C99.6141 93.9019 100.245 93.2493 101.002 93.2493C101.759 93.2493 102.39 93.9019 102.39 94.685C102.39 97.7521 104.787 100.232 107.752 100.232C110.717 100.232 113.115 97.7521 113.115 94.685C113.115 91.933 111.185 89.6539 108.646 89.2146L109.266 89.8559C109.834 90.4432 109.834 91.3568 109.266 91.9441C109.014 92.2052 108.635 92.4009 108.257 92.4009Z" fill="#334A88"/>
<path fill-rule="evenodd" clip-rule="evenodd" d="M18.8917 25.0947C18.3442 25.0219 17.8452 25.4073 17.7772 25.9553L10.7548 82.5015C10.6867 83.0496 11.0754 83.5529 11.6228 83.6256L85.0884 93.3881C85.0092 92.6554 84.9685 91.9112 84.9685 91.1575C84.9685 79.8335 94.1484 70.6535 105.472 70.6535C110.404 70.6535 114.93 72.3949 118.467 75.2962L122.86 39.9193C122.928 39.3712 122.54 38.8679 121.992 38.7952L18.8917 25.0947Z" fill="#B3AFAB"/>
<path d="M30.0296 43.4907C27.5887 42.8072 25.1477 44.1741 24.5619 46.6151C23.9761 49.056 25.4406 51.5946 27.8816 52.3757C30.3225 53.0592 32.8611 51.6922 33.4469 49.2513C34.0328 46.7127 32.4706 44.1741 30.0296 43.4907Z" fill="#797673"/>
<rect width="53.4233" height="4.5656" rx="2.2828" transform="matrix(0.991287 0.131722 -0.123237 0.992377 43.4868 48.1969)" fill="#797673"/>
<rect width="43.5541" height="4.5656" rx="2.2828" transform="matrix(0.991287 0.131722 -0.123237 0.992377 41.5942 56.6804)" fill="#797673"/>
</svg>
