<svg id="f0b205b3-e6e7-4c67-96de-197c19ccd693" data-name="Layer 1" xmlns="http://www.w3.org/2000/svg" viewBox="0 0 450 343.01"><path d="M24.72,231.57a26.79,26.79,0,0,1-9.18,12.74,1.4,1.4,0,0,0-.24,2,1.36,1.36,0,0,0,.24.24,32,32,0,0,1,9.21,13.8,1.43,1.43,0,0,0,2.75,0,31.8,31.8,0,0,1,9.2-13.8,1.41,1.41,0,0,0,.14-2,1.1,1.1,0,0,0-.22-.21,26.56,26.56,0,0,1-9.16-12.74,1.4,1.4,0,0,0-2.74,0Z" fill="#f7b548"/><path d="M63.39,292.07a19.74,19.74,0,0,1-6.75,9.39,1,1,0,0,0-.16,1.45l.16.16a23.51,23.51,0,0,1,6.78,10.18,1.06,1.06,0,0,0,2,0,23.69,23.69,0,0,1,6.78-10.18,1,1,0,0,0,.16-1.45.81.81,0,0,0-.16-.16,19.74,19.74,0,0,1-6.75-9.39,1,1,0,1,0-2.09,0Z" fill="#f7b548"/><path d="M55.9,185.78a19.9,19.9,0,0,1-6.76,9.39,1,1,0,0,0-.17,1.45,1.29,1.29,0,0,0,.17.16A23.39,23.39,0,0,1,55.8,207a1.07,1.07,0,0,0,1.34.69,1,1,0,0,0,.69-.69,23.34,23.34,0,0,1,6.78-10.18,1,1,0,0,0,.17-1.45.85.85,0,0,0-.17-.16,19.9,19.9,0,0,1-6.76-9.39,1,1,0,0,0-1.25-.71A1,1,0,0,0,55.9,185.78Z" fill="#f7b548"/><path d="M384.51,163.44a38.33,38.33,0,0,0,13.19,18.32,2,2,0,0,1,.42,2.79,1.81,1.81,0,0,1-.42.41,46.37,46.37,0,0,0-13.23,19.85,2.08,2.08,0,1,1-4.16,0A46,46,0,0,0,367,185a2.09,2.09,0,0,1-.27-2.93,1.72,1.72,0,0,1,.27-.27,38.28,38.28,0,0,0,13.2-18.32,2.14,2.14,0,1,1,4.28,0" fill="#f7b548"/><path d="M342.18,217.05a28.39,28.39,0,0,0,9.73,13.52,1.46,1.46,0,0,1,.3,2,1.64,1.64,0,0,1-.3.29,34.13,34.13,0,0,0-9.73,14.65,1.54,1.54,0,0,1-3,0,34.15,34.15,0,0,0-9.74-14.65,1.45,1.45,0,0,1-.29-2,1.38,1.38,0,0,1,.29-.3,28.76,28.76,0,0,0,9.74-13.52,1.48,1.48,0,1,1,3,0" fill="#f7b548"/><path d="M347.73,87.09a7.74,7.74,0,0,1,.48,14.33l-3.52,1.6a7.78,7.78,0,0,1-6.37-14.11l3.46-1.58a7.46,7.46,0,0,1,6-.17Zm-1.17-32.56a7.21,7.21,0,0,1,4.54,4.06A7.87,7.87,0,0,1,347.18,69a7,7,0,0,1-5.95,0l-3.51-1.39a7.48,7.48,0,0,1-4.49-4.06,7.35,7.35,0,0,1-.17-5.9,7.47,7.47,0,0,1,4.11-4.37,7,7,0,0,1,5.95,0ZM376,119.27l-1.31,3.51a7.19,7.19,0,0,1-3.89,4.35,7.54,7.54,0,0,1-6,.19,7.41,7.41,0,0,1-4.35-4,7.71,7.71,0,0,1,0-6.07l1.34-3.51a6.92,6.92,0,0,1,3.94-4.44,7.55,7.55,0,0,1,6-.22,7.65,7.65,0,0,1,4.3,4.11A7.16,7.16,0,0,1,376,119.27Zm16-64.31a23.22,23.22,0,0,1,1.39,43,22.37,22.37,0,0,1-17.75.62,23.22,23.22,0,0,1-1.38-43A22.38,22.38,0,0,1,391.94,55ZM373.36,40.63a7.57,7.57,0,0,1-9.68,4.58l-.23-.09a7.32,7.32,0,0,1-4.33-4l-1.6-3.53a7.43,7.43,0,0,1-.14-5.9,7.2,7.2,0,0,1,4-4.21,7.83,7.83,0,0,1,10.24,3.85l1.6,3.32a7.39,7.39,0,0,1,.15,6ZM410,115.88a7.74,7.74,0,0,1-14.09,6.37l-1.53-3.63a7.69,7.69,0,0,1,9.87-10.34,7.16,7.16,0,0,1,4.32,4ZM391.56,34.25l1.32-3.51a7.15,7.15,0,0,1,4-4.44,7.63,7.63,0,0,1,6-.22,7.41,7.41,0,0,1,4.34,3.8,7.63,7.63,0,0,1,0,6.07l-1.33,3.51a6.93,6.93,0,0,1-4,4.49,7.78,7.78,0,0,1-10.34-3.8l-.05-.12a6.88,6.88,0,0,1,0-5.85ZM416.43,95a7.85,7.85,0,0,1,3.88-10.38h0a7,7,0,0,1,5.94,0l3.51,1.34A7.62,7.62,0,0,1,434.32,90a7.81,7.81,0,0,1-3.85,10.27,7,7,0,0,1-5.94,0l-3.61-1.31A7.17,7.17,0,0,1,416.43,95Zm3.37-28.66a7.6,7.6,0,0,1-4.55-9.74.47.47,0,0,1,.06-.15,7.39,7.39,0,0,1,4-4.35l3.51-1.6a7.74,7.74,0,1,1,6.4,14.09h0l-3.53,1.6a7.47,7.47,0,0,1-5.9.22Z" fill="#f7b548"/><rect x="88.43" y="106" width="211.29" height="196.03" transform="translate(34.54 -28.01) rotate(9.06)" fill="#e1dfdd"/><polygon points="307.12 165.99 98.47 132.72 105.18 90.59 158.47 99.08 313.84 123.85 307.12 165.99" fill="#7988c3"/><path d="M262.38,136.8c-3.25-.52-2.59-21.56-2.59-21.56L262,101.09a6,6,0,0,1,6.83-5l2.61.42a6,6,0,0,1,4.95,6.82l-2.26,14.17Z" fill="#c8c6c4"/><path d="M221.23,109.07l2.26-14.13A6,6,0,0,1,230.31,90l2.62.41a6,6,0,0,1,4.94,6.83l-2.25,14.13Z" fill="#c8c6c4"/><path d="M182.67,103l2.26-14.16a6,6,0,0,1,6.82-4.94l2.62.42a6,6,0,0,1,4.94,6.82l-2.25,14.16Z" fill="#c8c6c4"/><path d="M144.12,96.77l2.25-14.12a6,6,0,0,1,6.82-5l2.62.42a6,6,0,0,1,4.95,6.82L158.5,99.09Z" fill="#c8c6c4"/><path d="M307.12,166s-17.81,111.74-53,137.82c0,0-30.36-19.92-69.47-18.35C103,288.74,66,269.85,42.32,253.29c0,0,42.87-35.82,56.15-120.57Z" fill="#f3f2f1"/><path d="M274.16,117.55,272,131a7.3,7.3,0,1,1-14.42-2.31l2.18-13.39Z" fill="#5d6fb3"/><path d="M235.62,111.37l-2.12,13.45a7.3,7.3,0,1,1-14.42-2.3l2.12-13.45Z" fill="#5d6fb3"/><path d="M197,105.25l-2.12,13.39a7.27,7.27,0,0,1-14.36-2.24L182.65,103Z" fill="#5d6fb3"/><path d="M158.47,99.07l-2.12,13.45a7.27,7.27,0,1,1-14.36-2.3l2.12-13.46Z" fill="#5d6fb3"/></svg>