<?xml version="1.0" encoding="utf-8"?>
  <svg preserveAspectRatio="xMinYMin meet" width="auto" height="auto"  viewBox="0 0 249 179" version="1.1" xmlns="http://www.w3.org/2000/svg" xmlns:xlink="http://www.w3.org/1999/xlink">
    <!-- Generator: Sketch 57.1 (83088) - https://sketch.com -->
    <title>Graphics Copy</title>
    <desc>Created with Sketch.</desc>
    <defs>
      <radialGradient cx="63.7535947%" cy="78.219361%" fx="63.7535947%" fy="78.219361%" r="79.3620381%" gradientTransform="translate(0.637536,0.782194),scale(1.000000,0.600448),rotate(-2.184509),translate(-0.637536,-0.782194)" id="radialGradient-1">
        <stop stop-color="#D24544" offset="0%"></stop>
        <stop stop-color="#F56262" offset="100%"></stop>
      </radialGradient>
      <radialGradient cx="95.5723597%" cy="75.6685626%" fx="95.5723597%" fy="75.6685626%" r="55.2683593%" gradientTransform="translate(0.955724,0.756686),scale(1.000000,0.888791),translate(-0.955724,-0.756686)" id="radialGradient-2">
        <stop stop-color="#D24544" offset="0%"></stop>
        <stop stop-color="#F56262" offset="100%"></stop>
      </radialGradient>
      <radialGradient cx="22.6951614%" cy="10.9866668%" fx="22.6951614%" fy="10.9866668%" r="81.6820242%" gradientTransform="translate(0.226952,0.109867),scale(1.000000,0.829028),scale(1.000000,1.117836),translate(-0.226952,-0.109867)" id="radialGradient-3">
        <stop stop-color="#905936" offset="0%"></stop>
        <stop stop-color="#BE906B" offset="100%"></stop>
      </radialGradient>
      <radialGradient cx="112.008423%" cy="54.873589%" fx="112.008423%" fy="54.873589%" r="78.2291998%" gradientTransform="translate(1.120084,0.548736),scale(1.000000,0.391795),rotate(0.721874),scale(1.000000,0.901269),translate(-1.120084,-0.548736)" id="radialGradient-4">
        <stop stop-color="#9A643D" offset="0%"></stop>
        <stop stop-color="#BE906B" stop-opacity="0" offset="100%"></stop>
      </radialGradient>
      <path d="M78.8700685,0.227702689 C78.8700685,0.227702689 80.5690877,13.0403503 85.1939561,18.7822428 C89.8188244,24.5241353 95.7093327,25.2391797 99.122464,31.3041344 C102.535595,37.3712429 97.2897656,42.0061089 99.30789,48.5341195 C101.321702,55.0599763 110.530473,55.0104401 112.764209,62.1156552 C115.554222,70.9826362 106.880169,74.6418543 107.01816,80.8231114 C107.158308,87.0043685 112.05269,90.0971508 113.650372,96.1125694 C113.881128,96.9813047 114.015144,97.8506782 114.060466,98.7137543 L0.217725094,98.7145002 C0.414092714,97.3997543 0.793836521,96.0418304 1.38142338,94.6501744 C5.16109435,85.6970434 9.41079855,87.7560266 9.2124359,81.5747695 C9.01407325,75.3935124 1.43101404,71.2776997 3.99463571,63.4789777 C6.59706746,55.5617996 13.5031063,55.669487 15.1633155,49.0897865 C16.8213685,42.5100859 11.7199986,36.4925137 14.801088,30.332794 C17.8800213,24.1730744 23.3371504,24.8256601 27.6450697,18.9566964 C31.9551452,13.0877328 33.5377342,0.227702689 33.5377342,0.227702689 L33.5377342,0.227702689 Z" id="path-5"></path>
      <radialGradient cx="112.986459%" cy="51.2152057%" fx="112.986459%" fy="51.2152057%" r="69.5289105%" gradientTransform="translate(1.129865,0.512152),scale(0.892688,1.000000),translate(-1.129865,-0.512152)" id="radialGradient-7">
        <stop stop-color="#5771C3" offset="0%"></stop>
        <stop stop-color="#738DE4" offset="100%"></stop>
      </radialGradient>
      <radialGradient cx="17.7752002%" cy="-25.3794205%" fx="17.7752002%" fy="-25.3794205%" r="88.7774987%" gradientTransform="translate(0.177752,-0.253794),scale(0.995296,1.000000),rotate(98.571326),scale(1.000000,1.074873),translate(-0.177752,0.253794)" id="radialGradient-8">
        <stop stop-color="#9A6541" offset="0%"></stop>
        <stop stop-color="#F9DDBF" offset="100%"></stop>
      </radialGradient>
      <radialGradient cx="111.62652%" cy="63.8062515%" fx="111.62652%" fy="63.8062515%" r="70.755307%" gradientTransform="translate(1.116265,0.638063),scale(1.000000,0.552686),rotate(128.944033),translate(-1.116265,-0.638063)" id="radialGradient-9">
        <stop stop-color="#9A6541" offset="0%"></stop>
        <stop stop-color="#F9DDBF" stop-opacity="0" offset="100%"></stop>
      </radialGradient>
      <radialGradient cx="200.796766%" cy="100%" fx="200.796766%" fy="100%" r="205.32454%" gradientTransform="translate(2.007968,1.000000),scale(1.000000,0.554100),rotate(-156.154956),translate(-2.007968,-1.000000)" id="radialGradient-10">
        <stop stop-color="#5B2B07" offset="0%"></stop>
        <stop stop-color="#DFBC97" stop-opacity="0" offset="99.9736064%"></stop>
      </radialGradient>
    </defs>
    <g id="Page-1" stroke="none" stroke-width="1" fill="none" fill-rule="evenodd">
      <g id="Graphics-Copy">
        <g id="Group-2">
          <g id="Group-2-Copy" transform="translate(0.000000, 19.000000)">
            <g id="Group-56-Copy" transform="translate(164.000000, 80.255525) scale(-1, 1) translate(-164.000000, -80.255525) translate(77.000000, 0.255525)">
              <path d="M36.3240277,116.238148 C36.187488,120.590438 32.6609219,123.661766 32.6011858,128.208013 L32.6011858,128.208013 L32.6011858,128.440334 C32.6011858,128.514932 32.6033192,128.589531 32.6075861,128.664129 L32.6075861,128.664129 C32.7419924,132.161734 37.9710386,134.928273 36.3218943,138.02944 L36.3218943,138.02944 C31.9803566,146.179861 37.5251509,149.276766 39.2873672,150.717583 L39.2873672,150.717583 L57.8439742,150.009962 C57.8439742,150.009962 63.7706532,127.106086 80.7271848,99.5067656 L80.7271848,99.5067656 C92.7426838,79.9427713 88.8320997,57.2584276 84.7871092,57.1561211 L84.7871092,57.1561211 C45.9586146,62.094543 36.7443142,102.897801 36.3240277,116.238148" id="Fill-13" fill="url(#radialGradient-1)"></path>
              <path d="M102.168481,56.9444752 C123.159336,56.9444752 139.655046,74.8907473 137.867229,95.7868579 L137.867229,95.7868579 L133.204729,154.470475 L57.4777293,154.470475 L51.5399646,96.6713832 C49.2229916,75.6867135 65.48018,57.3153472 86.5207324,56.9500184 L87.1597749,56.9444752 Z" id="Rectangle-Copy-5" fill="url(#radialGradient-2)"></path>
              <g id="Group-31" transform="translate(0.040391, 57.198880)">
                <path d="M111.03271,114.183161 C113.361892,108.132591 117.677798,82.6717826 119.005045,70.3010276 C119.889877,62.0538576 117.630408,55.8893729 112.226638,51.8075733 C100.63931,60.222993 96.3403038,68.2609787 99.3296191,75.9215305 C103.813592,87.4123582 104.369583,113.90113 104.369583,113.90113 C104.369583,113.90113 110.124691,114.112993 111.03271,114.183161 Z" id="Fill-26" fill="#BE906B" transform="translate(108.800930, 82.995367) rotate(74.000000) translate(-108.800930, -82.995367) "></path>
                <path d="M53.5976495,91.3625055 C59.7123887,94.0878197 66.2329122,91.5051705 69.6059527,92.0337007 C74.7441479,92.8388173 80.1690891,95.1232958 80.4338674,94.5352849 C80.6986458,93.947274 78.6571018,92.090187 78.6571018,92.090187 C78.6571018,92.090187 81.5614928,93.1134667 81.7674575,92.4174646 C81.986908,91.6770623 77.4017923,88.7208002 75.3156426,86.9870605 C77.1098001,87.1368756 82.0229743,89.0738396 82.029243,87.8354721 C82.0342372,86.9390956 75.7948531,84.0062023 71.587729,82.9494548 C66.6882801,82.5530632 56.0286906,83.1743072 52.345924,83.6630654 C51.0523594,83.8343193 50.1332883,86.1167572 49.5887106,90.5103792 L53.5976495,91.3625055 Z" id="Fill-75" fill="#BE906B" transform="translate(65.808977, 88.727103) scale(-1, 1) rotate(-12.000000) translate(-65.808977, -88.727103) "></path>
                <g id="Laptop" transform="translate(39.339970, 78.956430) scale(-1, 1) translate(-39.339970, -78.956430) translate(0.839970, 60.456430)">
                  <path d="M11.214039,33.2448664 L64.899061,33.2448664 L75.4464899,2.63968903 C75.8531599,1.46042029 74.9771377,0.231457895 73.7296088,0.231457895 L24.2775472,0.231457895 C23.2685165,0.231457895 22.3710906,0.871741569 22.0423912,1.82547755 L11.214039,33.2448664 Z" id="Fill-1" fill="#767678"></path>
                  <path d="M1.64827465,36.9592532 L63.1658978,36.9592532 C64.0759365,36.9592532 64.8139814,36.2211112 64.8139814,35.3109527 L64.8139814,34.65729 C64.8139814,33.7467493 64.0759365,33.0086073 63.1658978,33.0086073 L1.64827465,33.0086073 C0.737853731,33.0086073 0.000191104308,33.7467493 0.000191104308,34.65729 L0.000191104308,35.3109527 C0.000191104308,36.2211112 0.737853731,36.9592532 1.64827465,36.9592532" id="Fill-4" fill="#5F5D5A"></path>
                  <path d="M11.214039,33.2448664 L13.9521815,33.2448664 L24.4996104,2.63968903 C24.9062804,1.46042029 24.2775472,0.231457895 24.2775472,0.231457895 C23.2685165,0.231457895 22.3710906,0.871741569 22.0423912,1.82547755 L11.214039,33.2448664 Z" id="Fill-6" fill="#5F5D5A"></path>
                </g>
                <path d="M160.027741,59.8580442 C161.765612,68.4806757 158.585168,76.9629112 148.791218,81.4056126 C142.758255,76.163603 135.988448,73.1462109 128.481796,72.3534363 C127.084935,71.3030676 126.583789,70.0043762 126.97836,68.4573619 C127.37293,66.9103476 128.568708,65.5979575 130.565692,64.5201916 C127.678714,58.0503153 121.624246,51.8672807 112.402289,45.9710877 C103.180332,40.0748946 96.3629748,29.4351664 91.9502184,14.0519031 C105.652674,10.4722817 117.999575,12.4693117 128.990923,20.0429933 C145.477946,31.4035157 158.893019,54.2280035 160.027741,59.8580442 Z" id="Fill-28" fill="#F56262" transform="translate(126.214783, 46.867106) rotate(29.000000) translate(-126.214783, -46.867106) "></path>
              </g>
              <g id="Face" transform="translate(58.563699, 0.142829)">
                <path d="M20.1260569,26.0932719 L20.1943267,53.5817602 C20.2028605,55.3785188 19.7719069,57.3031605 17.0048433,58.6054375 L17.0048433,58.6054375 C21.8861397,66.3658148 38.9578768,64.8184284 48.1913781,57.079365 L48.1913781,57.079365 C47.0606582,56.9983723 46.1582157,54.7604168 46.1454151,52.394578 L46.1454151,52.394578 L45.9790073,26.0932719 L20.1260569,26.0932719 Z" id="Fill-32" fill="url(#radialGradient-3)"></path>
                <g id="Group" transform="translate(26.564612, 28.744876) rotate(-10.000000) translate(-26.564612, -28.744876) translate(4.064612, 3.744876)">
                  <g id="Group-45" transform="translate(0.000000, -0.000000)">
                    <path d="M21.8336957,27.800897 L43.9552705,27.9245174 L44.0279014,15.080784 C44.0470081,11.4616901 41.1284707,8.51185158 37.5059002,8.49053772 L21.9425009,8.40513867 C16.9908011,8.37757424 12.9586112,12.3632665 12.9287432,17.3080826 L12.9200869,18.7979216 C12.8946082,23.7427376 16.8841294,27.773189 21.8336957,27.800897" id="Fill-35" fill="#594539"></path>
                    <path d="M33.7404922,28.3669932 C33.721402,31.4361894 36.2004521,33.9405682 39.2747301,33.9577068 C42.3468748,33.9746704 44.851526,31.4979996 44.8686811,28.4288034 C44.885661,25.3574758 42.4066109,22.8552284 39.3344663,22.8380898 C36.2623217,22.8211262 33.7576704,25.297797 33.7404922,28.3669932" id="Fill-37" fill="#BE906B"></path>
                    <path d="M21.6982227,49.5602757 L21.6982227,49.5602757 C31.4416147,49.6132906 39.3865221,41.7655265 39.4398579,32.0314856 L39.5103471,19.7312556 C39.5294621,15.7583516 36.3250446,12.5186446 32.3483241,12.4973307 L6.64898087,12.3545278 L6.52926681,34.2353389 C6.48257304,42.6521832 13.2754262,49.5131155 21.6982227,49.5602757" id="Fill-39" fill="#BE906B"></path>
                    <path d="M13.1958491,13.7458968 C17.8510016,12.5842913 21.6079784,12.1175177 26.342068,11.942744 C33.7322825,11.6677952 39.7805673,12.8741598 39.7805673,12.8741598 L39.710164,10.6724378 C39.5458896,5.68499401 36.4609443,1.06628004 30.3721244,1.93801701 C21.0276844,3.27652757 23.0416459,0.567535661 19.0201233,0.328820402 C15.2055437,0.102893461 14.3799048,3.8754471 12.7840964,3.91594344 C8.90551377,4.01611859 9.62021408,-1.04592372 3.81940766,0.343740106 C-1.10029061,1.52452808 -3.87588795,18.0065378 13.1958491,13.7458968" id="Fill-41" fill="#594539"></path>
                    <path d="M24.5359029,25.8536625 C24.5295026,27.1879103 25.1119301,28.2749173 25.8330307,28.2791927 C26.5583982,28.2834429 27.1514927,27.20283 27.157893,25.8685823 C27.1664268,24.5322031 26.5861328,23.4473275 25.8607653,23.4430521 C25.1375313,23.4388019 24.5444367,24.5194148 24.5359029,25.8536625" id="Fill-43" fill="#3A312E"></path>
                  </g>
                  <path d="M6.26410942,47.2694052 L19.5468681,47.3269526 L19.5511349,35.6789268 C19.5511349,35.067219 19.241787,34.4960075 18.7276295,34.157117 L18.7276295,34.157117 L16.1077728,32.4306942 C15.538146,32.0555702 15.3781385,31.2925339 15.7472225,30.7170597 L15.7472225,30.7170597 L18.0278632,27.1768271 C18.5740223,26.3327982 18.8620358,25.3523605 18.8663027,24.3484776 L18.8663027,24.3484776 L18.9153717,11.8649484 L5.63474646,11.807401 L6.26410942,47.2694052 Z" id="Fill-46" fill="url(#radialGradient-4)"></path>
                  <g id="Group-55" transform="translate(11.761967, 10.918004)">
                    <path d="M28.8165043,0.515552131 C28.8165043,0.515552131 20.0992939,-1.52844727 19.755811,5.10016392 C19.5510014,9.0368343 22.3756677,11.0488629 24.8717852,11.590235 C27.1118907,12.0783225 28.8165043,12.0698066 28.8165043,12.0698066 L28.8165043,0.515552131 Z" id="Fill-49" fill="#594539"></path>
                    <path d="M0.0441630728,14.8689465 C0.0356293378,16.2053256 0.618056757,17.2902012 1.3412908,17.2944766 C2.06452485,17.2987268 2.65975287,16.2202453 2.66615318,14.8838662 C2.67255348,13.547487 2.09225949,12.4626114 1.36902544,12.4583361 C0.643657962,12.4540859 0.0505633741,13.5346987 0.0441630728,14.8689465" id="Fill-51" fill="#3A312E"></path>
                    <path d="M13.665711,26.0160965 C13.4843691,27.6934974 12.0293673,29.1108693 10.3844899,29.5925626 C8.76094677,30.0955697 6.72991782,29.7673362 5.6674678,28.3712783 C5.51812744,28.1730593 5.55439581,27.8917164 5.75280515,27.7403879 C5.84454281,27.6700522 5.9576148,27.6423442 6.06428648,27.6508697 L6.11975576,27.6551325 C7.51502145,27.7766215 8.59667237,27.6380814 9.70605793,27.3247676 C10.8090432,27.0029283 11.7690884,26.4977898 12.9147423,25.6239214 L12.9382101,25.6068703 C13.1387529,25.4534105 13.424633,25.4917755 13.5761068,25.6921258 C13.6486435,25.7880381 13.6785116,25.9052644 13.665711,26.0160965" id="Fill-53" fill="#9A6541"></path>
                  </g>
                </g>
              </g>
            </g>
            <g id="Group-10-Copy" transform="translate(18.555773, 56.012417)">
              <path d="M47.1365274,9.61355136 L51.1167171,9.61355136 L51.1167171,2.12496912 L47.1365274,2.12496912 C45.0666562,2.12496912 43.3891982,3.80058517 43.3891982,5.87033712 C43.3891982,7.93793532 45.0666562,9.61355136 47.1365274,9.61355136" id="Fill-1" fill="#F9DDBF"></path>
              <mask id="mask-6" fill="white">
                <use xlink:href="#path-5"></use>
              </mask>
              <use id="Rectangle-Copy-3" fill="#DFBC97" xlink:href="#path-5"></use>
            </g>
            <g id="Group-28-Copy" transform="translate(0.304018, 89.262490)">
              <path d="M5.80302949,2.46505365 C8.22984024,1.85101732 10.7702102,2.9160917 12.0334993,5.07723763 L21.2951759,20.9214616 C22.2193449,22.5024647 21.6868756,24.533308 20.1058724,25.457477 C19.8971297,25.5794967 19.6756669,25.6783186 19.4454347,25.7521797 C17.1450566,26.4901675 14.6405317,25.533882 13.4174033,23.450538 L3.8454371,7.14669034 C2.95838029,5.63577412 3.46411827,3.69183289 4.9750345,2.80477608 C5.23359242,2.65297709 5.5123642,2.53859835 5.80302949,2.46505365 Z" id="Path-5" fill="#605D5A" transform="translate(12.543233, 14.221515) rotate(-8.000000) translate(-12.543233, -14.221515) "></path>
              <path d="M15.4344667,22.9432695 L13.3910308,22.8546641 C12.8602506,23.0316928 12.5430843,23.207501 12.439532,23.3820884 C11.8170849,24.2790151 11.1459088,24.9356063 10.1752491,24.622951 L8.95355681,24.2294196 C8.57651565,24.1081052 8.32535409,23.7504813 8.3409184,23.3545719 L8.0811628,21.683172 C8.10837749,20.9412513 8.41057413,20.2477105 8.98775274,19.6025497 C10.1107764,18.473918 10.6223624,17.8329737 10.5225108,17.679717 C10.4226591,17.5264602 9.68321016,17.8176703 8.30416395,18.5533473 L6.5424551,21.0481803 C6.32408533,21.356342 6.00921618,21.5817299 5.64704493,21.686942 L4.48868736,22.0232268 C4.21902694,22.1009057 3.98758658,21.8191257 4.12035164,21.5729708 C4.85793115,20.1964699 6.57702315,17.0742565 7.44476803,16.2099473 C8.56732635,15.0906762 11.5317145,14.4341663 11.5317145,14.4341663 C12.1359488,14.1714882 12.8111545,14.1284687 13.447094,14.3119504 L25.7727506,21.3506324 L24.6922028,23.852892 C23.8552068,25.2234374 22.207799,25.8687427 20.663237,25.4297569 L15.4344667,22.9432695 Z" id="Fill-1" fill="#F9DDBF" transform="translate(14.927270, 19.883104) scale(1, -1) rotate(-61.000000) translate(-14.927270, -19.883104) "></path>
              <path d="M50.4452297,36.1382388 C48.5220324,37.1357325 39.8612162,32.7570424 24.4627811,23.0021684 L20.3865064,28.0737227 C37.2949652,46.0703173 49.3645384,54.0469341 56.5952259,52.0035733 C67.441257,48.9385321 69.3033723,20.3081247 69.3033723,20.3081247 L67.175286,0.362263268 C67.175286,0.362263268 58.0001293,3.95931961 55.6650775,15.7373451 C53.3300257,27.5153705 53.3300257,34.6419981 50.4452297,36.1382388 Z" id="Clip-27" fill="#738DE4"></path>
            </g>
            <path d="M103.233309,108.182524 C103.233309,121.051169 92.6532493,131.483925 79.6001243,131.483925 C66.5491555,131.483925 55.9690953,121.051169 55.9690953,108.182524 C55.9690953,95.3117249 66.5491555,84.8811227 79.6001243,84.8811227 C92.6532493,84.8811227 103.233309,95.3117249 103.233309,108.182524" id="Fill-29-Copy" fill="#738DE4"></path>
            <path d="M61.0497666,129.408788 C63.3352493,137.778254 62.2809087,146.707693 58.1109808,154.314732 L58.1109808,154.314732 L57.8867447,154.72179 L101.330322,154.72179 L101.106086,154.314732 C96.9340015,146.707693 95.8796609,137.7761 98.1629875,129.408788 L98.1629875,129.408788 L102.300574,114.235633 L56.8992437,114.192558 L61.0497666,129.408788 Z" id="Fill-31" fill="url(#radialGradient-7)"></path>
            <path d="M97.7533255,145.288373 L97.7632965,145.303127 C97.9300233,145.550312 100.173985,148.895345 103.46412,154.725286 L55.6549365,154.726598 C57.4817125,151.550813 59.4166268,148.398577 61.4658969,145.288373 L61.4658969,145.288373 L97.7533255,145.288373 Z" id="Rectangle-Copy-4" fill="#2F4CA4"></path>
            <path d="M97.7535411,145.287296 L61.4661125,145.287296 C61.9188968,143.305848 62.1560696,141.302862 62.1991919,139.278339 L97.0204618,139.278339 C97.0635841,141.302862 97.3007568,143.305848 97.7535411,145.287296" id="Fill-37" fill="#2F4CA4"></path>
            <g id="Group-45-Copy" transform="translate(55.823119, 84.804442)">
              <path d="M0.144682804,23.377005 C0.144682804,36.24565 10.7268991,46.678406 23.7757118,46.678406 L23.7757118,46.678406 C36.8309928,46.678406 47.4088969,36.24565 47.4088969,23.377005 L47.4088969,23.377005 C47.4088969,10.5083599 36.8309928,0.075603986 23.7757118,0.075603986 L23.7757118,0.075603986 C10.7268991,0.075603986 0.144682804,10.5083599 0.144682804,23.377005" id="Clip-44"></path>
              <path d="M23.7757118,0.075603986 L24.1666189,0.0787258159 C27.6630631,0.134608876 30.9745791,0.938824919 33.9437434,2.33596491 C33.7623482,2.57489765 33.408158,3.09010099 33.362665,3.42274395 C33.306606,6.24630775 31.0987434,8.47112956 28.371257,8.47112956 L28.371257,8.47112956 L15.2211068,8.47112956 C11.5643604,8.47112956 11.0209571,5.41875376 10.9931861,3.77675445 C14.678638,1.43436886 19.0665498,0.075603986 23.7757118,0.075603986 L23.7757118,0.075603986 Z" id="Clip-44-Copy-2" fill="#F9DDBF"></path>
            </g>
            <path d="M76.0141898,81.2785551 L73.2198638,81.2785551 C61.473345,81.2785551 51.9519377,71.7676033 51.9519377,60.0339835 L51.9519377,56.3036918 C51.9519377,44.570072 61.473345,35.0591202 73.2198638,35.0591202 L76.0141898,35.0591202 C87.7607086,35.0591202 97.2821159,44.570072 97.2821159,56.3036918 L97.2821159,60.0339835 C97.2821159,71.7676033 87.7607086,81.2785551 76.0141898,81.2785551" id="Fill-39" fill="#DFBC97" transform="translate(74.617027, 58.168838) rotate(-10.000000) translate(-74.617027, -58.168838) "></path>
            <path d="M73.5193377,73.3039271 L73.5193377,83.5471532 C73.5193377,86.4374831 71.5637407,87.5703547 71.5637407,87.5703547 L71.5637407,87.5703547 L85.8975984,87.456206 C85.8975984,87.456206 84.2654187,86.5430168 84.2654187,84.6994084 L84.2654187,84.6994084 L84.2654187,73.3039271 L73.5193377,73.3039271 Z" id="Fill-46" fill="url(#radialGradient-8)" transform="translate(78.730670, 80.437141) rotate(-10.000000) translate(-78.730670, -80.437141) "></path>
            <path d="M73.3294957,81.2442903 L73.0987913,81.2442903 C65.0543233,81.2442903 58.5320731,74.7313559 58.5320731,66.6957217 L58.5320731,60.6415357 C58.5320731,52.6059014 65.0543233,46.0929671 73.0987913,46.0929671 L73.3294957,46.0929671 C81.3739637,46.0929671 87.8940578,52.6059014 87.8940578,60.6415357 L87.8940578,66.6957217 C87.8940578,74.7313559 81.3739637,81.2442903 73.3294957,81.2442903" id="Fill-49" fill="#F9DDBF" transform="translate(73.213065, 63.668629) rotate(-10.000000) translate(-73.213065, -63.668629) "></path>
            <path d="M89.2918531,67.1859522 L85.3116634,67.1859522 L85.3116634,59.6973699 L89.2918531,59.6973699 C91.3617243,59.6973699 93.0391824,61.372986 93.0391824,63.4427379 C93.0391824,65.5103361 91.3617243,67.1859522 89.2918531,67.1859522" id="Fill-51" fill="#F9DDBF" transform="translate(89.175423, 63.441661) rotate(-10.000000) translate(-89.175423, -63.441661) "></path>
            <polygon id="Fill-54" fill="url(#radialGradient-9)" transform="translate(66.066139, 67.518201) rotate(-10.000000) translate(-66.066139, -67.518201) " points="61.157741 76.3991814 70.9745361 76.3991814 70.9745361 58.6372205 61.157741 58.6372205"></polygon>
            <g id="Group-64" transform="translate(71.846176, 59.018295) rotate(-10.000000) translate(-71.846176, -59.018295) translate(53.297643, 45.247414)">
              <path d="M11.6034718,19.0197497 C11.6034718,20.3399973 11.0407256,21.4082564 10.3443002,21.4082564 C9.65003092,21.4082564 9.08512858,20.3399973 9.08512858,19.0197497 C9.08512858,17.7016559 9.65003092,16.631243 10.3443002,16.631243 C11.0407256,16.631243 11.6034718,17.7016559 11.6034718,19.0197497" id="Fill-56" fill="#33312D"></path>
              <path d="M24.0664679,19.0197497 C24.0664679,20.3399973 23.5037217,21.4082564 22.8072963,21.4082564 C22.113027,21.4082564 21.5481246,20.3399973 21.5481246,19.0197497 C21.5481246,17.7016559 22.113027,16.631243 22.8072963,16.631243 C23.5037217,16.631243 24.0664679,17.7016559 24.0664679,19.0197497" id="Fill-58" fill="#33312D"></path>
              <path d="M16.2893582,27.5096095 C16.1319618,26.0213695 14.4739088,25.2890951 13.807669,24.6085107 C13.510125,24.3048323 13.4475976,23.8288539 13.7127999,23.4971767 C14.5278117,22.4719926 15.9249747,21.1366688 16.2893582,16.824865 C17.1129945,18.3152587 18.9521612,24.1045337 16.2893582,27.5096095" id="Fill-60" fill="#F9DDBF"></path>
              <path d="M31.1926461,0.139778254 C35.1663675,9.5171976 37.1198084,15.6639948 37.0508127,16.2110468 C35.5436878,16.9993186 33.9179765,17.3913008 32.1693666,17.3913008 C29.3599477,17.3913008 26.9450981,16.4501128 24.9226614,14.5698907 C22.902381,12.6530549 21.804918,9.14029168 21.6345849,6.40287781 L12.4861856,6.40287781 C12.3481942,9.14029168 11.2701363,12.6530549 9.24769971,14.5698907 C7.22741922,16.4501128 4.81256955,17.3913008 2.00099457,17.3913008 C0.116549375,17.3913008 0.0497097862,7.22560959 0.0497097862,7.22560959 L3.33778635,0.139778254 L31.1926461,0.139778254 Z" id="Fill-62" fill="#DFBC97"></path>
            </g>
            <g id="Group-73" transform="translate(71.090337, 63.050786) rotate(-10.000000) translate(-71.090337, -63.050786) translate(66.453204, 49.560944)" fill="#BF8F68">
              <path d="M4.59314487,2.38437947 L0.0178671775,2.38437947 C0.0178671775,1.16535803 1.00752432,0.176787639 2.22788585,0.176787639 L2.38312619,0.176787639 C3.60348772,0.176787639 4.59314487,1.16535803 4.59314487,2.38437947" id="Fill-67"></path>
              <path d="M9.16756011,2.38437947 L4.59228242,2.38437947 C4.59228242,1.16535803 5.58193956,0.176787639 6.8023011,0.176787639 L6.95754143,0.176787639 C8.17790297,0.176787639 9.16756011,1.16535803 9.16756011,2.38437947" id="Fill-69"></path>
              <path d="M2.82771726,25.2205709 C3.32146778,25.1365747 3.79150102,25.1128835 4.20547525,25.0504248 C4.62376171,24.9728898 4.99245751,24.9276611 5.32234322,24.8221275 C5.99073912,24.6519814 6.51898748,24.3439954 7.41377553,23.7452534 L7.45689785,23.7172547 C7.63801157,23.5966448 7.88380877,23.6440272 8.00455126,23.8249421 C8.0519858,23.8960158 8.07354696,23.9757045 8.07139085,24.0553931 C8.0519858,24.6347514 7.89458935,25.2593383 7.46767843,25.7396242 C7.07957759,26.2479087 6.4801774,26.6205072 5.85705994,26.7820383 C5.23178636,26.9328006 4.59573221,26.9392619 4.03082987,26.7605008 C3.45945919,26.5946622 2.9549281,26.3426736 2.5323294,25.8839253 C2.38571353,25.7245479 2.39649411,25.4768669 2.55604668,25.330412 C2.6142618,25.2787221 2.68325751,25.2464158 2.75440933,25.2334934 L2.82771726,25.2205709 Z" id="Fill-71"></path>
            </g>
            <polygon id="Fill-65" fill="url(#radialGradient-10)" transform="translate(64.116078, 45.942017) rotate(-10.000000) translate(-64.116078, -45.942017) " points="60.2620209 52.8975468 67.9701348 52.8975468 67.9701348 38.9864877 60.2620209 38.9864877"></polygon>
            <path d="M62.732334,152.778573 C58.5120472,154.706197 54.8577288,154.851374 52.3479888,155.816313 C48.5248702,157.286216 44.7262123,159.957708 44.4248359,159.542136 C44.1234596,159.126565 45.3876345,157.34277 45.3876345,157.34277 C45.3876345,157.34277 43.3207973,158.617102 43.0468056,158.107612 C42.7550682,157.565677 45.7956533,154.507409 47.1146263,152.812581 C45.7578969,153.223352 42.2957034,155.539796 42.0855655,154.574291 C41.9331081,153.875496 46.2514154,150.564537 49.3158566,149.050726 C53.0228949,147.938929 61.3341697,146.678007 64.2510681,146.456325 C67.1677674,146.233706 69.422189,150.172027 66.7542074,151.592748 C65.6065294,152.202813 64.0504878,152.422987 62.732334,152.778573 Z" id="Fill-75" fill="#F9DDBF"></path>
            <path d="M107.710471,128.173019 C108.384109,134.660034 107.814929,141.619963 101.14836,145.235138 C96.7039806,147.645255 83.8625111,150.261822 62.6239516,153.08484 L61.6675138,145.855518 C61.6675138,145.855518 90.8255146,139.663574 93.674235,132.827283 C96.5229553,125.990992 89.5630706,113.12578 87.9267392,108.527904 C87.7326524,108.211488 85.4816365,98.4809002 89.8840626,95.5337111 C94.2864888,92.5865219 98.144863,94.3892641 101.227914,99.7376059 C104.310965,105.085948 107.027088,121.57329 107.710471,128.173019 Z" id="Fill-77" fill="#738DE4"></path>
          </g>
          <path d="M31.4890966,84.6488889 C31.6519219,84.4829621 31.7333333,84.2992603 31.7333333,84.0977778 C31.7333333,83.8962953 31.657737,83.7185193 31.5065421,83.5644444 C31.3553471,83.4103696 31.180894,83.3333333 30.9831776,83.3333333 C30.7854611,83.3333333 30.6051929,83.4162955 30.4423676,83.5822222 L27.2672897,86.8177778 L25.5576324,85.0755556 C25.3948071,84.9333326 25.2145389,84.8622222 25.0168224,84.8622222 C24.819106,84.8622222 24.6446529,84.9392585 24.4934579,85.0933333 C24.342263,85.2474082 24.2666667,85.4251842 24.2666667,85.6266667 C24.2666667,85.8281492 24.3480781,85.9999993 24.5109034,86.1422222 L26.7439252,88.4177778 C26.8834898,88.5837045 27.0521278,88.6666667 27.2498442,88.6666667 C27.4475607,88.6666667 27.6278289,88.5837045 27.7906542,88.4177778 L31.4890966,84.6488889 Z M28,78 C30.2014294,78 32.0850986,78.7829709 33.6510638,80.3489362 C35.2170291,81.9149014 36,83.7985706 36,86 C36,88.2014294 35.2170291,90.0850986 33.6510638,91.6510638 C32.0850986,93.2170291 30.2014294,94 28,94 C25.7985706,94 23.9149014,93.2170291 22.3489362,91.6510638 C20.7829709,90.0850986 20,88.2014294 20,86 C20,83.7985706 20.7829709,81.9149014 22.3489362,80.3489362 C23.9149014,78.7829709 25.7985706,78 28,78 Z" id="O" fill="#00A573"></path>
          <path d="M233.489097,100.648889 C233.651922,100.482962 233.733333,100.29926 233.733333,100.097778 C233.733333,99.8962953 233.657737,99.7185193 233.506542,99.5644444 C233.355347,99.4103696 233.180894,99.3333333 232.983178,99.3333333 C232.785461,99.3333333 232.605193,99.4162955 232.442368,99.5822222 L229.26729,102.817778 L227.557632,101.075556 C227.394807,100.933333 227.214539,100.862222 227.016822,100.862222 C226.819106,100.862222 226.644653,100.939258 226.493458,101.093333 C226.342263,101.247408 226.266667,101.425184 226.266667,101.626667 C226.266667,101.828149 226.348078,101.999999 226.510903,102.142222 L228.743925,104.417778 C228.88349,104.583705 229.052128,104.666667 229.249844,104.666667 C229.447561,104.666667 229.627829,104.583705 229.790654,104.417778 L233.489097,100.648889 Z M230,94 C232.201429,94 234.085099,94.7829709 235.651064,96.3489362 C237.217029,97.9149014 238,99.7985706 238,102 C238,104.201429 237.217029,106.085099 235.651064,107.651064 C234.085099,109.217029 232.201429,110 230,110 C227.798571,110 225.914901,109.217029 224.348936,107.651064 C222.782971,106.085099 222,104.201429 222,102 C222,99.7985706 222.782971,97.9149014 224.348936,96.3489362 C225.914901,94.7829709 227.798571,94 230,94 Z" id="O-Copy" fill="#00A573"></path>
          <path d="M14.3613707,41.3111111 C14.5649024,41.1037027 14.6666667,40.8740753 14.6666667,40.6222222 C14.6666667,40.3703691 14.5721712,40.1481491 14.3831776,39.9555556 C14.1941839,39.762962 13.9761175,39.6666667 13.728972,39.6666667 C13.4818264,39.6666667 13.2564912,39.7703693 13.0529595,39.9777778 L9.08411215,44.0222222 L6.9470405,41.8444444 C6.74350885,41.6666667 6.51817361,41.5777778 6.27102804,41.5777778 C6.02388246,41.5777778 5.80581611,41.6740731 5.61682243,41.8666667 C5.42782875,42.0592602 5.33333333,42.2814802 5.33333333,42.5333333 C5.33333333,42.7851864 5.43509763,42.9999991 5.63862928,43.1777778 L8.42990654,46.0222222 C8.60436224,46.2296307 8.81515972,46.3333333 9.0623053,46.3333333 C9.30945087,46.3333333 9.53478611,46.2296307 9.73831776,46.0222222 L14.3613707,41.3111111 Z M10,33 C12.7517868,33 15.1063732,33.9787136 17.0638298,35.9361702 C19.0212864,37.8936268 20,40.2482132 20,43 C20,45.7517868 19.0212864,48.1063732 17.0638298,50.0638298 C15.1063732,52.0212864 12.7517868,53 10,53 C7.24821319,53 4.89362681,52.0212864 2.93617021,50.0638298 C0.978713617,48.1063732 0,45.7517868 0,43 C0,40.2482132 0.978713617,37.8936268 2.93617021,35.9361702 C4.89362681,33.9787136 7.24821319,33 10,33 Z" id="O-Copy" fill="#00A573"></path>
          <path d="M51.7975078,9.14222222 C52.0213926,8.91407293 52.1333333,8.66148287 52.1333333,8.38444444 C52.1333333,8.10740602 52.0293884,7.86296402 51.8214953,7.65111111 C51.6136023,7.4392582 51.3737293,7.33333333 51.1018692,7.33333333 C50.830009,7.33333333 50.5821403,7.44740627 50.3582555,7.67555556 L45.9925234,12.1244444 L43.6417445,9.72888889 C43.4178597,9.53333236 43.169991,9.43555556 42.8981308,9.43555556 C42.6262707,9.43555556 42.3863977,9.54148042 42.1785047,9.75333333 C41.9706116,9.96518624 41.8666667,10.2096282 41.8666667,10.4866667 C41.8666667,10.7637051 41.9786074,10.999999 42.2024922,11.1955556 L45.2728972,14.3244444 C45.4647985,14.5525937 45.6966757,14.6666667 45.9685358,14.6666667 C46.240396,14.6666667 46.4882647,14.5525937 46.7121495,14.3244444 L51.7975078,9.14222222 Z M47,0 C50.0269655,0 52.6170105,1.07658498 54.7702128,3.22978723 C56.923415,5.38298949 58,7.97303451 58,11 C58,14.0269655 56.923415,16.6170105 54.7702128,18.7702128 C52.6170105,20.923415 50.0269655,22 47,22 C43.9730345,22 41.3829895,20.923415 39.2297872,18.7702128 C37.076585,16.6170105 36,14.0269655 36,11 C36,7.97303451 37.076585,5.38298949 39.2297872,3.22978723 C41.3829895,1.07658498 43.9730345,0 47,0 Z" id="O-Copy" fill="#00A573"></path>
          <path d="M242.797508,57.1422222 C243.021393,56.9140729 243.133333,56.6614829 243.133333,56.3844444 C243.133333,56.107406 243.029388,55.862964 242.821495,55.6511111 C242.613602,55.4392582 242.373729,55.3333333 242.101869,55.3333333 C241.830009,55.3333333 241.58214,55.4474063 241.358255,55.6755556 L236.992523,60.1244444 L234.641745,57.7288889 C234.41786,57.5333324 234.169991,57.4355556 233.898131,57.4355556 C233.626271,57.4355556 233.386398,57.5414804 233.178505,57.7533333 C232.970612,57.9651862 232.866667,58.2096282 232.866667,58.4866667 C232.866667,58.7637051 232.978607,58.999999 233.202492,59.1955556 L236.272897,62.3244444 C236.464798,62.5525937 236.696676,62.6666667 236.968536,62.6666667 C237.240396,62.6666667 237.488265,62.5525937 237.71215,62.3244444 L242.797508,57.1422222 Z M238,48 C241.026965,48 243.617011,49.076585 245.770213,51.2297872 C247.923415,53.3829895 249,55.9730345 249,59 C249,62.0269655 247.923415,64.6170105 245.770213,66.7702128 C243.617011,68.923415 241.026965,70 238,70 C234.973035,70 232.382989,68.923415 230.229787,66.7702128 C228.076585,64.6170105 227,62.0269655 227,59 C227,55.9730345 228.076585,53.3829895 230.229787,51.2297872 C232.382989,49.076585 234.973035,48 238,48 Z" id="O-Copy-3" fill="#00A573"></path>
        </g>
      </g>
    </g>
  </svg>