<svg xmlns="http://www.w3.org/2000/svg" width="auto" height="auto" viewBox="0 0 165 163">
    <g fill="none" fill-rule="evenodd">
        <path d="M70.375 131.004s4.213 3.028 18.416 4.272v4.02H70.375v-8.292z"/>
        <path d="M96.693 107.599c-7.514 7.514-21.268 5.945-30.718-3.505-9.45-9.451-11.02-23.204-3.503-30.719 7.513-7.514 21.267-5.946 30.718 3.504 9.45 9.45 11.019 23.204 3.503 30.72M47.01 57.915C32.705 72.219 35.692 98.4 53.68 116.387c17.988 17.99 44.168 20.977 58.472 6.673 14.306-14.306 11.32-40.485-6.67-58.475-17.988-17.987-44.169-20.976-58.473-6.67"/>
        <path fill="#FFF" d="M74.644 69.16c-4.71 0-8.788 1.588-11.794 4.593-3.517 3.517-5.1 8.559-4.457 14.196.649 5.681 3.476 11.28 7.96 15.766 5.147 5.148 11.769 8.099 18.167 8.099 4.71 0 8.789-1.59 11.795-4.594 7.294-7.294 5.722-20.735-3.504-29.962-5.148-5.147-11.77-8.099-18.167-8.099m9.876 43.726c-6.68 0-13.577-3.066-18.923-8.413-4.656-4.656-7.592-10.481-8.268-16.403-.68-5.967 1.011-11.32 4.764-15.072 3.165-3.165 7.622-4.909 12.551-4.909 6.68 0 13.577 3.067 18.924 8.413 9.644 9.645 11.215 23.765 3.504 31.476-3.165 3.165-7.623 4.908-12.552 4.908m-14.339-63.48c-9.097 0-16.979 3.074-22.793 8.889-6.8 6.8-9.862 16.537-8.62 27.415 1.245 10.924 6.677 21.686 15.292 30.3 9.886 9.887 22.615 15.559 34.922 15.56h.001c9.096 0 16.977-3.073 22.792-8.888 14.073-14.074 11.08-39.966-6.67-57.717-9.888-9.888-22.617-15.559-34.924-15.559m18.802 83.234h-.001c-12.59 0-25.594-5.785-35.68-15.873-8.785-8.785-14.325-19.771-15.599-30.935-1.279-11.21 1.892-21.26 8.928-28.294 6.02-6.02 14.163-9.203 23.55-9.203 12.588 0 25.594 5.786 35.68 15.873 18.17 18.169 21.162 44.74 6.67 59.23-6.018 6.02-14.162 9.202-23.548 9.202"/>
        <path d="M96.693 107.599c-7.514 7.514-21.268 5.945-30.718-3.505-9.45-9.451-11.02-23.204-3.503-30.719 7.513-7.514 21.267-5.946 30.718 3.504 9.45 9.45 11.019 23.204 3.503 30.72M54.612 65.516c-10.967 10.967-8.676 31.038 5.112 44.827 13.793 13.79 33.862 16.082 44.829 5.114 10.963-10.966 8.675-31.035-5.115-44.827-13.79-13.79-33.86-16.08-44.826-5.114"/>
        <path fill="#FFF" d="M74.644 69.16c-4.71 0-8.788 1.588-11.794 4.593-3.517 3.517-5.1 8.559-4.457 14.196.649 5.681 3.476 11.28 7.96 15.766 5.147 5.148 11.769 8.099 18.167 8.099 4.71 0 8.789-1.59 11.795-4.594 7.294-7.294 5.722-20.735-3.504-29.962-5.148-5.147-11.77-8.099-18.167-8.099m9.876 43.726c-6.68 0-13.577-3.066-18.923-8.413-4.656-4.656-7.592-10.481-8.268-16.403-.68-5.967 1.011-11.32 4.764-15.072 3.165-3.165 7.622-4.909 12.551-4.909 6.68 0 13.577 3.067 18.924 8.413 9.644 9.645 11.215 23.765 3.504 31.476-3.165 3.165-7.623 4.908-12.552 4.908M72.376 59.119c-6.94 0-12.952 2.343-17.386 6.777-10.74 10.738-8.446 30.508 5.113 44.069 7.558 7.556 17.284 11.89 26.686 11.89h.002c6.939 0 12.95-2.343 17.383-6.777 10.739-10.74 8.444-30.509-5.115-44.07-7.555-7.556-17.28-11.89-26.683-11.89m14.415 63.808h-.002c-9.683 0-19.686-4.45-27.443-12.205-13.977-13.977-16.27-34.426-5.112-45.583 4.638-4.639 10.912-7.09 18.142-7.09 9.684 0 19.685 4.448 27.44 12.204 13.977 13.977 16.27 34.427 5.115 45.583-4.638 4.639-10.912 7.091-18.14 7.091"/>
        <path fill="#F5F5F5" d="M70.375 139.296v-8.292"/>
        <path fill="#FFF" d="M69.84 139.295h1.07v-8.291h-1.07z"/>
        <path fill="#F5F5F5" d="M88.79 139.296v-4.02"/>
        <path fill="#FFF" d="M88.255 139.295h1.07v-4.02h-1.07z"/>
        <path d="M48.37 146.822l5.375-4.839h51.675l5.374 4.839"/>
        <path fill="#FFF" d="M48.728 147.219l-.716-.795 5.528-4.976h52.085l5.527 4.976-.716.795-5.222-4.7H53.95z"/>
        <path fill="#EBEBEB" d="M90.383 101.807l-1.011-.352 13.168-37.857-34.1 14.971-.431-.98 36.349-15.958z"/>
        <path d="M108.687 60.068a3.055 3.055 0 1 1-6.11-.001 3.055 3.055 0 0 1 6.11.001"/>
        <path fill="#EBEBEB" d="M105.632 57.549a2.52 2.52 0 0 0-2.518 2.52 2.52 2.52 0 0 0 2.518 2.517c1.39 0 2.52-1.13 2.52-2.518 0-1.39-1.13-2.519-2.52-2.519m0 6.108a3.593 3.593 0 0 1-3.589-3.589c0-1.98 1.61-3.59 3.589-3.59 1.98 0 3.59 1.61 3.59 3.59a3.594 3.594 0 0 1-3.59 3.589"/>
        <path d="M21.975 66.148a1.72 1.72 0 1 1-3.44.002 1.72 1.72 0 0 1 3.44-.002"/>
        <path fill="#FFF" d="M20.255 64.964c-.653 0-1.185.531-1.185 1.184a1.186 1.186 0 0 0 2.37 0c0-.653-.531-1.184-1.185-1.184m0 3.44A2.258 2.258 0 0 1 18 66.148a2.258 2.258 0 0 1 2.255-2.255 2.258 2.258 0 0 1 2.256 2.255 2.258 2.258 0 0 1-2.256 2.256"/>
        <path fill="#EBEBEB" d="M114.491 60.604h9.497v-1.072h-9.497zM114.413 69.696l-3.706-3.704.757-.757 3.706 3.704zM99.456 54.739l-3.706-3.705.757-.757 3.706 3.705zM112.048 54.413l-.758-.757 6.716-6.715.757.757zM105.097 51.638h1.07v-9.497h-1.07zM139.392 36.159a.458.458 0 1 1 .001-.917.458.458 0 0 1 0 .917"/>
        <path fill="#EBEBEB" d="M139.392 34.17c-.845 0-1.528.686-1.528 1.53a1.53 1.53 0 1 0 1.528-1.53M90.812 16.99a.46.46 0 1 1 .002-.92.46.46 0 0 1-.002.92"/>
        <path fill="#EBEBEB" d="M90.812 15c-.846 0-1.53.684-1.53 1.53a1.529 1.529 0 1 0 3.06 0 1.53 1.53 0 0 0-1.53-1.53M133.524 74.454a.459.459 0 1 1 .001-.917.459.459 0 0 1-.001.917"/>
        <path fill="#EBEBEB" d="M133.524 72.466c-.845 0-1.529.684-1.529 1.53s.684 1.53 1.529 1.53a1.53 1.53 0 1 0 0-3.06"/>
        <path d="M87.78 35.597a2.5 2.5 0 0 1-2.498-2.497 2.501 2.501 0 0 1 2.498-2.497 2.5 2.5 0 0 1 2.496 2.497 2.5 2.5 0 0 1-2.496 2.497"/>
        <path fill="#FFF" d="M87.78 30.067a3.032 3.032 0 1 0-.002 6.065 3.032 3.032 0 0 0 .002-6.065m0 1.071c1.081 0 1.961.88 1.961 1.962 0 1.081-.88 1.961-1.961 1.961a1.964 1.964 0 0 1-1.963-1.96c0-1.083.88-1.963 1.963-1.963"/>
        <path d="M144.746 61.037a2.5 2.5 0 0 1-2.497-2.497 2.5 2.5 0 0 1 2.497-2.498 2.5 2.5 0 0 1 2.498 2.498 2.5 2.5 0 0 1-2.498 2.497"/>
        <path fill="#FFF" d="M144.746 55.507a3.033 3.033 0 1 0 .001 6.066 3.033 3.033 0 0 0-.001-6.066m0 1.07c1.082 0 1.963.88 1.963 1.963a1.963 1.963 0 0 1-3.925 0c0-1.082.88-1.963 1.962-1.963"/>
        <path d="M28.095 35.241a2.5 2.5 0 0 1-2.498-2.498 2.5 2.5 0 0 1 2.498-2.497 2.5 2.5 0 0 1 2.497 2.497 2.5 2.5 0 0 1-2.497 2.498"/>
        <path fill="#FFF" d="M28.095 29.711a3.032 3.032 0 1 0-.002 6.065 3.032 3.032 0 0 0 .002-6.065m0 1.07c1.082 0 1.961.88 1.961 1.962 0 1.083-.88 1.963-1.961 1.963a1.964 1.964 0 0 1-1.963-1.963c0-1.081.88-1.961 1.963-1.961"/>
        <path fill="#EBEBEB" d="M37.182 49.903a.46.46 0 1 1 .001-.92.46.46 0 0 1-.001.92"/>
        <path fill="#EBEBEB" d="M37.182 47.914a1.531 1.531 0 1 0 .001 3.062 1.531 1.531 0 0 0-.001-3.062"/>
        <path d="M112.487 21.906a5.546 5.546 0 0 0 3.631 6.949 5.539 5.539 0 0 0-6.944 3.629 5.545 5.545 0 0 0-3.634-6.946 5.542 5.542 0 0 0 6.947-3.632"/>
        <path fill="#EBEBEB" d="M107.922 26.286a6.117 6.117 0 0 1 1.996 3.81 6.036 6.036 0 0 1 3.819-1.99 6.12 6.12 0 0 1-1.995-3.813 6.043 6.043 0 0 1-3.82 1.993m1.763 6.357l-1.022-.319a5.014 5.014 0 0 0-3.283-6.275l.32-1.021c.488.152.992.23 1.499.23 2.2 0 4.119-1.411 4.777-3.512l1.021.32a5.017 5.017 0 0 0 3.28 6.278l-.32 1.021a4.98 4.98 0 0 0-1.498-.23 4.98 4.98 0 0 0-4.774 3.508"/>
        <path d="M65.318 32.042a5.267 5.267 0 1 1-10.325-2.096 5.268 5.268 0 0 1 10.325 2.096"/>
        <path fill="#FFF" d="M60.15 26.261a4.744 4.744 0 0 0-4.632 3.792 4.702 4.702 0 0 0 .692 3.556 4.7 4.7 0 0 0 3.003 2.023c.313.063.632.096.948.096a4.748 4.748 0 0 0 4.633-3.792 4.703 4.703 0 0 0-.693-3.555 4.702 4.702 0 0 0-3.003-2.023 4.749 4.749 0 0 0-.949-.097m.012 10.537a5.9 5.9 0 0 1-1.16-.117 5.76 5.76 0 0 1-3.683-2.481 5.766 5.766 0 0 1-.85-4.361 5.818 5.818 0 0 1 5.681-4.648c.388 0 .779.04 1.162.117a5.764 5.764 0 0 1 3.682 2.481 5.766 5.766 0 0 1 .85 4.36 5.821 5.821 0 0 1-5.682 4.65"/>
        <path fill="#FFF" d="M55.261 36.712c-.923 0-1.637-.283-2.076-.84-.916-1.162-.376-3.203 1.445-5.458l.834.671c-1.42 1.757-1.997 3.415-1.438 4.124.387.492 1.39.569 2.683.203 1.488-.418 3.188-1.344 4.789-2.606 1.602-1.262 2.899-2.7 3.653-4.048.656-1.173.817-2.166.429-2.657-.502-.635-1.989-.563-3.787.184l-.412-.987c2.358-.982 4.195-.93 5.04.139.684.868.565 2.233-.335 3.843-.822 1.47-2.216 3.02-3.925 4.366-1.709 1.348-3.541 2.342-5.162 2.798-.637.179-1.22.268-1.738.268"/>
        <path fill="#EBEBEB" d="M125.996 42.942a16.391 16.391 0 0 0-8.366-12.467l.516-.938a17.462 17.462 0 0 1 8.914 13.283l-1.064.122z"/>
    </g>
</svg>
