<svg xmlns="http://www.w3.org/2000/svg" preserveAspectRatio="xMinYMin meet" width="auto" height="auto" viewBox="0 0 125 126">
	<g clip-path="url(#clip0)">
		<path d="M103.209 23.0427H32.6289V53.5747C32.6289 74.3012 44.3376 93.2506 62.8773 102.52C66.0534 104.108 69.784 104.108 72.9601 102.52C91.4999 93.2506 103.209 74.3012 103.209 53.5747V23.0427Z" fill="#E1DFDD"/>
		<path d="M67.9189 33.1255L65.3982 58.3325L67.9189 93.6223C68.1079 93.6223 68.2844 93.5782 68.4482 93.4963C83.6733 85.8901 93.1259 70.5894 93.1259 53.5747V33.1255H67.9189Z" fill="#9A9A9A"/>
		<path d="M42.7117 33.1267V53.5759C42.7117 70.5906 52.1643 85.8913 67.3831 93.5038C67.5532 93.5857 67.7296 93.6298 67.9187 93.6298V33.1267H42.7117Z" fill="#5B5B5B"/>
		<path d="M67.9189 45.7297L65.3982 58.3332L67.9189 70.9367C74.876 70.9367 80.5224 65.2967 80.5224 58.3332C80.5224 51.3698 74.876 45.7297 67.9189 45.7297Z" fill="#FAF9F8"/>
		<path d="M55.3152 58.334C55.3152 65.2974 60.9616 70.9375 67.9187 70.9375V45.7305C60.9616 45.7305 55.3152 51.3705 55.3152 58.334Z" fill="#E1DFDD"/>
		<path d="M47.9043 40.6871C47.4002 40.6745 46.9087 40.7186 46.4361 40.8005C46.5684 39.1621 46.4802 37.4669 46.0264 35.6835C44.1044 28.1781 37.1976 22.7523 29.4591 23.0548C20.706 23.4014 13.7236 30.598 13.7236 39.4267C13.7236 39.641 13.7299 39.8489 13.7362 40.0632C12.4129 39.5087 10.9193 39.2944 9.35021 39.515C5.83383 40.0254 2.96654 42.8864 2.4624 46.4028C2.29225 47.6064 2.38045 48.7659 2.67664 49.8372C2.82788 50.3855 3.33202 50.7699 3.89918 50.7699H18.1349C18.1475 50.7321 18.1664 50.6943 18.179 50.6628C18.2105 50.7006 18.2483 50.7384 18.2798 50.7699H40.6132H53.9099C54.5149 50.7699 55.0379 50.3414 55.1577 49.749C55.29 49.1062 55.3341 48.4256 55.29 47.7324C55.0442 43.8947 51.7484 40.7627 47.9043 40.6871Z" fill="#99C9EE"/>
		<path d="M120.854 75.9775C120.854 69.0141 115.213 63.374 108.25 63.374C101.287 63.374 95.6465 69.0141 95.6465 75.9775V82.2793H100.688V75.9775C100.688 71.7995 104.072 68.4154 108.25 68.4154C112.428 68.4154 115.812 71.7995 115.812 75.9775V82.2793H120.854V75.9775Z" fill="#C8C6C4"/>
		<path d="M95.6464 81.0186C94.2537 81.0186 93.1257 82.1466 93.1257 83.5393V101.184C93.1257 102.577 94.2537 103.705 95.6464 103.705H120.853C122.246 103.705 123.374 102.577 123.374 101.184V83.5393C123.374 82.1466 122.246 81.0186 120.853 81.0186H95.6464Z" fill="#FFC733"/>
		<path d="M112.031 89.8422C112.031 87.6051 110.09 85.8217 107.802 86.0864C106.126 86.2818 104.74 87.6303 104.507 89.3003C104.305 90.756 104.929 92.0794 105.981 92.8671L104.525 97.2405C104.488 97.3539 104.469 97.4674 104.469 97.5808C104.469 98.1795 104.954 98.6647 105.553 98.6647H110.947C111.546 98.6647 112.031 98.1795 112.031 97.5808C112.031 97.4674 112.012 97.3476 111.974 97.2405L110.518 92.8671C111.438 92.1802 112.031 91.0774 112.031 89.8422Z" fill="#BF8B00"/>
		<path d="M15.9291 86.0599C16.9752 86.0599 17.8197 84.7932 17.8197 83.2241C17.8197 82.701 18.2419 82.2788 18.7649 82.2788C19.288 82.2788 19.7102 82.701 19.7102 83.2241C19.7102 84.7932 20.5546 86.0599 21.6007 86.0599C22.1238 86.0599 22.546 86.4821 22.546 87.0051C22.546 87.5282 22.1238 87.9504 21.6007 87.9504C20.5546 87.9504 19.7102 89.217 19.7102 90.7862C19.7102 91.3092 19.288 91.7314 18.7649 91.7314C18.2419 91.7314 17.8197 91.3092 17.8197 90.7862C17.8197 89.217 16.9752 87.9504 15.9291 87.9504C15.4061 87.9504 14.9839 87.5282 14.9839 87.0051C14.9839 86.4821 15.4061 86.0599 15.9291 86.0599Z" fill="#FFE399"/>
		<path d="M25.3817 79.7589C25.7282 79.7589 26.0118 79.3368 26.0118 78.8138C26.0118 78.6374 26.1504 78.4988 26.3268 78.4988C26.5032 78.4988 26.6418 78.6374 26.6418 78.8138C26.6418 79.3368 26.9254 79.7589 27.2719 79.7589C27.4483 79.7589 27.5869 79.8975 27.5869 80.074C27.5869 80.2504 27.4483 80.389 27.2719 80.389C26.9254 80.389 26.6418 80.8111 26.6418 81.3341C26.6418 81.5105 26.5032 81.6491 26.3268 81.6491C26.1504 81.6491 26.0118 81.5105 26.0118 81.3341C26.0118 80.8111 25.7282 80.389 25.3817 80.389C25.2053 80.389 25.0667 80.2504 25.0667 80.074C25.0667 79.8975 25.2053 79.7589 25.3817 79.7589Z" fill="#FFE399"/>
		<path d="M111.086 39.4271C111.432 39.4271 111.716 39.005 111.716 38.482C111.716 38.3056 111.854 38.167 112.031 38.167C112.207 38.167 112.346 38.3056 112.346 38.482C112.346 39.005 112.629 39.4271 112.976 39.4271C113.152 39.4271 113.291 39.5657 113.291 39.7422C113.291 39.9186 113.152 40.0572 112.976 40.0572C112.629 40.0572 112.346 40.4794 112.346 41.0023C112.346 41.1787 112.207 41.3173 112.031 41.3173C111.854 41.3173 111.716 41.1787 111.716 41.0023C111.716 40.4794 111.432 40.0572 111.086 40.0572C110.909 40.0572 110.771 39.9186 110.771 39.7422C110.771 39.5657 110.909 39.4271 111.086 39.4271Z" fill="#FFE399"/>
		<path d="M117.86 42.8944C117.337 42.8944 116.915 42.258 116.915 41.4767C116.915 41.2184 116.7 41.0042 116.442 41.0042C116.184 41.0042 115.969 41.2184 115.969 41.4767C115.969 42.258 115.547 42.8944 115.024 42.8944C114.766 42.8944 114.552 43.1086 114.552 43.3669C114.552 43.6252 114.766 43.8395 115.024 43.8395C115.547 43.8395 115.969 44.4758 115.969 45.2571C115.969 45.5155 116.184 45.7297 116.442 45.7297C116.7 45.7297 116.915 45.5155 116.915 45.2571C116.915 44.4758 117.337 43.8395 117.86 43.8395C118.118 43.8395 118.332 43.6252 118.332 43.3669C118.332 43.1086 118.118 42.8944 117.86 42.8944Z" fill="#FFE399"/>
	</g>
</svg>
