<svg width="120" height="120" viewBox="0 0 120 120" fill="none" xmlns="http://www.w3.org/2000/svg">
<g clip-path="url(#clip0)">
<path d="M34.65 4.34961C24.3 4.34961 15.075 8.84961 8.7 16.0496C3.3 22.1996 0 30.2246 0 39.0746C0 58.1996 15.525 73.7246 34.65 73.7246C53.775 73.7246 69.3 58.1996 69.3 39.0746C69.3 19.9496 53.85 4.34961 34.65 4.34961Z" fill="#FFD590"/>
<path d="M31.425 59.8504C22.5 59.8504 14.7 60.1504 10.125 63.5254C16.425 69.8254 25.05 73.6504 34.65 73.6504C44.25 73.6504 52.95 69.7504 59.25 63.3754C54.675 60.0754 46.875 59.7754 38.1 59.7754H31.425V59.8504Z" fill="#33312D"/>
<path d="M75.3002 112.5H95.3252V108.225C98.7752 109.125 102 110.55 105 112.35C114.075 106.125 120 95.625 120 83.85C120 75 116.7 66.975 111.3 60.825C104.925 53.625 95.7002 49.125 85.3502 49.125C66.2252 49.125 50.7002 64.65 50.7002 83.775C50.7002 95.625 56.6252 106.05 65.7002 112.275C68.6252 110.475 71.9252 109.05 75.3752 108.15V112.5H75.3002Z" fill="#7BDDEF"/>
<path d="M102.3 60.225H67.725L65.25 58.8L67.725 57.375H102.3C102.9 57.375 103.425 57.975 103.425 58.8C103.425 59.55 102.9 60.225 102.3 60.225Z" fill="#F7B548"/>
<path d="M85.35 66.6746C91.4804 66.6746 96.45 61.705 96.45 55.5746C96.45 49.4442 91.4804 44.4746 85.35 44.4746C79.2196 44.4746 74.25 49.4442 74.25 55.5746C74.25 61.705 79.2196 66.6746 85.35 66.6746Z" fill="#594539"/>
<path d="M85.35 66.6746C91.4804 66.6746 96.45 61.705 96.45 55.5746C96.45 49.4442 91.4804 44.4746 85.35 44.4746C79.2196 44.4746 74.25 49.4442 74.25 55.5746C74.25 61.705 79.2196 66.6746 85.35 66.6746Z" fill="url(#paint0_radial)"/>
<path d="M91.8758 83.7744H78.6758V116.624H91.8758V83.7744Z" fill="#E0BB95"/>
<path d="M91.8758 89.7744H78.6758V116.624H91.8758V89.7744Z" fill="url(#paint1_radial)"/>
<path d="M85.3506 101.25C97.3628 101.25 107.101 91.5122 107.101 79.5C107.101 67.4878 97.3628 57.75 85.3506 57.75C73.3384 57.75 63.6006 67.4878 63.6006 79.5C63.6006 91.5122 73.3384 101.25 85.3506 101.25Z" fill="#594539"/>
<path d="M85.35 101.474C94.587 101.474 102.075 93.9864 102.075 84.7494C102.075 75.5125 94.587 68.0244 85.35 68.0244C76.113 68.0244 68.625 75.5125 68.625 84.7494C68.625 93.9864 76.113 101.474 85.35 101.474Z" fill="#E0BB95"/>
<path d="M105.15 112.5H65.4004C70.8004 109.125 77.2504 107.1 84.1504 107.1H86.4754C93.3004 107.1 99.7504 109.125 105.15 112.5Z" fill="#E0BB95"/>
<path d="M78.4506 93.825C74.8506 93.825 71.8506 90.9 71.8506 87.225C71.8506 83.625 74.7756 80.625 78.4506 80.625C82.1256 80.625 85.0506 83.55 85.0506 87.225C85.0506 90.9 82.1256 93.825 78.4506 93.825ZM78.4506 82.35C75.7506 82.35 73.5006 84.6 73.5006 87.3C73.5006 90 75.7506 92.25 78.4506 92.25C81.1506 92.25 83.4006 90 83.4006 87.3C83.4006 84.525 81.2256 82.35 78.4506 82.35Z" fill="#9A643D"/>
<path d="M92.101 93.825C88.501 93.825 85.501 90.9 85.501 87.225C85.501 83.625 88.426 80.625 92.101 80.625C95.776 80.625 98.701 83.55 98.701 87.225C98.701 90.9 95.701 93.825 92.101 93.825ZM92.101 82.35C89.401 82.35 87.151 84.6 87.151 87.3C87.151 90 89.401 92.25 92.101 92.25C94.801 92.25 97.051 90 97.051 87.3C97.051 84.525 94.801 82.35 92.101 82.35Z" fill="#9A643D"/>
<path d="M86.551 84.75H84.001V86.4H86.551V84.75Z" fill="#9A643D"/>
<path d="M61.4998 115.349L61.4248 115.424C61.4998 115.349 61.5748 115.274 61.6498 115.199C61.6498 115.199 61.5748 115.274 61.4998 115.349Z" fill="#FFD590"/>
<path d="M65.4002 112.5L65.3252 112.575C65.3252 112.575 65.4002 112.575 65.4002 112.5Z" fill="#FFD590"/>
<path d="M75.2998 112.5V117C78.4498 117.975 81.8248 118.5 85.3498 118.5C88.8748 118.5 92.1748 117.975 95.3998 117V112.5H75.2998Z" fill="#FFD590"/>
<path d="M65.6254 112.35C65.5504 112.425 65.4754 112.425 65.4004 112.5H65.8504C65.7754 112.5 65.7004 112.425 65.6254 112.35Z" fill="#E1DFDD"/>
<path d="M65.85 112.5C68.7 114.45 71.925 115.95 75.3 117V112.5V108.225C71.85 109.125 68.625 110.55 65.625 112.35C65.7 112.425 65.775 112.5 65.85 112.5Z" fill="#E1DFDD"/>
<path d="M95.3252 108.225V112.5V117C98.7002 115.95 101.925 114.45 104.775 112.5C104.85 112.425 104.925 112.425 105 112.35C102.075 110.55 98.8502 109.125 95.3252 108.225Z" fill="#E1DFDD"/>
<path opacity="0.5" d="M83.0258 94.8C83.5508 94.95 84.0008 94.95 84.3758 94.95C84.7508 94.95 85.1258 94.8 85.5008 94.725C85.8758 94.575 86.2508 94.425 86.6258 94.2C87.0008 93.975 87.3008 93.75 87.6758 93.375L87.7508 93.3C87.9008 93.15 88.1258 93.15 88.2758 93.3C88.3508 93.375 88.3508 93.45 88.4258 93.525C88.5758 94.2 88.2758 95.025 87.9008 95.55C87.4508 96.075 86.8508 96.525 86.1758 96.75C85.5008 96.975 84.7508 97.05 84.0758 96.825C83.4008 96.6 82.7258 96.075 82.5008 95.475C82.4258 95.25 82.5008 95.025 82.7258 94.95C82.8008 94.8 82.8758 94.8 83.0258 94.8Z" fill="#9B643D"/>
<path d="M78.4496 89.7746C79.1952 89.7746 79.7996 88.7001 79.7996 87.3746C79.7996 86.0491 79.1952 84.9746 78.4496 84.9746C77.704 84.9746 77.0996 86.0491 77.0996 87.3746C77.0996 88.7001 77.704 89.7746 78.4496 89.7746Z" fill="#33312D"/>
<path d="M91.9506 89.7746C92.6962 89.7746 93.3006 88.7001 93.3006 87.3746C93.3006 86.0491 92.6962 84.9746 91.9506 84.9746C91.205 84.9746 90.6006 86.0491 90.6006 87.3746C90.6006 88.7001 91.205 89.7746 91.9506 89.7746Z" fill="#33312D"/>
<path d="M107.1 79.4998C107.1 80.7748 107.025 81.9748 106.8 83.1748C100.575 82.7998 95.1752 79.4998 91.9502 74.6248C93.9752 71.5498 95.1752 67.9498 95.1752 63.9748C95.1752 62.6248 95.0252 61.2748 94.7252 59.9248C102 63.3748 107.1 70.8748 107.1 79.4998Z" fill="#594539"/>
<path d="M94.7256 59.8502C95.0256 61.1252 95.1756 62.4752 95.1756 63.9002C95.1756 67.8002 93.9756 71.4752 91.9506 74.5502C89.9256 71.4752 88.7256 67.8752 88.7256 63.9002C88.7256 61.8752 89.0256 60.0002 89.6256 58.2002C91.4256 58.5752 93.0756 59.1002 94.7256 59.8502Z" fill="#594539"/>
<path d="M91.9508 74.55C88.5008 79.725 82.5758 83.175 75.9008 83.175C71.2508 83.175 66.9758 81.525 63.6758 78.75C64.0508 67.05 73.6508 57.75 85.3508 57.75C86.7758 57.75 88.2008 57.9 89.6258 58.2C89.1008 60 88.7258 61.95 88.7258 63.9C88.7258 67.875 89.9258 71.475 91.9508 74.55Z" fill="#594539"/>
<path d="M40.8754 99.7502C40.8754 89.2502 32.3254 80.7002 21.8254 80.7002C11.3254 80.7002 2.77539 89.2502 2.77539 99.7502C2.77539 105.525 5.40039 110.775 9.45039 114.225C10.2004 113.1 12.0004 112.275 14.0254 112.275H17.3254H18.1504C18.0754 111.825 18.0754 111.3 18.0754 110.85V108.15C16.0504 106.8 14.6254 104.25 14.6254 101.325V100.8H14.4754C13.5004 100.8 12.7504 99.9752 12.7504 99.0002C12.7504 98.0252 13.5004 97.2002 14.4754 97.2002H14.6254V95.8502L14.7004 95.7752V93.6002C14.7004 89.4002 17.7754 87.0752 21.5254 87.0752V85.9502C25.5754 85.9502 28.8004 89.4002 28.8004 93.6002V96.9752H28.7254V97.2752H29.0254C30.0004 97.2752 30.7504 98.1002 30.7504 99.0752C30.7504 100.05 30.0004 100.875 29.0254 100.875H28.7254V101.4C28.7254 104.4 27.1504 107.025 24.8254 108.375V111C24.8254 111.525 24.8254 111.975 24.7504 112.425H26.2504H29.5504C31.6504 112.425 33.3754 113.25 34.1254 114.375C38.2504 110.7 40.8754 105.525 40.8754 99.7502Z" fill="#C3F2F4"/>
<path d="M29.5504 112.275H26.2504H24.8254C24.9004 111.825 24.9004 111.3 24.9004 110.85V108.225C27.2254 106.95 28.8004 104.325 28.8004 101.25V100.725H29.1004C30.0754 100.725 30.8254 99.8998 30.8254 98.9248C30.8254 97.9498 30.0754 97.1248 29.1004 97.1248H28.8004V96.8248H28.8754V93.4498C28.8754 89.2498 25.5754 85.7998 21.6004 85.7998V86.9248C17.8504 86.9248 14.7754 89.2498 14.7754 93.4498V95.6248L14.7004 95.6998V97.0498H14.5504C13.5754 97.0498 12.8254 97.8748 12.8254 98.8498C12.8254 99.8248 13.5754 100.65 14.5504 100.65H14.7004V101.175C14.7004 104.1 16.0504 106.65 18.1504 108V110.7C18.1504 111.225 18.1504 111.675 18.2254 112.125H17.4004H14.1004C12.0004 112.125 10.2754 112.95 9.52539 114.075C12.8254 116.925 17.1754 118.65 21.8254 118.65C26.5504 118.65 30.8254 116.925 34.1254 114.075C33.3754 113.1 31.6504 112.275 29.5504 112.275Z" fill="#7BDDEF"/>
<path d="M98.4752 41.55C108.706 41.55 117 33.2561 117 23.025C117 12.7939 108.706 4.5 98.4752 4.5C88.2441 4.5 79.9502 12.7939 79.9502 23.025C79.9502 33.2561 88.2441 41.55 98.4752 41.55Z" fill="#C3F2F4"/>
<path d="M103.8 36.4504C102.975 36.0004 102.15 35.6254 101.325 35.4004C100.2 34.8004 100.05 34.4254 100.05 33.2254V30.8254C101.625 30.0754 102.9 28.5004 103.65 26.4754C104.7 26.4754 105.525 25.6504 105.525 24.6004C105.525 24.3004 105.45 24.0004 105.375 23.7754C105.75 22.8004 106.05 21.7504 106.05 20.7004C107.7 20.6254 109.2 19.5754 109.725 17.4754C110.4 14.6254 108 12.0754 108 12.0754C107.025 14.3254 105.3 11.1754 102.225 9.9004C99.225 8.6254 94.725 9.1504 92.925 12.3004C90.375 13.8754 89.475 16.8754 89.55 20.2504C89.55 21.4504 89.775 22.6504 90.225 23.7004C90.075 23.9254 90 24.2254 90 24.6004C90 25.6504 90.825 26.4754 91.875 26.4754H91.95C92.025 26.5504 92.025 26.5504 92.1 26.6254C92.7 28.2754 93.75 29.6254 94.95 30.4504V33.3004C95.025 34.5004 94.575 34.9504 93.825 35.2504C93 35.4754 92.25 35.7754 91.65 36.1504C91.65 36.1504 91.65 36.1504 91.575 36.1504C90.075 36.9004 89.1 37.6504 88.5 38.5504C91.35 40.4254 94.8 41.4754 98.475 41.4754C101.475 41.4754 104.325 40.7254 106.875 39.4504C106.275 38.3254 105.3 37.3504 103.8 36.4504Z" fill="#7BDDEF"/>
<path d="M44.0998 34.9496H24.2248C20.5498 34.9496 17.5498 31.9496 17.5498 28.2746V17.9246C17.5498 9.37461 24.4498 2.47461 32.9998 2.47461H35.2498C43.7998 2.47461 50.6998 9.37461 50.6998 17.9246V28.2746C50.7748 31.9496 47.7748 34.9496 44.0998 34.9496Z" fill="#33312D"/>
<path d="M42.7504 35.5498H26.4004V57.0748C26.4004 59.3998 22.2754 60.3748 22.2754 60.3748L47.3254 60.2248C47.3254 60.2248 42.7504 59.0998 42.7504 56.7748V35.5498Z" fill="url(#paint2_radial)"/>
<path d="M14.8496 32.0996C14.8496 35.0246 17.1746 37.4246 20.0996 37.4246C20.3246 37.4246 22.8746 37.4246 23.0246 37.4246C25.6496 37.1246 25.3496 34.9496 25.3496 32.1746C25.3496 29.4746 25.7246 27.2246 23.0996 26.9246C22.8746 26.9246 20.3246 26.8496 20.0996 26.8496C17.2496 26.8496 14.8496 29.1746 14.8496 32.0996Z" fill="#9B643D"/>
<path d="M36.2248 51.2996H32.1748C25.4998 51.2996 20.1748 45.8996 20.1748 39.2996V20.4746C20.1748 13.7996 25.5748 8.47461 32.1748 8.47461H36.2248C42.8998 8.47461 48.2248 13.8746 48.2248 20.4746V39.2996C48.2248 45.8996 42.8248 51.2996 36.2248 51.2996Z" fill="#9B643D"/>
<path d="M41.4026 28.2482C41.4104 26.8399 40.8124 25.6948 40.0668 25.6907C39.3212 25.6866 38.7104 26.8249 38.7026 28.2332C38.6948 29.6415 39.2929 30.7866 40.0385 30.7907C40.7841 30.7948 41.3948 29.6565 41.4026 28.2482Z" fill="#3A312E"/>
<path d="M33.2254 36.6002L30.7504 35.0252C30.2254 34.6502 30.0754 33.9752 30.3754 33.3752L32.5504 30.0002C33.0754 29.1752 33.3754 28.2752 33.3754 27.3002L33.4504 15.4502L22.6504 15.6002L23.4754 45.9752L33.7504 45.8252L34.0504 38.1002C34.0504 37.5002 33.7504 36.9752 33.2254 36.6002Z" fill="url(#paint3_radial)"/>
<path d="M29.4319 28.2013C29.4397 26.793 28.8417 25.648 28.0961 25.6438C27.3505 25.6397 26.7397 26.778 26.7319 28.1863C26.7241 29.5947 27.3222 30.7397 28.0678 30.7438C28.8134 30.748 29.4241 29.6096 29.4319 28.2013Z" fill="#3A312E"/>
<path d="M53.625 32.0996C53.625 35.0246 51.3 37.4246 48.375 37.4246C48.15 37.4246 45.6 37.4246 45.45 37.4246C42.825 37.1246 43.125 34.9496 43.125 32.1746C43.125 29.4746 42.75 27.2246 45.375 26.9246C45.6 26.9246 48.15 26.8496 48.375 26.8496C51.225 26.8496 53.625 29.1746 53.625 32.0996Z" fill="#9B643D"/>
<path d="M39.0002 40.9498C39.0002 41.7748 38.6252 42.6748 38.0252 43.3498C37.4252 44.0248 36.6002 44.5498 35.7002 44.7748C34.8002 44.9998 33.9002 44.9998 33.0002 44.7748C32.1752 44.4748 31.3502 43.9498 30.9002 43.1998C30.7502 42.8998 30.8252 42.5998 31.1252 42.3748C31.2002 42.2998 31.3502 42.2998 31.4252 42.2998H31.5002C32.2502 42.2998 32.8502 42.2998 33.3752 42.2248C33.9002 42.1498 34.4252 42.0748 34.9502 41.9248C35.4752 41.7748 35.9252 41.6248 36.3752 41.3998C36.9002 41.1748 37.4252 40.8748 38.0252 40.4998H38.1002C38.4002 40.3498 38.7002 40.4248 38.9252 40.7248C39.0002 40.7248 39.0002 40.8748 39.0002 40.9498Z" fill="#855035"/>
<path d="M43.6502 5.5498H24.7502L18.8252 14.4748L20.0252 26.8498L21.6002 17.7748C22.2002 14.9248 24.7502 12.8248 27.6752 12.8248H40.8002C43.7252 12.8248 46.2752 14.8498 46.8752 17.7748L48.4502 26.8498L49.5002 14.4748L43.6502 5.5498Z" fill="#33312D"/>
<path d="M47.3254 60.2254C46.2004 62.7754 40.2004 68.8504 36.8254 72.0754C35.6254 73.2754 33.7504 73.2004 32.5504 72.0754C29.3254 68.8504 23.4754 62.8504 22.2754 60.3754C26.4004 58.8004 35.1754 58.2754 35.1754 58.2754C35.1754 58.2754 42.5254 58.5004 47.3254 60.2254Z" fill="#9B643D"/>
<path d="M94.3498 41.0246C93.9748 40.9496 93.5998 40.8746 93.2998 40.7246C93.6748 40.8746 93.9748 40.9496 94.3498 41.0246Z" fill="#C3F2F4"/>
<path d="M95.7752 41.3246C95.4002 41.2496 94.9502 41.1746 94.5752 41.0996C94.9502 41.1746 95.3252 41.2496 95.7752 41.3246Z" fill="#C3F2F4"/>
<path d="M93.15 40.7252C92.325 40.5002 91.575 40.2002 90.75 39.8252C91.575 40.2002 92.325 40.5002 93.15 40.7252Z" fill="#C3F2F4"/>
<path d="M98.4756 41.5499C98.8506 41.5499 99.1506 41.5499 99.5256 41.5499C99.2256 41.4749 98.8506 41.5499 98.4756 41.5499Z" fill="#C3F2F4"/>
<path d="M98.4744 41.5496C98.0994 41.5496 97.6494 41.5496 97.2744 41.4746C97.6494 41.4746 98.0994 41.5496 98.4744 41.5496Z" fill="#C3F2F4"/>
<path d="M90.75 39.825C90 39.45 89.25 39.075 88.5 38.625C89.25 39.075 90 39.45 90.75 39.825Z" fill="#C3F2F4"/>
<path d="M99.8252 41.4754C100.05 41.4754 100.35 41.4004 100.575 41.4004C100.35 41.4004 100.125 41.4754 99.8252 41.4754Z" fill="#C3F2F4"/>
<path d="M100.95 41.325C101.175 41.325 101.475 41.25 101.7 41.25C101.4 41.325 101.175 41.325 100.95 41.325Z" fill="#C3F2F4"/>
<path d="M101.925 41.1754C102.225 41.1004 102.525 41.0254 102.75 41.0254C102.525 41.1004 102.225 41.1754 101.925 41.1754Z" fill="#C3F2F4"/>
<path d="M96.9748 41.4752C96.5998 41.4752 96.2998 41.4002 95.9248 41.3252C96.2248 41.4002 96.5998 41.4002 96.9748 41.4752Z" fill="#C3F2F4"/>
<path d="M106.874 39.5254C105.599 40.2004 104.324 40.6504 102.899 41.0254C104.324 40.6504 105.674 40.1254 106.874 39.5254Z" fill="#C3F2F4"/>
</g>
<defs>
<radialGradient id="paint0_radial" cx="0" cy="0" r="1" gradientUnits="userSpaceOnUse" gradientTransform="translate(85.8957 65.9001) scale(18.4055)">
<stop offset="0.3127" stop-color="#231F20"/>
<stop offset="0.8031" stop-color="#493931" stop-opacity="0.2865"/>
<stop offset="1" stop-color="#594539" stop-opacity="0"/>
</radialGradient>
<radialGradient id="paint1_radial" cx="0" cy="0" r="1" gradientUnits="userSpaceOnUse" gradientTransform="translate(85.5409 94.9009) scale(10.3543)">
<stop offset="0.00125077" stop-color="#9B643D"/>
<stop offset="0.4556" stop-color="#B98963" stop-opacity="0.545"/>
<stop offset="0.9997" stop-color="#E0BB95" stop-opacity="0"/>
</radialGradient>
<radialGradient id="paint2_radial" cx="0" cy="0" r="1" gradientUnits="userSpaceOnUse" gradientTransform="translate(34.7925 47.9574) scale(12.4687)">
<stop offset="0.173" stop-color="#724937"/>
<stop offset="0.7031" stop-color="#9B643D"/>
</radialGradient>
<radialGradient id="paint3_radial" cx="0" cy="0" r="1" gradientUnits="userSpaceOnUse" gradientTransform="translate(34.5984 33.8309) scale(11.517 10.3803)">
<stop offset="0.173" stop-color="#724937"/>
<stop offset="0.7031" stop-color="#9B643D"/>
</radialGradient>
<clipPath id="clip0">
<rect width="120" height="120" fill="white"/>
</clipPath>
</defs>
</svg>
