<svg xmlns="http://www.w3.org/2000/svg" width="auto" height="auto" viewBox="0 0 24 24">
    <g fill="none" fill-rule="evenodd">
        <path d="M0 0h24v24H0z"/>
        <path fill="#FFF" d="M8.11 5.718a1.407 1.407 0 1 0-1.408-2.437 1.407 1.407 0 0 0 1.407 2.437M3.328 9.092a1.406 1.406 0 1 0 1.408-2.434 1.406 1.406 0 0 0-1.408 2.434M4.313 12.375a1.407 1.407 0 1 0-2.814.001 1.407 1.407 0 0 0 2.813-.001M6.355 14.926c.208.63.887.97 1.516.764l4.905-1.621a2.02 2.02 0 1 0-1.83-3.546l-4.163 3.06c-.406.299-.595.838-.428 1.343"/>
        <path fill="#FFF" d="M10.781 3.375c0 .622.504 1.125 1.125 1.125 4.343 0 7.875 3.534 7.875 7.875s-3.532 7.875-7.875 7.875a7.9 7.9 0 0 1-6.822-3.938 1.124 1.124 0 1 0-1.948 1.125 10.157 10.157 0 0 0 8.77 5.063c5.582 0 10.125-4.542 10.125-10.125S17.488 2.25 11.906 2.25c-.62 0-1.125.503-1.125 1.125z"/>
    </g>
</svg>
