<?xml version="1.0" encoding="UTF-8"?>
<svg viewBox="0 0 150 150" version="1.1" xmlns="http://www.w3.org/2000/svg" xmlns:xlink="http://www.w3.org/1999/xlink">
    <!-- Generator: Sketch 64 (93537) - https://sketch.com -->
    <title>Completed</title>
    <desc>Created with Sketch.</desc>
    <defs>
        <linearGradient x1="12.224596%" y1="35.3150678%" x2="87.7373453%" y2="66.8077582%" id="linearGradient-1">
            <stop stop-color="#5C6FB2" offset="0%"></stop>
            <stop stop-color="#6A7BBA" offset="24.78%"></stop>
            <stop stop-color="#7585C1" offset="57.05%"></stop>
            <stop stop-color="#7988C3" offset="92.02%"></stop>
        </linearGradient>
        <radialGradient cx="33.5419959%" cy="11.8592586%" fx="33.5419959%" fy="11.8592586%" r="141.511036%" gradientTransform="translate(0.335420,0.118593),scale(0.998845,1.000000),rotate(66.612865),translate(-0.335420,-0.118593)" id="radialGradient-2">
            <stop stop-color="#FED591" offset="0%"></stop>
            <stop stop-color="#F8B648" offset="100%"></stop>
        </radialGradient>
    </defs>
    <g id="Completed" stroke="none" stroke-width="1" fill="none" fill-rule="evenodd">
        <g id="Microsoft-To-Do_Empty-State_Tasks-Smartlist_Light-Theme" transform="translate(16.000000, 10.000000)" fill-rule="nonzero">
            <path d="M110.58,55.31 C109.591217,58.2256461 107.752286,60.7785553 105.3,62.64 C105.099734,62.7858526 104.97723,63.0153359 104.967483,63.262893 C104.957737,63.5104501 105.06182,63.7488543 105.25,63.91 C107.693559,66.0606007 109.522497,68.8212619 110.55,71.91 C110.655318,72.2610837 110.97846,72.5015152 111.345,72.5015152 C111.71154,72.5015152 112.034682,72.2610837 112.14,71.91 C113.167503,68.8212619 114.996441,66.0606007 117.44,63.91 C117.634005,63.7563645 117.747133,63.5224707 117.747133,63.275 C117.747133,63.0275293 117.634005,62.7936355 117.44,62.64 C114.969208,60.7857256 113.112321,58.2320713 112.11,55.31 C112.007116,54.9737074 111.696679,54.7440406 111.345,54.7440406 C110.993321,54.7440406 110.682884,54.9737074 110.58,55.31 Z" id="Path" fill="#E1DFDD"></path>
            <path d="M43.13,113.31 C42.1414906,116.214946 40.31035,118.759744 37.87,120.62 C37.6759952,120.773636 37.5628668,121.007529 37.5628668,121.255 C37.5628668,121.502471 37.6759952,121.736364 37.87,121.89 C40.3080408,124.021136 42.1369383,126.761032 43.17,129.83 C43.2753184,130.181084 43.5984598,130.421515 43.965,130.421515 C44.3315402,130.421515 44.6546816,130.181084 44.76,129.83 C45.7930617,126.761032 47.6219592,124.021136 50.06,121.89 C50.2540048,121.736364 50.3671332,121.502471 50.3671332,121.255 C50.3671332,121.007529 50.2540048,120.773636 50.06,120.62 C47.5678332,118.779825 45.6864172,116.232945 44.66,113.31 C44.5571162,112.973707 44.2466786,112.744041 43.895,112.744041 C43.5433214,112.744041 43.2328838,112.973707 43.13,113.31 Z" id="Path" fill="#E1DFDD"></path>
            <path d="M21.87,17.57 C20.8873139,20.4887821 19.0471922,23.043345 16.59,24.9 C16.3957152,25.0556222 16.2826402,25.2910726 16.2826402,25.54 C16.2826402,25.7889274 16.3957152,26.0243778 16.59,26.18 C19.0280408,28.311136 20.8569383,31.0510316 21.89,34.12 C21.9953184,34.4710837 22.3184598,34.7115152 22.685,34.7115152 C23.0515402,34.7115152 23.3746816,34.4710837 23.48,34.12 C24.5130617,31.0510316 26.3419592,28.311136 28.78,26.18 C28.9742848,26.0243778 29.0873598,25.7889274 29.0873598,25.54 C29.0873598,25.2910726 28.9742848,25.0556222 28.78,24.9 C26.3259379,23.0402878 24.4865774,20.4867816 23.5,17.57 C23.5,17.1198879 23.1351121,16.755 22.685,16.755 C22.2348879,16.755 21.87,17.1198879 21.87,17.57 L21.87,17.57 Z" id="Path" fill="#E1DFDD"></path>
            <path d="M91.67,97.09 C93.87,95.57 94.99,94.44 94.87,93.73 C94.75,93.02 93.72,92.16 91.58,91.2 C89.8828692,90.4403082 88.1313221,89.8085479 86.34,89.31 C86.3744991,87.2969383 86.1968523,85.2858423 85.81,83.31 C85.33,80.66 84.69,79.31 83.87,79.05 C83.05,78.79 81.76,79.6 79.87,81.47 C78.4447068,82.9103603 77.186727,84.5071559 76.12,86.23 C74.34322,85.6654157 72.5240687,85.2440681 70.68,84.97 C68.26,84.61 66.8,84.72 66.31,85.4 C65.82,86.08 66.12,87.62 67.31,90.11 C68.1400869,91.8980911 69.1449774,93.5997056 70.31,95.19 C69.0463966,96.699353 67.9624609,98.3504254 67.08,100.11 C65.91,102.44 65.61,103.91 66.18,104.58 C66.75,105.25 68.34,105.31 70.91,104.85 C72.8327494,104.505207 74.72778,104.020587 76.58,103.4 C77.7746402,104.962479 79.1138966,106.408876 80.58,107.72 C82.45,109.46 83.79,110.23 84.58,110 C85.37,109.77 85.93,108.36 86.23,105.76 C86.4988542,103.865922 86.5759112,101.949549 86.46,100.04 C88.2941161,99.2396961 90.0401501,98.2510588 91.67,97.09 Z" id="Path" fill="#E1DFDD" transform="translate(80.389321, 94.521160) scale(-1, 1) rotate(-32.000000) translate(-80.389321, -94.521160) "></path>
            <path d="M50,45.13 C44.9641145,40.2212876 42.1780075,33.4514093 42.3,26.42 C42.1764307,19.3853624 44.9625689,12.6117902 50,7.7 C54.9090612,2.65853073 61.6844603,-0.12835885 68.72,-8.32667268e-16 C75.7525383,-0.127981121 82.524701,2.65906607 87.43,7.7 C92.4741331,12.6080367 95.2645439,19.3831973 95.14,26.42 C95.2629666,33.4535751 92.4725868,40.2250415 87.43,45.13 C82.5264106,50.174609 75.7540282,52.9653662 68.72,52.84 C61.6831973,52.9645439 54.9080367,50.1741331 50,45.13 Z M67.87,34.4 L79.57,22.56 C80.1099119,22.0366067 80.4070963,21.3117666 80.39,20.56 C80.3923128,19.7903606 80.0987408,19.0492704 79.57,18.49 C79.0410971,17.9080501 78.2862133,17.5834865 77.5,17.6 C76.7297545,17.5782359 75.9845836,17.8748573 75.44,18.42 L65.87,28.2 L61.97,24.31 C60.8165308,23.2304261 59.0234692,23.2304261 57.87,24.31 C56.7715781,25.467563 56.7715781,27.282437 57.87,28.44 L63.78,34.36 C64.304773,34.8978699 65.0286842,35.1946735 65.78,35.18 C66.547836,35.1800058 67.2899107,34.9030592 67.87,34.4 Z" id="Shape" fill="#F3F2F1"></path>
            <path d="M67.87,34.4 L79.57,22.56 C80.1099119,22.0366067 80.4070963,21.3117666 80.39,20.56 C80.3923128,19.7903606 80.0987408,19.0492704 79.57,18.49 C79.0410971,17.9080501 78.2862133,17.5834865 77.5,17.6 C76.7297545,17.5782359 75.9845836,17.8748573 75.44,18.42 L65.87,28.2 L61.97,24.31 C60.8165308,23.2304261 59.0234692,23.2304261 57.87,24.31 C56.7715781,25.467563 56.7715781,27.282437 57.87,28.44 L63.78,34.36 C64.304773,34.8978699 65.0286842,35.1946735 65.78,35.18 C66.547836,35.1800058 67.2899107,34.9030592 67.87,34.4 Z" id="Path" fill="url(#linearGradient-1)"></path>
            <path d="M7.36,79.24 C8.59729202,79.6953406 9.43528356,80.8550068 9.47920644,82.1726931 C9.52312932,83.4903795 8.76422319,84.7032756 7.56,85.24 L6.09,85.91 C5.31000117,86.269036 4.41651161,86.2907402 3.62,85.97 C2.80107222,85.6738468 2.14191118,85.0509034 1.8,84.25 C1.440964,83.4700012 1.4192598,82.5765116 1.74,81.78 C2.02723226,80.971289 2.63489878,80.3166006 3.42,79.97 L4.87,79.31 C5.65428436,78.941976 6.55627854,78.9166187 7.36,79.24 L7.36,79.24 Z M6.87,65.61 C7.72459469,65.8659791 8.42093339,66.489019 8.77,67.31 C9.51670863,68.9641452 8.78289767,70.910534 7.13,71.66 C6.34128432,72.0302215 5.42871568,72.0302215 4.64,71.66 L3.17,71.08 C2.33230215,70.8026678 1.6499589,70.1856553 1.29,69.38 C0.921726412,68.6028163 0.896333051,67.7067934 1.22,66.91 C1.5127424,66.0866457 2.13634966,65.4231566 2.94,65.08 C3.72776509,64.7055405 4.64223491,64.7055405 5.43,65.08 L6.87,65.61 Z M19.18,92.71 L18.63,94.18 C18.3726739,95.0114442 17.7669457,95.6901517 16.97,96.04 C16.1811773,96.4158502 15.2711559,96.4448548 14.46,96.12 C13.6475461,95.840564 12.9881151,95.2354818 12.64,94.45 C12.2942952,93.6386223 12.2942952,92.7213777 12.64,91.91 L13.2,90.44 C13.4441094,89.6044139 14.0494801,88.921996 14.85,88.58 C15.6411224,88.2016304 16.5539013,88.1690312 17.37,88.49 C18.1769583,88.7978334 18.8258235,89.4178601 19.17,90.21 C19.5369404,91.0021806 19.5405913,91.9149093 19.18,92.71 Z M25.87,65.79 C29.5799375,67.1603631 32.0896632,70.6419429 32.217034,74.5948289 C32.3444048,78.5477149 30.064021,82.1836427 26.45,83.79 C24.1151532,84.8975428 21.4265539,84.9916256 19.02,84.05 C15.3100625,82.6796369 12.8003368,79.1980571 12.672966,75.2451711 C12.5455952,71.2922851 14.825979,67.6563573 18.44,66.05 C20.7748468,64.9424572 23.4634461,64.8483744 25.87,65.79 Z M18.09,59.81 C17.8006658,60.6185576 17.1956657,61.2751305 16.4134224,61.6294962 C15.631179,61.9838618 14.7386341,62.0056949 13.94,61.69 C13.1306839,61.4092582 12.4748467,60.8041488 12.13,60.02 L11.46,58.54 C11.100964,57.7600012 11.0792598,56.8665116 11.4,56.07 C11.6885359,55.2703921 12.3027541,54.6307329 13.09,54.31 C14.7199555,53.5932738 16.6240468,54.3078629 17.38,55.92 L18.05,57.31 C18.4176967,58.098517 18.4394463,59.0047516 18.11,59.81 L18.09,59.81 Z M33.41,91.31 C34.0734201,92.9242299 33.3390438,94.7738902 31.7490377,95.4934353 C30.1590316,96.2129805 28.2847874,95.5438316 27.51,93.98 L26.87,92.46 C26.3236385,91.2702942 26.5519672,89.8682271 27.4475775,88.9133485 C28.3431877,87.9584699 29.7277701,87.6408891 30.95,88.11 C31.7645425,88.3819558 32.4234911,88.989936 32.76,89.78 L33.41,91.31 Z M25.71,57.14 L26.26,55.67 C26.5173261,54.8385558 27.1230543,54.1598483 27.92,53.81 C28.7088754,53.4368683 29.6164264,53.4043267 30.43,53.72 C31.226206,53.9829762 31.8824861,54.5563198 32.25,55.31 C32.5957048,56.1213777 32.5957048,57.0386223 32.25,57.85 L31.69,59.32 C31.4484484,60.1569971 30.8422258,60.8403752 30.04,61.18 C29.2466707,61.5469735 28.3392028,61.5799873 27.5213049,61.2716304 C26.703407,60.9632735 26.0436009,60.3393794 25.69,59.54 C25.334418,58.7604769 25.3417394,57.8636141 25.71,57.09 L25.71,57.14 Z M36.12,82.53 C35.7495964,81.7363434 35.7206824,80.8255525 36.04,80.01 C36.3359041,79.1885801 36.9584761,78.5261925 37.76,78.18 C38.5487157,77.8097785 39.4612843,77.8097785 40.25,78.18 L41.72,78.74 C42.5583256,79.0203303 43.2427472,79.6359476 43.61,80.44 C44.326764,82.0860868 43.5869218,84.0025455 41.95,84.74 C41.1622349,85.1144595 40.2477651,85.1144595 39.46,84.74 L37.98,84.19 C37.1485558,83.9326739 36.4698483,83.3269457 36.12,82.53 Z M37.53,70.53 C36.7256644,70.2381902 36.0728598,69.6345592 35.7190797,68.8554904 C35.3652997,68.0764215 35.3403976,67.187656 35.65,66.39 C35.9338435,65.576887 36.542156,64.9178818 37.33,64.57 L38.8,63.9 C40.42924,63.1599385 42.3499383,63.8807601 43.0899999,65.5100001 C43.8300614,67.13924 43.1092399,69.0599384 41.48,69.8 L40,70.47 C39.2241625,70.8387453 38.3306166,70.8713037 37.53,70.56 L37.53,70.53 Z" id="Shape" fill="url(#radialGradient-2)"></path>
        </g>
    </g>
</svg>