<?xml version="1.0" encoding="UTF-8"?>
<svg viewBox="0 0 150 150" version="1.1" xmlns="http://www.w3.org/2000/svg" xmlns:xlink="http://www.w3.org/1999/xlink">
    <!-- Generator: Sketch 64 (93537) - https://sketch.com -->
    <title>List / Completed (Dark)</title>
    <desc>Created with Sketch.</desc>
    <g id="List-/-Completed-(Dark)" stroke="none" stroke-width="1" fill="none" fill-rule="evenodd">
        <g id="Microsoft-To-Do_Empty-State_Tasks-Smartlist_Dark-Theme" transform="translate(16.000000, 10.000000)" fill-rule="nonzero">
            <path d="M110.58,55.36 C109.591217,58.2756461 107.752286,60.8285553 105.3,62.69 C105.099734,62.8358526 104.97723,63.0653359 104.967483,63.312893 C104.957737,63.5604501 105.06182,63.7988543 105.25,63.96 C107.693559,66.1106007 109.522497,68.8712619 110.55,71.96 C110.655318,72.3110837 110.97846,72.5515152 111.345,72.5515152 C111.71154,72.5515152 112.034682,72.3110837 112.14,71.96 C113.167503,68.8712619 114.996441,66.1106007 117.44,63.96 C117.62818,63.7988543 117.732263,63.5604501 117.722517,63.312893 C117.71277,63.0653359 117.590266,62.8358526 117.39,62.69 C114.937714,60.8285553 113.098783,58.2756461 112.11,55.36 C112.007116,55.0237074 111.696679,54.7940406 111.345,54.7940406 C110.993321,54.7940406 110.682884,55.0237074 110.58,55.36 Z" id="Path" fill="#797673"></path>
            <path d="M43.13,113.29 C42.1434226,116.206782 40.3040621,118.760288 37.85,120.62 C37.6557152,120.775622 37.5426402,121.011073 37.5426402,121.26 C37.5426402,121.508927 37.6557152,121.744378 37.85,121.9 C40.2880408,124.031136 42.1169383,126.771032 43.15,129.84 C43.2553184,130.191084 43.5784598,130.431515 43.945,130.431515 C44.3115402,130.431515 44.6346816,130.191084 44.74,129.84 C45.7730617,126.771032 47.6019592,124.031136 50.04,121.9 C50.2342848,121.744378 50.3473598,121.508927 50.3473598,121.26 C50.3473598,121.011073 50.2342848,120.775622 50.04,120.62 C47.5859379,118.760288 45.7465774,116.206782 44.76,113.29 C44.76,112.839888 44.3951121,112.475 43.945,112.475 C43.4948879,112.475 43.13,112.839888 43.13,113.29 L43.13,113.29 Z" id="Path" fill="#797673"></path>
            <path d="M21.84,17.58 C20.8573139,20.4987821 19.0171922,23.053345 16.56,24.91 C16.3622195,25.0634306 16.2464877,25.2996841 16.2464877,25.55 C16.2464877,25.8003159 16.3622195,26.0365694 16.56,26.19 C18.995106,28.3217229 20.8206187,31.0617175 21.85,34.13 C21.9553184,34.4810837 22.2784598,34.7215152 22.645,34.7215152 C23.0115402,34.7215152 23.3346816,34.4810837 23.44,34.13 C24.4665116,31.0763007 26.280976,28.3477049 28.7,26.22 C28.8977805,26.0665694 29.0135123,25.8303159 29.0135123,25.58 C29.0135123,25.3296841 28.8977805,25.0934306 28.7,24.94 C26.2188649,23.0809667 24.3574929,20.5154802 23.36,17.58 C23.2520931,17.2517004 22.9455786,17.0297999 22.6,17.0297999 C22.2544214,17.0297999 21.9479069,17.2517004 21.84,17.58 L21.84,17.58 Z" id="Path" fill="#797673"></path>
            <path d="M91.67,97.1 C93.89,95.58 94.99,94.45 94.91,93.74 C94.83,93.03 93.76,92.22 91.62,91.22 C89.911325,90.4413905 88.14631,89.7928812 86.34,89.28 C86.3744991,87.2669383 86.1968523,85.2558423 85.81,83.28 C85.33,80.72 84.69,79.35 83.9,79.11 C83.11,78.87 81.79,79.66 79.9,81.53 C78.4701023,82.9662854 77.2116876,84.5636331 76.15,86.29 C74.3745113,85.7207185 72.554974,85.2992815 70.71,85.03 C68.29,84.67 66.83,84.78 66.34,85.46 C65.85,86.14 66.15,87.68 67.34,90.17 C68.1700869,91.9580911 69.1749774,93.6597056 70.34,95.25 C69.0785529,96.757347 67.9947571,98.4048509 67.11,100.16 C65.94,102.5 65.64,103.96 66.21,104.63 C66.78,105.3 68.37,105.37 70.94,104.91 C72.8640336,104.566647 74.7594147,104.078594 76.61,103.45 C77.8047387,105.015458 79.1439607,106.465166 80.61,107.78 C82.48,109.52 83.82,110.29 84.61,110.06 C85.4,109.83 85.96,108.41 86.26,105.81 C86.529058,103.91594 86.6061158,101.999547 86.49,100.09 C88.3177421,99.2797081 90.0541657,98.2774096 91.67,97.1 Z" id="Path" fill="#797673"></path>
            <path d="M50,45.14 C44.9625689,40.2282098 42.1764307,33.4546376 42.3,26.42 C42.2706049,19.4040102 45.0446922,12.6668872 50.0057897,7.70578967 C54.9668872,2.74469216 61.7040102,-0.0293951267 68.72,-0.000231249659 C75.7351721,-0.0267044099 82.4707294,2.74824709 87.4312412,7.70875882 C92.3917529,12.6692706 95.1667044,19.4048279 95.1402312,26.42 C95.1693951,33.4359898 92.3953078,40.1731128 87.4342103,45.1342103 C82.4731128,50.0953078 75.7359898,52.8693951 68.72,52.84 C61.6844603,52.9683588 54.9090612,50.1814693 50,45.14 L50,45.14 Z M67.89,34.41 L79.59,22.57 C80.1299119,22.0466067 80.4270963,21.3217666 80.41,20.57 C80.4123128,19.8003606 80.1187408,19.0592704 79.59,18.5 C79.0610971,17.9180501 78.3062133,17.5934865 77.52,17.61 C76.7497545,17.5882359 76.0045836,17.8848573 75.46,18.43 L65.83,28.22 L61.97,24.37 C60.8155929,23.321215 59.040759,23.36481 57.9392354,24.4690072 C56.8377118,25.5732045 56.7984195,27.3481388 57.85,28.5 L63.76,34.42 C64.284773,34.9578699 65.0086842,35.2546735 65.76,35.24 C66.5481556,35.2359673 67.3069158,34.9403002 67.89,34.41 Z" id="Shape" fill="#8F9DD3"></path>
            <path d="M7.36,79.22 C8.59729202,79.6753406 9.43528356,80.8350068 9.47920644,82.1526931 C9.52312932,83.4703795 8.76422319,84.6832756 7.56,85.22 L6.09,85.88 C5.31281626,86.2482736 4.41679339,86.2736669 3.62,85.95 C2.8114424,85.6606658 2.15486949,85.0556657 1.80050384,84.2734224 C1.44613819,83.491179 1.42430512,82.5986341 1.74,81.8 C2.02514555,80.9900267 2.63348476,80.3346136 3.42,79.99 L4.89,79.32 C5.66559611,78.9526478 6.55724585,78.9165486 7.36,79.22 L7.36,79.22 Z M6.91,65.6 C7.74144421,65.8573261 8.42015171,66.4630543 8.77,67.26 C9.51670863,68.9141452 8.78289767,70.860534 7.13,71.61 C6.33919122,71.9707144 5.43080878,71.9707144 4.64,71.61 L3.17,71.05 C2.33230215,70.7726678 1.6499589,70.1556553 1.29,69.35 C0.921726412,68.5728163 0.896333051,67.6767934 1.22,66.88 C1.51564684,66.0560757 2.13785449,65.3904582 2.94,65.04 C3.73363636,64.6762374 4.64636364,64.6762374 5.44,65.04 L6.91,65.6 Z M19.19,92.69 L18.63,94.22 C18.3726739,95.0514442 17.7669457,95.7301517 16.97,96.08 C16.180022,96.4510644 15.2720041,96.4800053 14.46,96.16 C13.6500479,95.8763737 12.9920754,95.2726297 12.64,94.49 C12.2942952,93.6786223 12.2942952,92.7613777 12.64,91.95 L13.2,90.48 C13.4441094,89.6444139 14.0494801,88.961996 14.85,88.62 C16.4852451,87.8821779 18.409873,88.5950031 19.17,90.22 C19.537079,91.0079086 19.5443753,91.9162966 19.19,92.71 L19.19,92.69 Z M25.87,65.78 C30.2439514,67.4031108 32.860013,71.892247 32.1159114,76.4979231 C31.3718097,81.1035992 27.4751971,84.5405356 22.8126528,84.7036933 C18.1501085,84.8668509 14.0227821,81.7106984 12.9585595,77.1683015 C11.8943369,72.6259046 14.1902045,67.9648839 18.44,66.04 C20.7770573,64.936567 23.4666038,64.8496906 25.87,65.8 L25.87,65.78 Z M17.87,73.17 C17.1748456,75.0112389 17.6587756,77.0899622 19.095667,78.4348575 C20.5325583,79.7797527 22.6387127,80.1252852 24.43,79.31 C26.440331,78.4084341 27.5903848,76.2650959 27.2300871,74.0915188 C26.8697894,71.9179417 25.089678,70.260315 22.8959706,70.0556213 C20.7022632,69.8509276 18.6462074,71.1506034 17.89,73.22 L17.87,73.17 Z M18.09,59.8 C17.6368363,61.038267 16.4784595,61.8783894 15.1606829,61.9245116 C13.8429063,61.9706338 12.6286274,61.2135543 12.09,60.01 L11.42,58.53 C11.060964,57.7500012 11.0392598,56.8565116 11.36,56.06 C11.6588677,55.2480249 12.2756923,54.5928871 13.0682071,54.2456901 C13.8607219,53.8984932 14.7604953,53.8892166 15.56,54.22 C16.361749,54.5039181 17.0122347,55.1038104 17.36,55.88 L18.03,57.35 C18.3955029,58.1272264 18.424443,59.020751 18.11,59.82 L18.09,59.8 Z M33.39,91.25 C34.1116729,92.8769613 33.3950438,94.7820373 31.78,95.53 C30.1500445,96.2467262 28.2459532,95.5321371 27.49,93.92 L26.83,92.44 C26.4617264,91.6628163 26.4363331,90.7667934 26.76,89.97 C27.0656455,89.1801023 27.6792914,88.5484079 28.46,88.22 C29.2397051,87.8623842 30.1312929,87.8371165 30.93,88.15 C31.7399733,88.4351456 32.3953864,89.0434848 32.74,89.83 L33.39,91.25 Z M25.69,57.08 L26.24,55.61 C26.4888135,54.7737757 27.0973408,54.0919319 27.9,53.75 C29.53519,53.004208 31.4660304,53.7132233 32.23,55.34 C32.5757048,56.1513777 32.5757048,57.0686223 32.23,57.88 L31.67,59.35 C31.444189,60.1786238 30.8615317,60.8638874 30.08,61.22 C29.2866707,61.5869735 28.3792028,61.6199873 27.5613049,61.3116304 C26.743407,61.0032735 26.0836009,60.3793794 25.73,59.58 C25.3523579,58.798023 25.3450188,57.8879658 25.71,57.1 L25.69,57.08 Z M36.1,82.52 C35.7295964,81.7263434 35.7006824,80.8155525 36.02,80 C36.332042,79.1935976 36.9608968,78.5502864 37.76,78.22 C38.5487157,77.8497785 39.4612843,77.8497785 40.25,78.22 L41.73,78.77 C42.5646096,79.0581375 43.2442849,79.6763528 43.61,80.48 C43.9702207,81.2597237 43.9919369,82.1537057 43.67,82.95 C43.3740959,83.7714199 42.7515239,84.4338075 41.95,84.78 C41.1612843,85.1502215 40.2487157,85.1502215 39.46,84.78 L37.98,84.22 C37.1445647,83.9582276 36.4651627,83.3445742 36.12,82.54 L36.1,82.52 Z M37.51,70.52 C36.7025757,70.2361064 36.0478363,69.6320099 35.7,68.85 C35.3329456,68.0725243 35.3075668,67.1770159 35.63,66.38 C35.9369501,65.5760626 36.5632876,64.9352433 37.36,64.61 L38.83,63.94 C40.45924,63.1999385 42.3799383,63.9207601 43.1199999,65.5500001 C43.8600614,67.17924 43.1392399,69.0999384 41.51,69.84 L40.03,70.51 C39.241483,70.8776967 38.3352484,70.8994463 37.53,70.57 L37.51,70.52 Z" id="Shape" fill="#8F9DD3"></path>
        </g>
    </g>
</svg>