<?xml version="1.0" encoding="UTF-8"?>
<svg viewBox="0 0 150 150" version="1.1" xmlns="http://www.w3.org/2000/svg" xmlns:xlink="http://www.w3.org/1999/xlink">
    <!-- Generator: Sketch 59.1 (86144) - https://sketch.com -->
    <title>List / Planned (Dark)</title>
    <desc>Created with Sketch.</desc>
    <g id="List-/-Planned-(Dark)" stroke="none" stroke-width="1" fill="none" fill-rule="evenodd">
        <g id="Microsoft-To-Do_Empty-State_Planned-Smartlist_Dark-Theme" transform="translate(4.000000, 20.000000)" fill-rule="nonzero">
            <polygon id="Rectangle" fill="#605E5B" transform="translate(86.602524, 57.838138) rotate(9.060000) translate(-86.602524, -57.838138) " points="38.8117307 13.4977408 134.393318 13.4977408 134.393318 102.178534 38.8117307 102.178534"></polygon>
            <path d="M121.03619,9.13142857 C119.240204,8.84481701 117.551264,10.0664616 117.26127,11.8619048 L115.366349,23.7536508 C115.17183,25.5033239 116.386041,27.0972254 118.124545,27.3743493 C119.863049,27.6514732 121.512639,26.5140722 121.871746,24.7906349 L123.766667,12.8988889 C124.048749,11.1055564 122.828244,9.4215262 121.03619,9.13142857 Z" id="Path" fill="#B3AFAA"></path>
            <path d="M103.593968,6.34873016 C101.795494,6.06238226 100.105409,7.28819479 99.8190476,9.08666667 L97.924127,20.9709524 C97.7296074,22.7206255 98.9438183,24.314527 100.682322,24.5916509 C102.420826,24.8687748 104.070417,23.7313738 104.429524,22.0079365 L106.324444,10.1236508 C106.464145,9.2608152 106.254754,8.37785378 105.742482,7.66963117 C105.230211,6.96140855 104.457171,6.48614559 103.593968,6.34873016 Z" id="Path" fill="#B3AFAA"></path>
            <path d="M86.151746,3.56603175 L86.151746,3.56603175 C84.353272,3.27968385 82.6631871,4.50549637 82.3768254,6.30396825 L80.4819048,18.188254 C80.1998759,19.9856923 81.4236953,21.6730291 83.2198413,21.9631746 L83.2198413,21.9631746 C85.0033877,22.226756 86.6668411,21.0057813 86.95,19.2252381 L88.8449206,7.34095238 C89.137249,5.55631817 87.9343824,3.87030577 86.151746,3.56603175 L86.151746,3.56603175 Z" id="Path" fill="#B3AFAA"></path>
            <path d="M68.7095238,0.783333333 L68.7095238,0.783333333 C66.9110497,0.496985433 65.2209649,1.72279796 64.9346032,3.52126984 L63.0396825,15.4055556 C62.7917709,16.595341 63.2184174,17.8250436 64.1499481,18.6056204 C65.0814787,19.3861971 66.3668635,19.5910922 67.4949147,19.1388203 C68.622966,18.6865485 69.4107916,17.6504371 69.5450794,16.4425397 L71.44,4.55825397 C71.7266116,2.76226772 70.504967,1.07332742 68.7095238,0.783333333 Z" id="Path" fill="#B3AFAA"></path>
            <path d="M137.680159,40.6065079 C137.680159,40.6065079 129.623016,91.157619 113.725079,102.959841 C113.725079,102.959841 99.9906349,93.9477778 82.2947619,94.6565079 C45.3363492,96.1485714 28.5804762,87.5990476 17.8898413,80.1014286 C17.8898413,80.1014286 37.2866667,63.897619 43.2549206,25.5590476 L137.680159,40.6065079 Z" id="Path" fill="#B3AFAB"></path>
            <polygon id="Rectangle" fill="#34312E" transform="translate(92.070573, 23.578229) rotate(9.060000) translate(-92.070573, -23.578229) " points="44.2797798 13.9283088 139.861367 13.9283088 139.861367 33.22815 44.2797798 33.22815"></polygon>
            <path d="M122.841587,18.7179365 L121.871746,24.7831746 C121.732499,25.9906241 120.941723,27.0242007 119.812722,27.474402 C118.683721,27.9246032 117.398715,27.7187671 116.466823,26.9384457 C115.534932,26.1581244 115.10656,24.9292608 115.351429,23.7387302 L116.33619,17.6809524 L122.841587,18.7179365 Z" id="Path" fill="#605E5B"></path>
            <path d="M105.406825,15.9203175 L104.444444,22.0079365 C104.267575,23.1817045 103.474817,24.1704654 102.367578,24.5982911 C101.260338,25.0261167 100.008707,24.8272862 99.0885565,24.0773951 C98.1684058,23.3275041 97.7210852,22.1417478 97.9166667,20.9709524 L98.8790476,14.8833333 L105.406825,15.9203175 Z" id="Path" fill="#605E5B"></path>
            <path d="M87.9422222,13.1674603 L86.9798413,19.2252381 C86.8324733,20.4165251 86.0479979,21.4330015 84.9329526,21.8774744 C83.8179073,22.3219473 82.5492906,22.1238625 81.6228205,21.3606225 C80.6963503,20.5973826 80.2590914,19.3901418 80.4819048,18.2106349 L81.4442857,12.1304762 L87.9422222,13.1674603 Z" id="Path" fill="#605E5B"></path>
            <path d="M70.5,10.3549206 L69.5450794,16.4425397 C69.2587241,18.2368953 67.5719747,19.4593711 65.777619,19.1730159 C63.9832634,18.8866606 62.7607876,17.1999112 63.0471429,15.4055556 L64.0020635,9.31793651 L70.5,10.3549206 Z" id="Path" fill="#605E5B"></path>
            <path d="M54.8407937,52.2446032 C53.602381,57.5488889 50.2526984,65.6284127 50.2526984,65.6284127 C55.4749206,66.9861905 69.2242857,69.5674603 69.2242857,69.5674603 C71.2370758,64.9015302 72.4380509,59.926062 72.7753968,54.8557143 L54.8407937,52.2446032 Z" id="Path" fill="#605E5B"></path>
            <path d="M106.033492,43.5831746 C105.556032,48.5890476 102.266032,56.9669841 102.266032,56.9669841 C107.749365,57.8398413 121.237619,60.9060317 121.237619,60.9060317 C122.861999,56.2091811 124.033625,51.3677914 124.736508,46.4479365 L106.033492,43.5831746 Z" id="Path" fill="#605E5B"></path>
            <path d="M4.52095238,70.0150794 C3.72447846,72.362572 2.24343081,74.4178504 0.268571429,75.9161905 C0.111454043,76.039213 0.0196604941,76.2276717 0.0196604941,76.4272222 C0.0196604941,76.6267728 0.111454043,76.8152314 0.268571429,76.938254 C2.22976832,78.6559551 3.70194915,80.8616526 4.53587302,83.331746 C4.61798014,83.6158094 4.87803848,83.8113448 5.17373016,83.8113448 C5.46942183,83.8113448 5.72948018,83.6158094 5.8115873,83.331746 C6.63986564,80.86074 8.10999255,78.6542623 10.0714286,76.938254 C10.2215708,76.8080696 10.3046652,76.6168841 10.2974174,76.4182938 C10.2901696,76.2197035 10.1933596,76.0350837 10.034127,75.9161905 C8.05736535,74.4213314 6.57786479,72.3645916 5.78920635,70.0150794 C5.7241546,69.7169542 5.46021929,69.5044 5.15507937,69.5044 C4.84993944,69.5044 4.58600413,69.7169542 4.52095238,70.0150794 L4.52095238,70.0150794 Z" id="Path" fill="#605E5B"></path>
            <path d="M22.4331746,98.0360317 C21.8506313,99.7663177 20.7615841,101.281627 19.3073016,102.385397 C19.1939056,102.476 19.1278807,102.613266 19.1278807,102.758413 C19.1278807,102.90356 19.1939056,103.040825 19.3073016,103.131429 C20.7509813,104.399227 21.8344108,106.025658 22.4480952,107.846349 C22.5122985,108.051958 22.7026953,108.191968 22.9180952,108.191968 C23.1334952,108.191968 23.323892,108.051958 23.3880952,107.846349 C24.0017797,106.025658 25.0852092,104.399227 26.5288889,103.131429 C26.6422849,103.040825 26.7083098,102.90356 26.7083098,102.758413 C26.7083098,102.613266 26.6422849,102.476 26.5288889,102.385397 C25.0746064,101.281627 23.9855592,99.7663177 23.4030159,98.0360317 C23.4030159,97.8627863 23.3105905,97.7027009 23.1605556,97.6160782 C23.0105206,97.5294554 22.8256699,97.5294554 22.6756349,97.6160782 C22.5256,97.7027009 22.4331746,97.8627863 22.4331746,98.0360317 Z" id="Path" fill="#605E5B"></path>
            <path d="M18.964127,48.8053968 C18.3742413,50.5338992 17.2835505,52.047882 15.8307937,53.1547619 C15.7173977,53.2453652 15.6513728,53.3826309 15.6513728,53.5277778 C15.6513728,53.6729246 15.7173977,53.8101903 15.8307937,53.9007937 C17.2583443,55.1753582 18.3238198,56.8044548 18.9193651,58.6231746 C18.9835683,58.8287836 19.1739651,58.9687938 19.3893651,58.9687938 C19.604765,58.9687938 19.7951618,58.8287836 19.8593651,58.6231746 C20.4675469,56.7997876 21.5518711,55.1720135 23.0001587,53.908254 C23.1135547,53.8176506 23.1795796,53.680385 23.1795796,53.5352381 C23.1795796,53.3900912 23.1135547,53.2528256 23.0001587,53.1622222 C21.5474019,52.0553423 20.4567111,50.5413595 19.8668254,48.8128571 C19.8101887,48.6115661 19.6273775,48.4719009 19.4182775,48.4701566 C19.2091775,48.4684447 19.0240829,48.6050694 18.964127,48.8053968 Z" id="Path" fill="#605E5B"></path>
            <path d="M56.7953968,68.3738095 L50.125873,59.0857143 C49.5554005,58.2884104 49.7390831,57.1796358 50.5361905,56.6088889 L52.1625397,55.4450794 C52.5433227,55.1707557 53.017546,55.0590735 53.4807297,55.1346382 C53.9439133,55.2102029 54.3580525,55.4668144 54.6319048,55.8479365 L59.1080952,62.0698413 L71.7085714,53.0353968 C72.0893544,52.7610732 72.5635778,52.6493909 73.0267614,52.7249556 C73.4899451,52.8005203 73.9040843,53.0571318 74.1779365,53.438254 L75.3492063,55.0720635 C75.622767,55.4537608 75.7332439,55.9286056 75.6562684,56.3918582 C75.5792929,56.8551109 75.3211891,57.2687112 74.9388889,57.5414286 L59.2722222,68.784127 C58.8900014,69.0600569 58.4134165,69.171925 57.9483423,69.0948796 C57.4832681,69.0178342 57.068218,68.7582554 56.7953968,68.3738095 L56.7953968,68.3738095 Z" id="Path" fill="#798AC4"></path>
            <path d="M109.375714,60.018254 L102.713651,50.7226984 C102.439327,50.3419154 102.327645,49.8676921 102.40321,49.4045084 C102.478774,48.9413248 102.735386,48.5271856 103.116508,48.2533333 L104.750317,47.0820635 C105.132015,46.8085028 105.60686,46.6980259 106.070112,46.7750014 C106.533365,46.851977 106.946965,47.1100807 107.219683,47.492381 L111.695873,53.7142857 L124.296349,44.672381 C124.678046,44.3988203 125.152891,44.2883434 125.616144,44.3653189 C126.079397,44.4422944 126.492997,44.7003982 126.765714,45.0826984 L127.922063,46.7388889 C128.489032,47.5328935 128.309132,48.6356157 127.519206,49.208254 L111.85254,60.4509524 C111.466915,60.7226415 110.989028,60.829711 110.524344,60.7485313 C110.059661,60.6673516 109.646381,60.4045963 109.375714,60.018254 L109.375714,60.018254 Z" id="Path" fill="#798AC4"></path>
        </g>
    </g>
</svg>