<?xml version="1.0" encoding="UTF-8"?>
<svg viewBox="0 0 150 150" version="1.1" xmlns="http://www.w3.org/2000/svg" xmlns:xlink="http://www.w3.org/1999/xlink">
    <!-- Generator: Sketch 59.1 (86144) - https://sketch.com -->
    <title>List / Planned</title>
    <desc>Created with Sketch.</desc>
    <g id="List-/-Planned" stroke="none" stroke-width="1" fill="none" fill-rule="evenodd">
        <g id="Group-2" transform="translate(4.975000, 20.000000)" fill-rule="nonzero">
            <rect id="Rectangle" fill="#C9C6C5" transform="translate(85.662510, 57.470185) rotate(-80.943670) translate(-85.662510, -57.470185) " x="41.2140433" y="9.57183734" width="88.8969333" height="95.7966953"></rect>
            <g id="Calendar" transform="translate(61.025000, 0.000000)" fill="#B2ADA9">
                <g id="Group" transform="translate(18.000000, 2.000000)">
                    <path d="M41.2,6.6 C39.4,6.3 37.7,7.5 37.4,9.3 L35.5,21.2 C35.2,23 36.4,24.7 38.2,25 C40,25.3 41.7,24.1 42,22.3 L43.9,10.4 C44.2,8.6 43,6.9 41.2,6.6 Z" id="Path"></path>
                    <path d="M23.7,3.8 C21.9,3.5 20.2,4.7 19.9,6.5 L18,18.4 C17.7,20.2 18.9,21.9 20.7,22.2 C22.5,22.5 24.2,21.3 24.5,19.5 L26.4,7.6 C26.7,5.8 25.5,4.1 23.7,3.8 Z" id="Path"></path>
                    <path d="M6.2,1 L6.2,1 C4.4,0.7 2.7,1.9 2.4,3.7 L0.5,15.6 C0.2,17.4 1.4,19.1 3.2,19.4 L3.2,19.4 C5,19.7 6.7,18.5 7,16.7 L8.9,4.8 C9.2,3 8,1.3 6.2,1 Z" id="Path"></path>
                </g>
                <path d="M6.7,0.2 L6.7,0.2 C4.9,-0.1 3.2,1.1 2.9,2.9 L1,14.8 C0.7,16.6 1.9,18.3 3.7,18.6 C5.5,18.9 7.2,17.7 7.5,15.9 L9.4,4 C9.8,2.2 8.5,0.5 6.7,0.2 Z" id="Path"></path>
            </g>
            <g id="Calendar" transform="translate(16.025000, 5.000000)">
                <rect id="Rectangle" fill="#7988C3" transform="translate(75.086510, 18.083690) rotate(9.056330) translate(-75.086510, -18.083690) " x="27.1881623" y="8.38402461" width="95.7966953" height="19.3993308"></rect>
                <path d="M106,13.2 L105,19.3 C104.7,21.1 103,22.4 101.2,22 C99.4,21.7 98.2,20 98.5,18.2 L99.5,12.1 L106,13.2 Z" id="Path" fill="#5C6FB2"></path>
                <path d="M88.5,10.4 L87.5,16.5 C87.2,18.3 85.5,19.5 83.7,19.2 C81.9,18.9 80.7,17.2 81,15.4 L82,9.3 L88.5,10.4 Z" id="Path" fill="#5C6FB2"></path>
                <path d="M71,7.6 L70,13.7 C69.7,15.5 68,16.8 66.2,16.4 C64.4,16.1 63.2,14.4 63.5,12.6 L64.5,6.5 L71,7.6 Z" id="Path" fill="#5C6FB2"></path>
                <path d="M53.5,4.8 L52.5,10.9 C52.2,12.7 50.5,13.9 48.7,13.6 C46.9,13.3 45.6,11.6 46,9.8 L47,3.7 L53.5,4.8 Z" id="Path" fill="#5C6FB2"></path>
                <path d="M120.9,35.2 C120.9,35.2 112.8,85.9 96.9,97.7 C96.9,97.7 83.1,88.7 65.4,89.4 C28.3,90.9 11.6,82.3 0.8,74.8 C0.8,74.8 20.2,58.6 26.3,20.1 L120.9,35.2 Z" id="Path" fill="#F3F2F1"></path>
            </g>
            <path d="M53.825,51.8 C52.625,57.1 49.225,65.2 49.225,65.2 C54.525,66.6 68.225,69.2 68.225,69.2 C68.225,69.2 71.325,62.5 71.825,54.4 L53.825,51.8 Z" id="Calendar-day-2" fill="#CFDAF0"></path>
            <path d="M105.225,43.1 C104.725,48.1 101.425,56.5 101.425,56.5 C106.925,57.4 120.425,60.5 120.425,60.5 C120.425,60.5 123.125,52.8 123.925,46 L105.225,43.1 Z" id="Calendar-day-1" fill="#CFDAF0"></path>
            <path d="M21.025,98.5 C20.425,100.1 19.425,101.6 18.125,102.6 C17.925,102.8 17.825,103.1 18.125,103.3 C19.425,104.5 20.525,106 21.025,107.7 C21.125,108.1 21.725,108.1 21.925,107.7 C22.525,106 23.525,104.5 24.825,103.3 C25.025,103.1 25.025,102.8 24.825,102.6 C23.425,101.6 22.425,100.2 21.925,98.5 C21.825,98 21.225,98 21.025,98.5 Z" id="Sparkle-3" fill="#FED591"></path>
            <path d="M4.225,72.2 C3.425,74.4 2.125,76.3 0.225,77.7 C-0.075,77.9 -0.075,78.4 0.225,78.7 C2.025,80.3 3.425,82.4 4.225,84.7 C4.425,85.3 5.225,85.3 5.425,84.7 C6.225,82.4 7.625,80.3 9.425,78.7 C9.725,78.4 9.725,78 9.425,77.7 C7.625,76.3 6.225,74.4 5.425,72.2 C5.225,71.6 4.425,71.6 4.225,72.2 Z" id="Sparkle-2" fill="#FED591"></path>
            <path d="M17.825,52.3 C17.225,53.9 16.225,55.4 14.925,56.4 C14.725,56.6 14.625,56.9 14.925,57.1 C16.225,58.3 17.325,59.8 17.825,61.5 C17.925,61.9 18.525,61.9 18.725,61.5 C19.325,59.8 20.325,58.3 21.625,57.1 C21.825,56.9 21.825,56.6 21.625,56.4 C20.225,55.4 19.225,54 18.725,52.3 C18.525,51.8 17.925,51.8 17.825,52.3 Z" id="Sparkle-1" fill="#FED591"></path>
            <path d="M55.825,68 L49.125,58.7 C48.525,57.9 48.725,56.8 49.525,56.2 L51.125,55 C51.925,54.4 53.025,54.6 53.625,55.4 L58.125,61.6 L70.725,52.5 C71.525,51.9 72.625,52.1 73.225,52.9 L74.425,54.5 C75.025,55.3 74.825,56.4 74.025,57 L58.325,68.3 C57.525,69 56.425,68.8 55.825,68 Z" id="Path" fill="#F8B648"></path>
            <path d="M108.525,59.6 L101.825,50.3 C101.225,49.5 101.425,48.4 102.225,47.8 L103.825,46.6 C104.625,46 105.725,46.2 106.325,47 L110.825,53.2 L123.425,44.1 C124.225,43.5 125.325,43.7 125.925,44.5 L127.125,46.1 C127.725,46.9 127.525,48 126.725,48.6 L111.025,60 C110.225,60.6 109.125,60.4 108.525,59.6 Z" id="Path" fill="#F8B648"></path>
        </g>
    </g>
</svg>