<?xml version="1.0" encoding="UTF-8"?>
<svg viewBox="0 0 150 150" version="1.1" xmlns="http://www.w3.org/2000/svg" xmlns:xlink="http://www.w3.org/1999/xlink">
    <!-- Generator: Sketch 59.1 (86144) - https://sketch.com -->
    <title>List / Assigned to me</title>
    <desc>Created with Sketch.</desc>
    <defs>
        <radialGradient cx="71.9246581%" cy="83.4434305%" fx="71.9246581%" fy="83.4434305%" r="57.5367823%" gradientTransform="translate(0.719247,0.834434),scale(0.804046,1.000000),rotate(9.352115),translate(-0.719247,-0.834434)" id="radialGradient-1">
            <stop stop-color="#5D6FB3" offset="2%"></stop>
            <stop stop-color="#687ABA" offset="25%"></stop>
            <stop stop-color="#7586C1" offset="63%"></stop>
            <stop stop-color="#798AC4" offset="100%"></stop>
        </radialGradient>
        <radialGradient cx="98.8241558%" cy="68.4738829%" fx="98.8241558%" fy="68.4738829%" r="65.7098671%" gradientTransform="translate(0.988242,0.684739),scale(1.000000,0.790137),translate(-0.988242,-0.684739)" id="radialGradient-2">
            <stop stop-color="#5D6FB3" offset="14%"></stop>
            <stop stop-color="#687ABA" offset="34%"></stop>
            <stop stop-color="#7586C1" offset="68%"></stop>
            <stop stop-color="#798AC4" offset="100%"></stop>
        </radialGradient>
        <radialGradient cx="38.9142857%" cy="25.3873239%" fx="38.9142857%" fy="25.3873239%" r="70.8%" gradientTransform="translate(0.389143,0.253873),scale(1.000000,0.616197),rotate(180.000000),translate(-0.389143,-0.253873)" id="radialGradient-3">
            <stop stop-color="#9B643D" offset="0%"></stop>
            <stop stop-color="#A46E47" stop-opacity="0.76" offset="27%"></stop>
            <stop stop-color="#BA8962" stop-opacity="0.14" offset="87%"></stop>
            <stop stop-color="#BF8F68" stop-opacity="0" offset="100%"></stop>
        </radialGradient>
        <radialGradient cx="83.8800204%" cy="57.8753766%" fx="83.8800204%" fy="57.8753766%" r="58.0419904%" gradientTransform="translate(0.838800,0.578754),scale(1.000000,0.498728),rotate(175.426079),translate(-0.838800,-0.578754)" id="radialGradient-4">
            <stop stop-color="#9B643D" offset="0%"></stop>
            <stop stop-color="#BF8F68" offset="100%"></stop>
        </radialGradient>
    </defs>
    <g id="List-/-Assigned-to-me" stroke="none" stroke-width="1" fill="none" fill-rule="evenodd">
        <g id="Microsoft-To-Do_Empty-State_Assigned-to-Me-Smartlist_Light-Theme-2" transform="translate(5.000000, 13.000000)">
            <g id="Microsoft-To-Do_Empty-State_Assigned-to-Me-Smartlist_Light-Theme">
                <circle id="Oval" fill="#D0DBF1" fill-rule="nonzero" cx="88.5025126" cy="71.758794" r="51.1457286"></circle>
                <path d="M20.1909548,63.879397 C29.2663317,59.5175879 38.6231156,55.0150754 48.3316583,50.5125628 C40.6633166,37.1457286 35.8090452,23.4974874 33.839196,10.4120603 C22.2311558,14.8442211 10.9748744,19.2763819 0,23.7788945 C3.86934673,37.2160804 10.6231156,50.8643216 20.1909548,63.879397 Z" id="Path" fill="#F3F2F1" fill-rule="nonzero"></path>
                <path d="M16.3919598,42.2110553 L16.3919598,42.2110553 C15.5477387,42.6331658 15.1256281,43.6884422 15.5477387,44.5326633 C15.5477387,44.5326633 15.5477387,44.6030151 15.6180905,44.6030151 L15.6180905,44.6030151 C16.040201,45.5175879 17.1658291,45.9396985 18.080402,45.5879397 L18.080402,45.5879397 C18.9246231,45.1658291 19.2763819,44.1105528 18.8542714,43.1959799 C18.8542714,43.1959799 18.8542714,43.1959799 18.8542714,43.1256281 L18.8542714,43.1256281 C18.4321608,42.281407 17.3768844,41.8592965 16.3919598,42.2110553 Z" id="Path" fill="#8B8BC4" fill-rule="nonzero"></path>
                <path d="M13.3668342,35.5276382 L13.3668342,35.5276382 C12.4522613,35.9497487 12.0301508,37.0050251 12.3819095,37.919598 L12.3819095,37.919598 C12.8040201,38.8341709 13.8592965,39.2562814 14.7738693,38.9045226 L14.7738693,38.9045226 C15.6884422,38.4824121 16.1105528,37.4271357 15.6884422,36.5125628 L15.6884422,36.5125628 C15.4070352,35.5276382 14.3517588,35.1055276 13.3668342,35.5276382 C13.4371859,35.4572864 13.3668342,35.4572864 13.3668342,35.5276382 Z" id="Path" fill="#8B8BC4" fill-rule="nonzero"></path>
                <path d="M10.8341709,28.7738693 L10.8341709,28.7738693 C9.84924623,29.1256281 9.35678392,30.2512563 9.70854271,31.2361809 L9.70854271,31.2361809 C10.0603015,32.1507538 11.0452261,32.5728643 11.959799,32.2211055 C11.959799,32.2211055 12.0301508,32.2211055 12.0301508,32.1507538 L12.0301508,32.1507538 C12.9447236,31.7286432 13.4371859,30.6733668 13.1557789,29.758794 L13.1557789,29.758794 C12.8743719,28.8442211 11.8894472,28.4221106 10.9748744,28.7035176 C10.9748744,28.7035176 10.9045226,28.7035176 10.8341709,28.7738693 Z" id="Path" fill="#8B8BC4" fill-rule="nonzero"></path>
                <path d="M32.7135678,36.2311558 C29.0552764,37.8492462 25.4673367,39.4673367 21.879397,41.0150754 C21.5276382,41.1557789 21.3869347,41.5778894 21.5276382,41.9296482 L21.5276382,41.9296482 C21.6683417,42.281407 22.0904523,42.4924623 22.4422111,42.281407 C22.4422111,42.281407 22.4422111,42.281407 22.4422111,42.281407 C25.959799,40.6633166 29.5477387,39.1155779 33.2060302,37.4974874 C33.5577889,37.3567839 33.7688442,36.9346734 33.5577889,36.5829146 C33.5577889,36.5829146 33.5577889,36.5829146 33.5577889,36.5829146 L33.5577889,36.5829146 C33.4874372,36.2311558 33.0653266,36.0904523 32.7135678,36.2311558 C32.7135678,36.2311558 32.7135678,36.2311558 32.7135678,36.2311558 Z" id="Path" fill="#C9C6C5" fill-rule="nonzero"></path>
                <path d="M25.3266332,31.5175879 L18.9246231,34.3316583 C18.5728643,34.4723618 18.361809,34.8944724 18.5025126,35.2462312 C18.5025126,35.2462312 18.5025126,35.2462312 18.5025126,35.2462312 L18.5025126,35.2462312 C18.6432161,35.5979899 19.0653266,35.7386935 19.4170854,35.5979899 C21.5276382,34.6834171 23.638191,33.6984925 25.8190955,32.7839196 C26.1708543,32.6432161 26.3819095,32.2211055 26.241206,31.8693467 L26.241206,31.8693467 C26.1005025,31.5175879 25.678392,31.3768844 25.3266332,31.5175879 Z" id="Path" fill="#C9C6C5" fill-rule="nonzero"></path>
                <path d="M30.321608,21.879397 C25.6080402,23.7788945 20.9648241,25.678392 16.321608,27.6482412 C16.040201,27.7889447 15.8994975,28.0703518 15.9698492,28.3517588 C15.9698492,28.4221106 16.040201,28.4924623 16.040201,28.6331658 C16.1105528,28.9145729 16.3919598,29.0552764 16.6733668,28.9145729 C16.6733668,28.9145729 16.6733668,28.9145729 16.7437186,28.9145729 C21.3165829,27.0150754 25.959799,25.0452261 30.6030151,23.1457286 C30.8844221,23.0050251 31.0954774,22.7236181 31.0251256,22.4422111 C31.0251256,22.3718593 30.9547739,22.3015075 30.9547739,22.160804 C30.8844221,21.879397 30.6030151,21.7386935 30.321608,21.879397 C30.321608,21.879397 30.321608,21.879397 30.321608,21.879397 Z" id="Path" fill="#C9C6C5" fill-rule="nonzero"></path>
                <path d="M35.0351759,60.2914573 C34.9648241,59.7286432 34.6130653,57.8994975 34.0502513,57.5477387 L34.0502513,57.5477387 C32.1507538,55.5075377 30.5326633,51.0050251 29.1959799,51.2864322 C28.3517588,51.4974874 28.6331658,53.678392 28.8442211,54.1708543 C29.0552764,54.6633166 30.1105528,56.7035176 29.8994975,58.1809045 C29.758794,58.7437186 29.4773869,59.3065327 29.1959799,59.8693467 L28.8442211,60.0100503 L24.2713568,62.1909548 C24.4824121,62.8241206 24.6934673,63.4572864 25.0452261,64.0904523 C26.3115578,66.6934673 30.8140704,74.2211055 30.8140704,74.2211055 L35.4572864,73.1658291 C35.3869347,73.1658291 35.9497487,65.1457286 35.0351759,60.2914573 Z" id="Path" fill="#C09068" fill-rule="nonzero"></path>
                <path d="M115.517588,25.0452261 C115.447236,23.9899497 111.788945,23.4974874 106.442211,23.2864322 C109.678392,24.4824121 112.844221,26.0301508 115.798995,27.8592965 C115.658291,26.8743719 115.58794,25.8894472 115.517588,25.0452261 Z" id="Path" fill="#34312E" fill-rule="nonzero"></path>
                <path d="M115.869347,28.6331658 C112.351759,26.3819095 108.552764,24.5527638 104.542714,23.2864322 C89.5577889,23.0753769 64.5829146,25.3969849 64.160804,27.5778894 C63.7386935,44.6030151 52.4824121,81.4673367 45.5879397,98.4924623 L45.5175879,98.6331658 C45.6582915,99.1256281 45.798995,99.6884422 45.9396985,100.180905 C61.6281407,123.678392 93.2864322,130.01005 116.78392,114.321608 C123.396985,109.889447 128.884422,104.050251 132.824121,97.1557789 C122.060302,71.758794 117.698492,44.7437186 115.869347,28.6331658 Z" id="Path" fill="#34312E" fill-rule="nonzero"></path>
                <path d="M51.4271357,90.6130653 C55.6482412,93.1457286 68.5929648,67.678392 68.5929648,67.678392 C71.8291457,61.1356784 78.5829146,57.6884422 83.9296482,60.2211055 C90.2613065,63.2462312 88.9246231,70.4924623 86.321608,76.6130653 C86.321608,76.6130653 73.5879397,97.8592965 54.8040201,105.809045 C43.5477387,110.592965 29.8994975,80.8341709 30.1105528,74.1507538 C30.1809045,72.321608 35.5276382,71.8291457 35.5276382,71.8291457 C35.5276382,71.8291457 46.361809,87.5175879 51.4271357,90.6130653 Z" id="Path" fill="url(#radialGradient-1)" fill-rule="nonzero"></path>
                <path d="M113.688442,101.376884 C114.603015,90.7537688 119.246231,85.758794 119.175879,80.4824121 C119.035176,66.6934673 108.130653,60.080402 108.130653,60.0100503 C102.643216,57.0552764 99.0552764,56.5628141 93.5678392,56.2110553 C87.9396985,55.8592965 82.3819095,56.9849246 77.3165829,59.4472362 C77.2462312,59.4472362 77.2462312,59.5175879 77.1758794,59.5175879 C69.7889447,63.2462312 67.678392,69.3668342 66.7638191,75.9798995 C66.2713568,79.4974874 66.201005,83.718593 67.8894472,90.0502513 C68.8743719,94.6934673 68.1005025,112.703518 67.5376884,118.331658 C82.9447236,125.296482 100.743719,124.170854 115.165829,115.447236 C114.462312,111.015075 113.407035,104.894472 113.688442,101.376884 Z" id="Path" fill="url(#radialGradient-2)" fill-rule="nonzero"></path>
                <path d="M131.557789,99.2663317 C126.844221,79.4974874 117.135678,63.0351759 106.864322,59.3065327 C99.4070352,56.5628141 102.994975,76.7537688 108.130653,89.4170854 C112.773869,100.81407 114.884422,100.180905 118.472362,113.19598 C123.678392,109.396985 128.110553,104.683417 131.557789,99.2663317 Z" id="Path" fill="#798AC4" fill-rule="nonzero"></path>
                <ellipse id="Oval" fill="#34312E" fill-rule="nonzero" cx="89.9095477" cy="28.6331658" rx="25.7487437" ry="28.6331658"></ellipse>
                <path d="M97.8592965,51.3567839 C97.8592965,51.3567839 97.718593,56.4924623 104.120603,58.1809045 L96.1708543,60.2914573 L97.8592965,51.3567839 Z" id="Path" fill="#C88D61" fill-rule="nonzero"></path>
                <ellipse id="Oval" fill="#FED591" fill-rule="nonzero" transform="translate(72.423546, 39.268437) rotate(-89.150010) translate(-72.423546, -39.268437) " cx="72.4235458" cy="39.2684367" rx="3.37691832" ry="3.23621339"></ellipse>
                <polygon id="Path" fill="#C88D61" fill-rule="nonzero" points="85.6180905 60.6432161 97.9296482 60.5728643 97.8592965 40.6633166 85.6180905 40.6633166"></polygon>
                <polygon id="Path" fill="url(#radialGradient-3)" fill-rule="nonzero" points="85.6180905 60.6432161 97.9296482 60.5728643 97.8592965 40.6633166 85.6180905 40.6633166"></polygon>
                <ellipse id="Oval" fill="#BF8F68" fill-rule="nonzero" cx="87.798995" cy="28.8442211" rx="17.0954774" ry="20.6834171"></ellipse>
                <ellipse id="Oval" fill="#3C312D" fill-rule="nonzero" transform="translate(94.720338, 28.538719) rotate(-89.150010) translate(-94.720338, -28.538719) " cx="94.720338" cy="28.5387186" rx="2.67339367" ry="1.6181067"></ellipse>
                <path d="M86.4623116,17.6582915 L86.040201,24.5527638 C85.758794,27.2964824 84.5628141,29.8994975 82.5226131,31.798995 C81.6080402,32.7839196 81.4673367,34.3316583 82.3115578,35.4572864 C82.8040201,36.0201005 84.9849246,37.3567839 84.9849246,38.9748744 L84.7738693,45.3065327 L74.6432161,41.4371859 L72.6733668,19.0653266 L86.4623116,17.6582915 Z" id="Path" fill="url(#radialGradient-4)" fill-rule="nonzero"></path>
                <path d="M84.4924623,40.241206 C85.0552764,40.3115578 85.6180905,40.3115578 86.1809045,40.241206 C86.7437186,40.1708543 87.3065327,40.1005025 87.798995,39.959799 C88.2914573,39.8190955 88.9246231,39.678392 89.4170854,39.5376884 C89.5577889,39.4673367 89.6984925,39.4673367 89.7688442,39.3969849 C89.9095477,39.3266332 89.9798995,39.3266332 90.120603,39.2562814 C90.4020101,39.1859296 90.6130653,39.0452261 90.8241206,38.9045226 L91.1055276,38.7638191 C91.3165829,38.6231156 91.5979899,38.6231156 91.8090452,38.8341709 C91.8090452,38.8341709 91.8090452,38.8341709 91.8090452,38.9045226 C91.879397,38.9748744 91.879397,38.9748744 91.879397,39.0452261 C91.9497487,39.5376884 91.879397,40.1005025 91.5979899,40.5226131 C91.3869347,40.9447236 91.0351759,41.2964824 90.6834171,41.5778894 C90.0502513,42.1407035 89.2060302,42.4924623 88.361809,42.6331658 C87.5175879,42.8442211 86.6733668,42.7738693 85.8291457,42.5628141 C84.9145729,42.3517588 84.1407035,41.718593 83.718593,40.8743719 C83.5778894,40.5929648 83.718593,40.3115578 84,40.1708543 C84,40.1708543 84,40.1708543 84,40.1708543 C84.0703518,40.1708543 84.2110553,40.1708543 84.281407,40.1708543 L84.4924623,40.241206 Z" id="Path" fill="#9B643D" fill-rule="nonzero"></path>
                <path d="M70.6331658,11.8894472 C70.6331658,11.8894472 74.2914573,13.718593 78.8643216,11.1155779 C82.7336683,8.86432161 85.8994975,12.4522613 87.7286432,15.1959799 C91.6683417,20.9648241 98.3517588,26.1005025 104.894472,25.2562814 C109.537688,24.6231156 110.80402,9.35678392 97.0150754,4.4321608 C82.6633166,-0.773869347 70.6331658,11.8894472 70.6331658,11.8894472 Z" id="Path" fill="#34312E" fill-rule="nonzero"></path>
                <path d="M104.894472,35.4572864 L98.3517588,35.4572864 L98.3517588,35.4572864 L98.3517588,25.3266332 L98.3517588,25.3266332 L104.894472,25.3266332 C107.708543,25.3266332 109.959799,27.5778894 109.959799,30.3919598 L109.959799,30.3919598 C110.030151,33.1356784 107.708543,35.4572864 104.894472,35.4572864 C104.964824,35.4572864 104.964824,35.4572864 104.894472,35.4572864 Z" id="Path" fill="#BF8F68" fill-rule="nonzero"></path>
                <ellipse id="Oval" fill="#FED591" fill-rule="nonzero" transform="translate(105.326305, 38.295684) rotate(-89.150010) translate(-105.326305, -38.295684) " cx="105.326305" cy="38.2956839" rx="3.37691832" ry="3.23621339"></ellipse>
                <ellipse id="Oval" fill="#3C312D" fill-rule="nonzero" transform="translate(79.568600, 28.563608) rotate(-0.849992) translate(-79.568600, -28.563608) " cx="79.5685999" cy="28.5636081" rx="1.6181067" ry="2.67339367"></ellipse>
                <path d="M106.864322,59.3065327 C117.135678,63.0351759 126.844221,79.5678392 131.557789,99.3366834 C146.753769,75.5577889 139.788945,43.8994975 116.01005,28.7035176 C92.2311558,13.5075377 60.6432161,20.4723618 45.4472362,44.2512563 C30.2512563,68.0301508 37.2160804,99.6884422 60.9949749,114.884422 C78.6532663,126.211055 101.447236,125.507538 118.472362,113.266332 C114.954774,100.251256 112.773869,100.884422 108.130653,89.4874372 C102.994975,76.7537688 99.4070352,56.5628141 106.864322,59.3065327 Z" id="Path"></path>
                <path d="M115.798995,27.8592965 C112.844221,26.0301508 109.748744,24.4824121 106.442211,23.2864322 C105.809045,23.2864322 105.175879,23.2864322 104.542714,23.2160804 C108.552764,24.5527638 112.351759,26.3115578 115.869347,28.5628141 C115.869347,28.3517588 115.798995,28.1407035 115.798995,27.8592965 Z" id="Path" fill="#34312E" fill-rule="nonzero"></path>
                <path d="M139.648241,71.758794 C139.648241,54.241206 130.713568,37.9899497 115.869347,28.6331658 C117.628141,44.7437186 122.060302,71.758794 132.894472,97.0854271 C137.326633,89.4170854 139.648241,80.6934673 139.648241,71.758794 Z" id="Path"></path>
                <path d="M45.5879397,98.4924623 C52.4120603,81.4673367 63.7386935,44.6030151 64.0904523,27.5778894 C64.5125628,25.3266332 89.5577889,23.0753769 104.472362,23.2864322 C77.6683417,14.4221106 48.7537688,28.9849246 39.8894472,55.7889447 C34.9648241,70.7035176 37.1457286,87.0954774 45.8693467,100.180905 C45.6582915,99.6884422 45.5175879,99.1959799 45.4472362,98.6331658 L45.5879397,98.4924623 Z" id="Path"></path>
                <path d="M113.688442,101.376884 C114.603015,90.7537688 119.246231,85.758794 119.175879,80.4824121 C119.035176,66.6934673 108.130653,60.080402 108.130653,60.0100503 C107.708543,59.798995 107.21608,59.5175879 106.79397,59.3065327 C105.386935,59.798995 103.979899,60.2211055 102.572864,60.5025126 C101.447236,60.7839196 100.180905,61.0653266 98.9145729,61.3467337 C96.6633166,61.7688442 94.3417085,61.9798995 92.0201005,62.120603 C89.6984925,62.2613065 87.3768844,62.1909548 85.0552764,61.9798995 L85.0552764,61.9798995 C82.1708543,61.7688442 76.7537688,59.8693467 76.5427136,59.798995 C69.6482412,63.5276382 67.6080402,69.5075377 66.7638191,75.9798995 C66.2713568,79.4974874 66.201005,83.718593 67.8894472,90.0502513 C68.8743719,94.6934673 68.1005025,112.703518 67.5376884,118.331658 C82.9447236,125.296482 100.743719,124.170854 115.165829,115.447236 C114.462312,111.015075 113.407035,104.894472 113.688442,101.376884 Z" id="Path"></path>
                <path d="M85.0552764,62.0502513 C87.3768844,62.2613065 89.6984925,62.2613065 92.0201005,62.1909548 C94.3417085,62.120603 96.6633166,61.839196 98.9145729,61.4170854 C100.180905,61.2060302 101.447236,60.9246231 102.572864,60.5728643 C103.979899,60.2914573 105.386935,59.8693467 106.79397,59.3768844 C102.01005,56.9849246 98.5628141,56.5628141 93.5678392,56.281407 C87.9396985,55.9296482 82.3819095,57.0552764 77.3165829,59.5175879 C77.2462312,59.5175879 77.2462312,59.5879397 77.1758794,59.5879397 C76.9648241,59.7286432 76.7537688,59.798995 76.5427136,59.9396985 C76.7537688,59.9396985 82.1708543,61.7688442 85.0552764,62.0502513 Z" id="Path" fill="#C88D61" fill-rule="nonzero"></path>
                <path d="M85.6180905,51.5678392 C85.6180905,51.5678392 86.321608,55.718593 81.0452261,57.8291457 L89.4170854,58.321608 L85.6180905,51.5678392 Z" id="Path" fill="#C88D61" fill-rule="nonzero"></path>
            </g>
        </g>
    </g>
</svg>