<?xml version="1.0" encoding="UTF-8"?>
<svg viewBox="0 0 150 150" version="1.1" xmlns="http://www.w3.org/2000/svg" xmlns:xlink="http://www.w3.org/1999/xlink">
    <!-- Generator: Sketch 59.1 (86144) - https://sketch.com -->
    <title>List / Assigned to me (Dark)</title>
    <desc>Created with Sketch.</desc>
    <defs>
        <radialGradient cx="72.9709596%" cy="84.0973245%" fx="72.9709596%" fy="84.0973245%" r="57.7010155%" gradientTransform="translate(0.729710,0.840973),scale(0.804046,1.000000),rotate(9.180542),translate(-0.729710,-0.840973)" id="radialGradient-1">
            <stop stop-color="#605E5B" offset="0%"></stop>
            <stop stop-color="#686663" offset="19%"></stop>
            <stop stop-color="#75726F" offset="60%"></stop>
            <stop stop-color="#797673" offset="100%"></stop>
        </radialGradient>
        <radialGradient cx="98.8241558%" cy="68.4751902%" fx="98.8241558%" fy="68.4751902%" r="65.7098671%" gradientTransform="translate(0.988242,0.684752),scale(1.000000,0.790173),translate(-0.988242,-0.684752)" id="radialGradient-2">
            <stop stop-color="#605E5B" offset="0%"></stop>
            <stop stop-color="#686663" offset="19%"></stop>
            <stop stop-color="#75726F" offset="60%"></stop>
            <stop stop-color="#797673" offset="100%"></stop>
        </radialGradient>
        <radialGradient cx="38.9142857%" cy="25.3873239%" fx="38.9142857%" fy="25.3873239%" r="70.8%" gradientTransform="translate(0.389143,0.253873),scale(1.000000,0.616197),rotate(180.000000),translate(-0.389143,-0.253873)" id="radialGradient-3">
            <stop stop-color="#9B643D" offset="0%"></stop>
            <stop stop-color="#A46E47" stop-opacity="0.76" offset="27%"></stop>
            <stop stop-color="#BA8962" stop-opacity="0.14" offset="87%"></stop>
            <stop stop-color="#BF8F68" stop-opacity="0" offset="100%"></stop>
        </radialGradient>
        <radialGradient cx="78.9653061%" cy="58.8458015%" fx="78.9653061%" fy="58.8458015%" r="58.0419904%" gradientTransform="translate(0.789653,0.588458),scale(1.000000,0.498728),rotate(175.426079),translate(-0.789653,-0.588458)" id="radialGradient-4">
            <stop stop-color="#9B643D" offset="0%"></stop>
            <stop stop-color="#BF8F68" offset="100%"></stop>
        </radialGradient>
    </defs>
    <g id="List-/-Assigned-to-me-(Dark)" stroke="none" stroke-width="1" fill="none" fill-rule="evenodd">
        <g id="Microsoft-To-Do_Empty-State_Assigned-to-Me-Smartlist_Dark-Theme-2" transform="translate(5.000000, 13.000000)">
            <g id="Microsoft-To-Do_Empty-State_Assigned-to-Me-Smartlist_Dark-Theme">
                <circle id="Oval" fill="#34312E" fill-rule="nonzero" cx="88.5025126" cy="71.758794" r="51.1457286"></circle>
                <path d="M20.1909548,63.879397 C29.2663317,59.5175879 38.6231156,55.0150754 48.3316583,50.5125628 C40.6633166,37.1457286 35.8090452,23.4974874 33.839196,10.4120603 C22.2311558,14.8442211 10.9514238,19.2998325 0,23.7788945 C3.86934673,37.2160804 10.6231156,50.8643216 20.1909548,63.879397 Z" id="Path" fill="#B3AFAB" fill-rule="nonzero"></path>
                <path d="M16.3919598,42.2110553 L16.3919598,42.2110553 C15.5289699,42.6292334 15.1549338,43.6578325 15.5477387,44.5326633 C15.5477387,44.5513218 15.5551507,44.569216 15.5683442,44.5824095 C15.5815378,44.595603 15.599432,44.6030151 15.6180905,44.6030151 L15.6180905,44.6030151 C16.0642555,45.5148141 17.12849,45.9405079 18.080402,45.5879397 L18.080402,45.5879397 C18.9411745,45.1297568 19.2835421,44.0715297 18.8542714,43.1959799 L18.8542714,43.1256281 L18.8542714,43.1256281 C18.3795348,42.245795 17.3259411,41.8544602 16.3919598,42.2110553 L16.3919598,42.2110553 Z" id="Path" fill="#8B8BC4" fill-rule="nonzero"></path>
                <path d="M13.3668342,35.5276382 L13.3668342,35.5276382 C12.4624621,35.9436884 12.0327103,36.9873713 12.3819095,37.919598 L12.3819095,37.919598 C12.7979598,38.8239701 13.8416427,39.2537219 14.7738693,38.9045226 L14.7738693,38.9045226 C15.214141,38.7106757 15.5585642,38.3487499 15.7303676,37.8994178 C15.9021711,37.4500858 15.8870742,36.9506964 15.6884422,36.5125628 L15.6884422,36.5125628 C15.546039,36.0473311 15.2051355,35.6689196 14.7572374,35.4789023 C14.3093394,35.2888849 13.8003284,35.3067266 13.3668342,35.5276382 C13.4371859,35.4572864 13.3668342,35.4572864 13.3668342,35.5276382 Z" id="Path" fill="#8B8BC4" fill-rule="nonzero"></path>
                <path d="M10.8341709,28.7738693 L10.8341709,28.7738693 C9.84871377,29.1486886 9.34722583,30.2456935 9.70854271,31.2361809 L9.70854271,31.2361809 C9.87018129,31.6702593 10.2010423,32.0201684 10.6254032,32.2058263 C11.0497642,32.3914843 11.5312982,32.396998 11.959799,32.2211055 C11.9784574,32.2211055 11.9963517,32.2136935 12.0095452,32.2005 C12.0227387,32.1873065 12.0301508,32.1694122 12.0301508,32.1507538 L12.0301508,32.1507538 C12.9388526,31.7350099 13.4146332,30.723976 13.1557789,29.758794 L13.1557789,29.758794 C13.0089271,29.3278873 12.6956173,28.9737424 12.2858263,28.7754564 C11.8760353,28.5771705 11.4039015,28.551262 10.9748744,28.7035176 C10.9208543,28.7086473 10.8706867,28.7337311 10.8341709,28.7738693 Z" id="Path" fill="#8B8BC4" fill-rule="nonzero"></path>
                <path d="M32.7135678,36.2311558 C29.0552764,37.8492462 25.4673367,39.4673367 21.879397,41.0150754 C21.5342089,41.1747359 21.3784051,41.5798257 21.5276382,41.9296482 L21.5276382,41.9296482 C21.591262,42.1067191 21.7287905,42.2473388 21.9044036,42.3148823 C22.0800167,42.3824258 22.2763294,42.3702065 22.4422111,42.281407 L22.4422111,42.281407 C25.959799,40.6633166 29.5477387,39.1155779 33.2060302,37.4974874 C33.383101,37.4338636 33.5237208,37.2963351 33.5912642,37.120722 C33.6588077,36.945109 33.6465884,36.7487962 33.5577889,36.5829146 L33.5577889,36.5829146 C33.5047685,36.4147482 33.3802328,36.2785539 33.2174697,36.2107359 C33.0547067,36.142918 32.8703098,36.1503904 32.7135678,36.2311558 L32.7135678,36.2311558 Z" id="Path" fill="#615F5C" fill-rule="nonzero"></path>
                <path d="M25.3266332,31.5175879 L18.9246231,34.3316583 C18.7458757,34.3949862 18.6002638,34.5277932 18.5207961,34.6999732 C18.4413284,34.8721531 18.4347358,35.0691228 18.5025126,35.2462312 L18.5025126,35.2462312 C18.6621731,35.5914192 19.0672629,35.747223 19.4170854,35.5979899 C21.5276382,34.6834171 23.638191,33.6984925 25.8190955,32.7839196 C25.9978429,32.7205917 26.1434548,32.5877847 26.2229225,32.4156047 C26.3023902,32.2434248 26.3089828,32.046455 26.241206,31.8693467 L26.241206,31.8693467 C26.0815455,31.5241586 25.6764557,31.3683549 25.3266332,31.5175879 Z" id="Path" fill="#615F5C" fill-rule="nonzero"></path>
                <path d="M30.321608,21.879397 C25.6080402,23.7788945 20.9648241,25.678392 16.321608,27.6482412 C16.0513115,27.7685662 15.9039313,28.0633265 15.9698492,28.3517588 C15.9698492,28.4221106 16.040201,28.4924623 16.040201,28.6331658 C16.0691513,28.7669968 16.1602275,28.8789789 16.2853525,28.93459 C16.4104775,28.9902011 16.5546287,28.9827645 16.6733668,28.9145729 L16.7437186,28.9145729 C21.3165829,27.0150754 25.959799,25.0452261 30.6030151,23.1457286 C30.8800475,23.0260313 31.0498786,22.7429796 31.0251256,22.4422111 C31.0251256,22.3718593 30.9547739,22.3015075 30.9547739,22.160804 C30.9258235,22.026973 30.8347473,21.914991 30.7096223,21.8593799 C30.5844974,21.8037688 30.4403462,21.8112053 30.321608,21.879397 L30.321608,21.879397 Z" id="Path" fill="#615F5C" fill-rule="nonzero"></path>
                <path d="M35.0351759,60.2914573 C34.9648241,59.7286432 34.6130653,57.8994975 34.0502513,57.5477387 L34.0502513,57.5477387 C32.1507538,55.5075377 30.5326633,51.0050251 29.1959799,51.2864322 C28.3517588,51.4974874 28.6331658,53.678392 28.8442211,54.1708543 C29.0552764,54.6633166 30.1105528,56.7035176 29.8994975,58.1809045 C29.7256526,58.7671176 29.4898144,59.3331293 29.1959799,59.8693467 L28.8442211,60.0100503 L24.2713568,62.1909548 C24.4683827,62.8472677 24.7275107,63.4833092 25.0452261,64.0904523 C26.3115578,66.6934673 30.8140704,74.2211055 30.8140704,74.2211055 L35.4572864,73.1658291 C35.3869347,73.1658291 35.9497487,65.1457286 35.0351759,60.2914573 Z" id="Path" fill="#C09068" fill-rule="nonzero"></path>
                <path d="M115.517588,25.0452261 C115.447236,23.9899497 111.788945,23.4974874 106.442211,23.2864322 C109.705404,24.4958716 112.839844,26.0277404 115.798995,27.8592965 C115.658291,26.8743719 115.58794,25.8894472 115.517588,25.0452261 Z" id="Path" fill="#34312E" fill-rule="nonzero"></path>
                <path d="M115.869347,28.6331658 C112.345193,26.3608743 108.536833,24.563139 104.542714,23.2864322 C89.5577889,23.0753769 64.5829146,25.3969849 64.160804,27.5778894 C63.7386935,44.6030151 52.4824121,81.4673367 45.5879397,98.4924623 L45.5175879,98.6331658 C45.6582915,99.1256281 45.798995,99.6884422 45.9396985,100.180905 C55.7797054,114.897315 72.5318938,123.476771 90.2242367,122.860762 C107.91658,122.244753 124.031488,112.520937 132.824121,97.1557789 C122.060302,71.758794 117.698492,44.7437186 115.869347,28.6331658 Z" id="Path" fill="#594539" fill-rule="nonzero"></path>
                <path d="M51.4271357,90.6130653 C55.6482412,93.1457286 68.5929648,67.678392 68.5929648,67.678392 C71.8291457,61.1356784 78.5829146,57.6884422 83.9296482,60.2211055 C90.2613065,63.2462312 88.9246231,70.4924623 86.321608,76.6130653 C86.321608,76.6130653 73.5879397,97.8592965 54.8040201,105.809045 C43.5477387,110.592965 29.8994975,80.8341709 30.1105528,74.1507538 C30.1809045,72.321608 35.5276382,71.8291457 35.5276382,71.8291457 C35.5276382,71.8291457 46.361809,87.5175879 51.4271357,90.6130653 Z" id="Path" fill="url(#radialGradient-1)" fill-rule="nonzero"></path>
                <path d="M113.688442,101.376884 C114.603015,90.7537688 119.246231,85.758794 119.175879,80.4824121 C119.035176,66.6934673 108.130653,60.080402 108.130653,60.0100503 C102.643216,57.0552764 99.0552764,56.5628141 93.5678392,56.2110553 C87.9619192,55.8643807 82.3620583,56.9795045 77.3165829,59.4472362 C77.2462312,59.4472362 77.2462312,59.5175879 77.1758794,59.5175879 C69.7889447,63.2462312 67.678392,69.3668342 66.7638191,75.9798995 C66.2713568,79.4974874 66.201005,83.718593 67.8894472,90.0502513 C68.8743719,94.6934673 68.1005025,112.703518 67.5376884,118.331658 C82.9197599,125.27358 100.733929,124.19473 115.165829,115.447236 C114.462312,111.015075 113.407035,104.894472 113.688442,101.376884 Z" id="Path" fill="url(#radialGradient-2)" fill-rule="nonzero"></path>
                <path d="M131.557789,99.2663317 C126.844221,79.4974874 117.135678,63.0351759 106.864322,59.3065327 C99.4070352,56.5628141 102.994975,76.7537688 108.130653,89.4170854 C112.773869,100.81407 114.884422,100.180905 118.472362,113.19598 C123.666657,109.41166 128.10518,104.68678 131.557789,99.2663317 L131.557789,99.2663317 Z" id="Path" fill="#797673" fill-rule="nonzero"></path>
                <ellipse id="Oval" fill="#594539" fill-rule="nonzero" cx="89.9095477" cy="28.6331658" rx="25.7487437" ry="28.6331658"></ellipse>
                <path d="M97.8592965,51.3567839 C97.8592965,51.3567839 97.718593,56.4924623 104.120603,58.1809045 L96.1708543,60.2914573 L97.8592965,51.3567839 Z" id="Path" fill="#C88D61" fill-rule="nonzero"></path>
                <ellipse id="Oval" fill="#B3AFAB" fill-rule="nonzero" transform="translate(72.427802, 39.269932) rotate(-89.150000) translate(-72.427802, -39.269932) " cx="72.427802" cy="39.2699322" rx="3.37688442" ry="3.2361809"></ellipse>
                <polygon id="Path" fill="#C88D61" fill-rule="nonzero" points="85.6180905 60.6432161 97.9296482 60.5728643 97.8592965 40.6633166 85.6180905 40.6633166"></polygon>
                <polygon id="Path" fill="url(#radialGradient-3)" fill-rule="nonzero" points="85.6180905 60.6432161 97.9296482 60.5728643 97.8592965 40.6633166 85.6180905 40.6633166"></polygon>
                <ellipse id="Oval" fill="#BF8F68" fill-rule="nonzero" cx="87.798995" cy="28.8442211" rx="17.0954774" ry="20.6834171"></ellipse>
                <ellipse id="Oval" fill="#3C312D" fill-rule="nonzero" transform="translate(94.723639, 28.539360) rotate(-89.150000) translate(-94.723639, -28.539360) " cx="94.7236391" cy="28.5393601" rx="2.67336683" ry="1.61809045"></ellipse>
                <path d="M86.7437186,17.6582915 L86.321608,24.5527638 C86.0651318,27.3144102 84.8152484,29.88917 82.8040201,31.798995 C81.863183,32.8090454 81.7745276,34.3457394 82.5929648,35.4572864 C83.0854271,36.0201005 85.2663317,37.3567839 85.2663317,38.9748744 L85.0552764,45.3065327 L74.9246231,41.4371859 L72.9547739,19.0653266 L86.7437186,17.6582915 Z" id="Path" fill="url(#radialGradient-4)" fill-rule="nonzero"></path>
                <path d="M84.4924623,40.241206 C85.053079,40.3115394 85.6202878,40.3115394 86.1809045,40.241206 C86.7264973,40.1876382 87.2673518,40.0935766 87.798995,39.959799 C88.2914573,39.8190955 88.9246231,39.678392 89.4170854,39.5376884 C89.5577889,39.4673367 89.6984925,39.4673367 89.7688442,39.3969849 C89.839196,39.3266332 89.9798995,39.3266332 90.120603,39.2562814 C90.3743194,39.1822008 90.6126263,39.0630474 90.8241206,38.9045226 L91.1055276,38.7638191 C91.3251216,38.6099062 91.6242774,38.6398218 91.8090452,38.8341709 L91.8090452,38.9045226 C91.879397,38.9748744 91.879397,38.9748744 91.879397,39.0452261 C91.9649873,39.5554916 91.8651683,40.0795416 91.5979899,40.5226131 C91.3715563,40.9353457 91.0597761,41.2950921 90.6834171,41.5778894 C90.0220017,42.1375345 89.2183627,42.5028249 88.361809,42.6331658 C87.5249027,42.8209973 86.6543345,42.7968148 85.8291457,42.5628141 C84.909986,42.3409656 84.1367972,41.7224146 83.718593,40.8743719 C83.6560262,40.7445644 83.6508723,40.594443 83.7043894,40.4606502 C83.7579065,40.3268575 83.8651707,40.2217033 84,40.1708543 L84.281407,40.1708543 L84.4924623,40.241206 Z" id="Path" fill="#9B643D" fill-rule="nonzero"></path>
                <path d="M70.6331658,11.8894472 C70.6331658,11.8894472 74.2914573,13.718593 78.8643216,11.1155779 C82.7336683,8.86432161 85.8994975,12.4522613 87.7286432,15.1959799 C91.6683417,20.9648241 98.3517588,26.1005025 104.894472,25.2562814 C109.537688,24.6231156 110.80402,9.35678392 97.0150754,4.4321608 C82.6633166,-0.773869347 70.6331658,11.8894472 70.6331658,11.8894472 Z" id="Path" fill="#594539" fill-rule="nonzero"></path>
                <path d="M104.894472,35.4572864 L98.3517588,35.4572864 L98.3517588,25.3265888 L104.894472,25.3265888 C106.239602,25.3209931 107.531267,25.8528486 108.482425,26.804007 C109.433584,27.7551653 109.965439,29.0468306 109.959843,30.3919598 L109.959843,30.3919598 C109.948235,33.1846584 107.687171,35.4457223 104.894472,35.4572864 L104.894472,35.4572864 Z" id="Path" fill="#BF8F68" fill-rule="nonzero"></path>
                <ellipse id="Oval" fill="#B3AFAB" fill-rule="nonzero" transform="translate(105.320045, 38.295227) rotate(-89.150000) translate(-105.320045, -38.295227) " cx="105.320045" cy="38.2952271" rx="3.37688442" ry="3.2361809"></ellipse>
                <ellipse id="Oval" fill="#3C312D" fill-rule="nonzero" transform="translate(79.567730, 28.561211) rotate(-0.850000) translate(-79.567730, -28.561211) " cx="79.5677304" cy="28.5612112" rx="1.61809045" ry="2.67336683"></ellipse>
                <path d="M106.864322,59.3065327 C117.135678,63.0351759 126.844221,79.5678392 131.557789,99.3366834 C145.633325,77.1543286 140.528617,47.9056248 119.771221,31.8025797 C99.0138242,15.6995346 69.4142589,18.0255718 51.4269918,37.1733078 C33.4397246,56.3210438 32.966394,86.0080893 50.3340901,105.719525 C67.7017862,125.430961 97.2121524,128.699448 118.472362,113.266332 C114.954774,100.251256 112.773869,100.884422 108.130653,89.4874372 C102.994975,76.7537688 99.4070352,56.5628141 106.864322,59.3065327 Z" id="Path"></path>
                <path d="M115.798995,27.8592965 C112.84733,26.0142149 109.711476,24.4816549 106.442211,23.2864322 C105.808231,23.2981255 105.174091,23.2746388 104.542714,23.2160804 C108.525079,24.5224636 112.329751,26.318458 115.869347,28.5628141 C115.869347,28.3517588 115.798995,28.1407035 115.798995,27.8592965 Z" id="Path" fill="#594539" fill-rule="nonzero"></path>
                <path d="M139.648309,71.758794 C139.666544,54.2506437 130.685186,37.9619685 115.869347,28.6331658 C117.628141,44.7437186 122.060302,71.758794 132.894472,97.0854271 C137.3332,89.3837993 139.662759,80.6479538 139.648309,71.758794 Z" id="Path"></path>
                <path d="M45.5879397,98.4924623 C52.4120603,81.4673367 63.7386935,44.6030151 64.0904523,27.5778894 C64.5125628,25.3266332 89.5577889,23.0753769 104.472362,23.2864322 C83.7596754,16.4487821 60.9898543,23.5013827 47.7683724,40.8496177 C34.5468905,58.1978526 33.7843256,82.0226804 45.8693467,100.180905 C45.6549057,99.6879891 45.5127363,99.1667015 45.4472362,98.6331658 L45.5879397,98.4924623 Z" id="Path"></path>
                <path d="M113.688442,101.376884 C114.603015,90.7537688 119.246231,85.758794 119.175879,80.4824121 C119.035176,66.6934673 108.130653,60.080402 108.130653,60.0100503 C107.708543,59.798995 107.21608,59.5175879 106.79397,59.3065327 C105.416284,59.8023251 104.005863,60.2019444 102.572864,60.5025126 C101.447236,60.7839196 100.180905,61.0653266 98.9145729,61.3467337 C96.63467,61.7472953 94.3320727,62.0057501 92.0201005,62.120603 C89.6982693,62.2495868 87.3700038,62.2025511 85.0552764,61.9798995 L85.0552764,61.9798995 C82.1708543,61.7688442 76.7537688,59.8693467 76.5427136,59.798995 C69.6482412,63.5276382 67.6080402,69.5075377 66.7638191,75.9798995 C66.2713568,79.4974874 66.201005,83.718593 67.8894472,90.0502513 C68.8743719,94.6934673 68.1005025,112.703518 67.5376884,118.331658 C82.9197599,125.27358 100.733929,124.19473 115.165829,115.447236 C114.462312,111.015075 113.407035,104.894472 113.688442,101.376884 Z" id="Path"></path>
                <path d="M85.0552764,62.0502513 C87.371913,62.2377555 89.6977813,62.2847427 92.0201005,62.1909548 C94.3347614,62.1109829 96.6397812,61.8522562 98.9145729,61.4170854 C100.151595,61.2182389 101.373799,60.9361919 102.572864,60.5728643 C104.005863,60.2722961 105.416284,59.8726768 106.79397,59.3768844 C102.01005,56.9849246 98.5628141,56.5628141 93.5678392,56.281407 C87.9619192,55.9347324 82.3620583,57.0498562 77.3165829,59.5175879 C77.2462312,59.5175879 77.2462312,59.5879397 77.1758794,59.5879397 C76.9648241,59.7286432 76.7537688,59.798995 76.5427136,59.9396985 C76.7537688,59.9396985 82.1708543,61.7688442 85.0552764,62.0502513 Z" id="Path" fill="#C88D61" fill-rule="nonzero"></path>
                <path d="M85.6180905,51.5678392 C85.6180905,51.5678392 86.321608,55.718593 81.0452261,57.8291457 L89.4170854,58.321608 L85.6180905,51.5678392 Z" id="Path" fill="#C88D61" fill-rule="nonzero"></path>
            </g>
        </g>
    </g>
</svg>