<svg xmlns="http://www.w3.org/2000/svg" preserveAspectRatio="xMinYMin meet" width="auto" height="auto" viewBox="0 0 99 21">
    <g fill="none" fill-rule="evenodd">
        <path fill="#737373" fill-rule="nonzero" d="M34.945 12.095l-.59 1.66h-.05a11.734 11.734 0 0 0-.573-1.627L30.57 4.233H27.47v12.583h2.049V9.051c0-.488 0-1.042-.017-1.725-.016-.342-.049-.603-.065-.798h.049c.098.488.213.846.295 1.074l3.803 9.182h1.442l3.77-9.263c.082-.212.164-.635.246-.993h.049c-.05.928-.082 1.758-.098 2.263v7.976h2.18V4.2H38.19l-3.245 7.895zm8.294-4.346h2.13v9.018h-2.13V7.75zm1.082-3.81c-.361 0-.656.13-.902.359-.246.228-.377.52-.377.879 0 .342.131.635.377.863.246.227.54.341.902.341.36 0 .672-.13.901-.341.246-.228.377-.521.377-.863 0-.342-.131-.635-.377-.88-.213-.227-.524-.357-.901-.357zm8.605 3.728a5.983 5.983 0 0 0-1.197-.13c-.967 0-1.852.212-2.59.635-.737.423-1.327 1.01-1.704 1.742-.394.749-.59 1.612-.59 2.605 0 .862.196 1.628.573 2.328.377.683.902 1.237 1.607 1.611.672.375 1.458.57 2.344.57 1.016 0 1.884-.212 2.573-.602l.016-.017v-1.953l-.082.065a3.672 3.672 0 0 1-1.032.537c-.377.13-.721.195-1.017.195-.852 0-1.524-.244-2-.78-.49-.522-.737-1.238-.737-2.133 0-.928.246-1.66.754-2.198.508-.537 1.18-.814 2-.814.688 0 1.393.228 2.032.684l.082.065V8.009l-.016-.016c-.279-.114-.59-.244-1.016-.326zm7.031-.065c-.524 0-1.016.163-1.442.505-.36.293-.607.716-.82 1.22h-.016V7.75h-2.13v9.018h2.13V12.16c0-.78.164-1.432.524-1.904.361-.489.82-.733 1.377-.733.197 0 .394.05.64.082.229.065.393.13.508.211l.082.065V7.765l-.05-.016c-.147-.098-.442-.147-.803-.147zm15.063 3.891c-.672-.277-1.098-.488-1.295-.667-.163-.163-.245-.391-.245-.684 0-.244.098-.489.344-.651.246-.163.524-.244.934-.244.36 0 .738.065 1.098.162.36.098.689.244.951.44l.082.065V7.928l-.05-.016a5.945 5.945 0 0 0-.966-.277 6.614 6.614 0 0 0-1.05-.098c-1.016 0-1.851.244-2.507.782-.656.504-.967 1.188-.967 1.986 0 .423.065.797.213 1.107.147.309.36.602.656.846.295.228.72.489 1.31.733.493.211.87.374 1.099.504.23.13.377.277.492.391a.92.92 0 0 1 .13.505c0 .602-.458.895-1.392.895-.361 0-.738-.065-1.18-.212a4.572 4.572 0 0 1-1.197-.602l-.082-.065v2.067l.05.017c.31.146.688.244 1.147.358.458.081.868.146 1.229.146 1.098 0 2-.244 2.639-.781.655-.521 1-1.188 1-2.051 0-.603-.164-1.14-.525-1.547a6.656 6.656 0 0 0-1.918-1.123zm19.67 2.637c0 1.905.9 2.865 2.704 2.865.295 0 .606-.048.901-.097.312-.065.541-.147.672-.212l.017-.016v-1.742l-.082.065a1.39 1.39 0 0 1-.443.195 1.51 1.51 0 0 1-.426.065c-.426 0-.721-.097-.934-.341-.197-.228-.295-.603-.295-1.156V8.953h.032V5.08l-.065.016-2.033.603-.049.016v8.416zm-3.213-7.52c0-.522.13-.929.36-1.19.23-.26.574-.39 1-.39.295 0 .607.065.95.212l.083.049V3.45l-.05-.016c-.295-.098-.688-.163-1.196-.163a3.86 3.86 0 0 0-1.705.39 2.833 2.833 0 0 0-1.163 1.157 3.313 3.313 0 0 0-.427 1.676v10.272h2.148V6.61zm-1.328 2.88h8.835V7.75H87.838v1.725h2.311v.017zM65.76 7.553c-1.492 0-2.688.44-3.524 1.303-.853.863-1.262 2.051-1.262 3.549 0 1.4.426 2.54 1.245 3.37.82.813 1.934 1.237 3.328 1.237 1.458 0 2.622-.44 3.458-1.319.852-.879 1.262-2.051 1.262-3.5 0-1.433-.393-2.572-1.196-3.402-.77-.83-1.902-1.238-3.311-1.238m1.704 6.935c-.393.505-1.016.75-1.786.75s-1.394-.245-1.836-.782c-.443-.505-.656-1.237-.656-2.165 0-.96.23-1.693.656-2.214.442-.521 1.049-.782 1.82-.782.753 0 1.343.245 1.77.75.426.504.655 1.236.655 2.197-.033.977-.213 1.742-.623 2.246M83.085 7.553c-1.492 0-2.688.44-3.524 1.303-.853.863-1.262 2.051-1.262 3.549 0 1.4.426 2.54 1.245 3.37.82.813 1.934 1.237 3.328 1.237 1.458 0 2.622-.44 3.458-1.319.852-.879 1.262-2.051 1.262-3.5 0-1.433-.393-2.572-1.196-3.402-.77-.83-1.902-1.238-3.311-1.238m1.704 6.935c-.393.505-1.016.75-1.786.75s-1.394-.245-1.836-.782c-.443-.505-.656-1.237-.656-2.165 0-.96.23-1.693.656-2.214.442-.521 1.049-.782 1.82-.782.753 0 1.343.245 1.77.75.426.504.655 1.236.655 2.197-.033.977-.213 1.742-.623 2.246"/>
        <path fill="#F25022" d="M0 0h10.048v9.98H0z"/>
        <path fill="#7FBA00" d="M11.097 0h10.047v9.98H11.097z"/>
        <path fill="#00A4EF" d="M0 11.02h10.048V21H0z"/>
        <path fill="#FFB900" d="M11.097 11.02h10.047V21H11.097z"/>
    </g>
</svg>
