<?xml version="1.0" encoding="UTF-8"?>
<svg viewBox="0 0 150 150" version="1.1" xmlns="http://www.w3.org/2000/svg" xmlns:xlink="http://www.w3.org/1999/xlink">
    <!-- Generator: Sketch 59.1 (86144) - https://sketch.com -->
    <title>List / Important (Dark)</title>
    <desc>Created with Sketch.</desc>
    <g id="List-/-Important-(Dark)" stroke="none" stroke-width="1" fill="none" fill-rule="evenodd">
        <g id="Microsoft-To-Do_Empty-State_Important-Smartlist_Dark-Theme-2" transform="translate(5.000000, 11.000000)" fill-rule="nonzero">
            <g id="Microsoft-To-Do_Empty-State_Important-Smartlist_Dark-Theme">
                <path d="M23.1855556,102.643333 C50.5218519,110.93963 77.3992593,119.160741 103.817778,127.306667 C124.195556,92.7422222 136.235556,56.3966667 139.922222,21.2333333 C110.937037,14.1037037 81.6096296,7.02592593 51.94,0 C50.1666667,33.4444444 40.5844444,68.5533333 23.1855556,102.643333 Z" id="Path" fill="#B3AFAB"></path>
                <path d="M52.7022222,67.9544444 L51.8622222,67.7055556 C49.6232848,67.0745891 47.2898028,68.3448871 46.6044444,70.5677778 C46.5188889,70.8477778 46.4255556,71.1277778 46.3322222,71.4155556 C45.9667347,72.4526151 46.0366584,73.5934634 46.5260592,74.578126 C47.0154599,75.5627886 47.8826444,76.3073794 48.93,76.6422222 L49.7544444,76.8911111 C52.008886,77.5051822 54.3496571,76.2476584 55.0822222,74.0288889 L55.3622222,73.1888889 C55.7277596,72.1426044 55.6505543,70.9924691 55.1484582,70.0044264 C54.6463622,69.0163836 53.7628529,68.2759898 52.7022222,67.9544444 L52.7022222,67.9544444 Z" id="Path" fill="#797673"></path>
                <path d="M59.71,47.7244444 L58.8622222,47.4755556 C57.8185384,47.1360102 56.6799713,47.2532862 55.7274154,47.7984504 C54.7748594,48.3436146 54.0970146,49.2659026 53.8611111,50.3377778 C53.7988889,50.6177778 53.7288889,50.8977778 53.6666667,51.1777778 C53.1554083,53.4541648 54.4895364,55.7388169 56.7233333,56.4122222 L57.5633333,56.6611111 C58.616901,56.9843789 59.7569733,56.8610721 60.717058,56.3200136 C61.6771428,55.7789551 62.3730901,54.8675679 62.6422222,53.7988889 L62.8522222,52.9511111 C63.3474028,50.6527997 61.9720725,48.3651215 59.71,47.7244444 Z" id="Path" fill="#797673"></path>
                <path d="M62.0666667,24.4844444 L61.1955556,24.2355556 C58.8622222,23.59 56.7777778,24.8577778 56.5288889,27.0666667 L56.3733333,27.8755556 C56.1764611,30.2440614 57.6866123,32.4195924 59.9744444,33.0633333 L60.8377778,33.3122222 C61.8515002,33.6721899 62.9727449,33.5632543 63.8982166,33.0148822 C64.8236884,32.4665101 65.4577501,31.5353698 65.6288889,30.4733333 L65.7455556,29.6333333 C65.9178424,27.2554316 64.3720837,25.0920231 62.0666667,24.4844444 L62.0666667,24.4844444 Z" id="Path" fill="#797673"></path>
                <path d="M93.0222222,82.9655556 C83.6266667,80.1603704 74.1792593,77.3525926 64.68,74.5422222 C63.7182868,74.2769768 62.7179918,74.8148067 62.4088889,75.7633333 L62.4088889,75.7633333 C62.2429018,76.2072289 62.2693522,76.7002092 62.4818834,77.1237956 C62.6944146,77.5473821 63.0738099,77.863275 63.5288889,77.9955556 C72.9762963,80.8007407 82.3796296,83.6059259 91.7388889,86.4111111 C92.7145597,86.6612262 93.7215848,86.1342164 94.0722222,85.19 L94.0722222,85.19 C94.2607991,84.758005 94.2535533,84.265604 94.052347,83.8393448 C93.8511407,83.4130855 93.4755938,83.094533 93.0222222,82.9655556 L93.0222222,82.9655556 Z" id="Path" fill="#797673"></path>
                <path d="M89.1955556,59.1422222 C83.5644444,57.5348148 77.922963,55.9274074 72.2711111,54.32 C71.8222191,54.1822088 71.3364267,54.234945 70.9275595,54.465852 C70.5186923,54.696759 70.2226829,55.085544 70.1088889,55.5411111 L70.1088889,55.5411111 C69.867527,56.5086223 70.4292111,57.4949944 71.3844444,57.7811111 L88.2,62.6111111 C88.6538796,62.7450982 89.1425492,62.6912634 89.5563762,62.4616845 C89.9702032,62.2321055 90.2745407,61.8460035 90.4011111,61.39 L90.4011111,61.39 C90.6748694,60.4378381 90.1401905,59.4409206 89.1955556,59.1422222 Z" id="Path" fill="#797673"></path>
                <path d="M105.668889,39.7755556 C95.6044444,36.8511111 85.4933333,33.9292593 75.3355556,31.01 C74.9035052,30.86209 74.4282849,30.9115013 74.0359054,31.1451318 C73.643526,31.3787623 73.3736278,31.7730094 73.2977778,32.2233333 L73.2977778,32.2233333 C73.1915633,33.2291877 73.8254691,34.1652663 74.7988889,34.44 C84.9151852,37.3644444 94.9822222,40.2914815 105,43.2211111 C105.440996,43.3685088 105.924093,43.3190303 106.326054,43.0852975 C106.728015,42.8515646 107.009972,42.4561782 107.1,42 L107.1,42 C107.251885,41.0037815 106.638447,40.0502862 105.668889,39.7755556 Z" id="Path" fill="#797673"></path>
                <path d="M5.19555556,84.2722222 C4.28290461,86.973005 2.58151631,89.3381515 0.311111111,91.0622222 C0.132298296,91.2030508 0.0241468609,91.4151387 0.0151692133,91.6425725 C0.00619156572,91.8700062 0.0972887511,92.0899592 0.264444444,92.2444444 C2.5324451,94.2155611 4.23449228,96.7552088 5.19555556,99.6022222 C5.3071991,99.9098213 5.59943365,100.114642 5.92666667,100.114642 C6.25389969,100.114642 6.54613423,99.9098213 6.65777778,99.6022222 C7.61228065,96.7578104 9.30609793,94.2184266 11.5655556,92.2444444 C11.7327112,92.0899592 11.8238084,91.8700062 11.8148308,91.6425725 C11.8058531,91.4151387 11.6977017,91.2030508 11.5188889,91.0622222 C9.24848369,89.3381515 7.54709539,86.973005 6.63444444,84.2722222 C6.51459757,83.9804644 6.23041383,83.7899744 5.915,83.7899744 C5.59958617,83.7899744 5.31540243,83.9804644 5.19555556,84.2722222 L5.19555556,84.2722222 Z" id="Path" fill="#605E5B"></path>
                <path d="M21.8166667,114.667778 C21.1451111,116.654026 19.8900868,118.391543 18.2155556,119.653333 C18.083994,119.759651 18.0075376,119.919738 18.0075376,120.088889 C18.0075376,120.258039 18.083994,120.418127 18.2155556,120.524444 C19.8846894,121.984587 21.1333154,123.864239 21.8322222,125.968889 C21.907681,126.203719 22.126122,126.362968 22.3727778,126.362968 C22.6194335,126.362968 22.8378745,126.203719 22.9133333,125.968889 C23.6169844,123.866554 24.8648398,121.988062 26.53,120.524444 C26.664254,120.419807 26.742751,120.259104 26.742751,120.088889 C26.742751,119.918674 26.664254,119.757971 26.53,119.653333 C24.8574594,118.383006 23.603298,116.641266 22.9288889,114.652222 C22.9245933,114.345091 22.6721317,114.099593 22.365,114.103833 C22.0578683,114.108184 21.8123711,114.360646 21.8166667,114.667778 L21.8166667,114.667778 Z" id="Path" fill="#605E5B"></path>
                <path d="M21.8166667,59.8577778 C21.1462107,61.8509871 19.8914303,63.5962973 18.2155556,64.8666667 C18.0842231,64.9714495 18.0077361,65.1303224 18.0077361,65.2983333 C18.0077361,65.4663443 18.0842231,65.6252171 18.2155556,65.73 C19.8846894,67.1901423 21.1333154,69.0697943 21.8322222,71.1744444 C21.907681,71.4092743 22.126122,71.5685234 22.3727778,71.5685234 C22.6194335,71.5685234 22.8378745,71.4092743 22.9133333,71.1744444 C23.6189901,69.0730909 24.8665217,67.1950863 26.53,65.73 C26.6640771,65.6269453 26.7426559,65.4674396 26.7426559,65.2983333 C26.7426559,65.129227 26.6640771,64.9697213 26.53,64.8666667 C24.8589502,63.5916002 23.605334,61.8479094 22.9288889,59.8577778 C22.9288889,59.6590984 22.8228947,59.4755111 22.6508333,59.3761714 C22.478772,59.2768317 22.2667836,59.2768317 22.0947222,59.3761714 C21.9226608,59.4755111 21.8166667,59.6590984 21.8166667,59.8577778 Z" id="Path" fill="#605E5B"></path>
                <path d="M119.723333,68.5766667 C120.641111,67.9466667 121.092222,67.4722222 121.061111,67.1844444 C121.03,66.8966667 120.586667,66.5311111 119.7,66.1344444 C118.988779,65.822183 118.255722,65.5622336 117.506667,65.3566667 C117.526861,64.5189442 117.45382,63.6815744 117.288889,62.86 C117.094444,61.7944444 116.83,61.2266667 116.511111,61.1333333 C116.192222,61.04 115.64,61.32 114.862222,62.0977778 C114.268255,62.6932191 113.74617,63.3562666 113.306667,64.0733333 C112.57049,63.8376597 111.81606,63.6633602 111.051111,63.5522222 C110.047778,63.4044444 109.441111,63.4511111 109.238889,63.7311111 C109.036667,64.0111111 109.161111,64.6488889 109.643333,65.6833333 C109.981236,66.4229115 110.392954,67.1264802 110.872222,67.7833333 C110.347891,68.4077538 109.898876,69.0917182 109.534444,69.8211111 C109.044444,70.7933333 108.927778,71.3766667 109.161111,71.68 C109.394444,71.9833333 110.055556,71.9833333 111.121111,71.7888889 C111.912474,71.6465263 112.692341,71.4463606 113.454444,71.19 C113.944853,71.8358731 114.494255,72.4347472 115.095556,72.9788889 C115.873333,73.7022222 116.425556,74.0211111 116.744444,73.9277778 C117.063333,73.8344444 117.304444,73.2433333 117.428889,72.17 C117.539664,71.3974561 117.570939,70.6155902 117.522222,69.8366667 C118.297394,69.4936562 119.03502,69.0714109 119.723333,68.5766667 L119.723333,68.5766667 Z" id="Path" fill="#798AC4"></path>
                <path d="M125.751111,45.4766667 C126.668889,44.8466667 127.127778,44.38 127.096667,44.0844444 C127.065556,43.7888889 126.622222,43.4311111 125.735556,43.0344444 C125.025661,42.7188478 124.292349,42.4588082 123.542222,42.2566667 C123.558846,41.4164845 123.485841,40.5769244 123.324444,39.7522222 C123.122222,38.6866667 122.857778,38.1188889 122.546667,38.0255556 C122.235556,37.9322222 121.667778,38.2511111 120.905556,39.0288889 C120.314644,39.6241916 119.792822,40.2842968 119.35,40.9966667 C118.614281,40.7593338 117.85971,40.5850019 117.094444,40.4755556 C116.091111,40.3277778 115.492222,40.3744444 115.29,40.6544444 C115.087778,40.9344444 115.212222,41.5722222 115.694444,42.6066667 C116.034044,43.347816 116.445651,44.0538009 116.923333,44.7144444 C116.3972,45.3391442 115.945637,46.0230134 115.577778,46.7522222 C115.095556,47.7166667 114.971111,48.3077778 115.204444,48.6033333 C115.437778,48.8988889 116.098889,48.9066667 117.164444,48.7122222 C117.955903,48.5702992 118.735802,48.3701253 119.497778,48.1133333 C119.983394,48.7607951 120.530375,49.3598695 121.131111,49.9022222 C121.908889,50.6255556 122.461111,50.9444444 122.787778,50.8511111 C123.114444,50.7577778 123.347778,50.1666667 123.472222,49.0933333 C123.579258,48.320452 123.610518,47.5389612 123.565556,46.76 C124.336461,46.4088898 125.068893,45.9788137 125.751111,45.4766667 L125.751111,45.4766667 Z" id="Path" fill="#798AC4"></path>
                <path d="M111.673333,89.32 C112.591111,88.69 113.05,88.2233333 113.018889,87.9277778 C112.987778,87.6322222 112.544444,87.2744444 111.65,86.8777778 C110.942787,86.5621514 110.212057,86.3021052 109.464444,86.1 C109.478331,85.2595469 109.40272,84.420003 109.238889,83.5955556 C109.044444,82.53 108.78,81.9622222 108.461111,81.8688889 C108.142222,81.7755556 107.582222,82.0944444 106.82,82.8722222 C106.229088,83.4675249 105.707266,84.1276302 105.264444,84.84 C104.528268,84.6043263 103.773838,84.4300269 103.008889,84.3188889 C102.005556,84.1711111 101.398889,84.2177778 101.196667,84.4977778 C100.994444,84.7777778 101.118889,85.4155556 101.601111,86.45 C101.943821,87.1895305 102.355259,87.8952244 102.83,88.5577778 C102.306528,89.1828373 101.857582,89.866697 101.492222,90.5955556 C101.01,91.56 100.885556,92.1511111 101.118889,92.4466667 C101.352222,92.7422222 102.013333,92.75 103.078889,92.5555556 C103.870451,92.4141071 104.650384,92.2139242 105.412222,91.9566667 C105.900592,92.6042397 106.450164,93.2032986 107.053333,93.7455556 C107.831111,94.4688889 108.383333,94.7877778 108.71,94.6944444 C109.036667,94.6011111 109.262222,94.01 109.386667,92.9366667 C109.49855,92.1511981 109.532419,91.3565845 109.487778,90.5644444 C110.257742,90.2270652 110.990256,89.8099755 111.673333,89.32 L111.673333,89.32 Z" id="Path" fill="#798AC4"></path>
            </g>
        </g>
    </g>
</svg>