<?xml version="1.0" encoding="UTF-8"?>
<svg viewBox="0 0 150 150" version="1.1" xmlns="http://www.w3.org/2000/svg" xmlns:xlink="http://www.w3.org/1999/xlink">
    <!-- Generator: Sketch 59.1 (86144) - https://sketch.com -->
    <title>List / Important</title>
    <desc>Created with Sketch.</desc>
    <g id="List-/-Important" stroke="none" stroke-width="1" fill="none" fill-rule="evenodd">
        <g id="Group" transform="translate(5.000000, 11.100000)" fill-rule="nonzero">
            <path d="M21.6,106 C49.3,114.4 76.6,122.8 103.4,131 C124.1,95.9 136.3,59.1 140,23.4 C110.6,16.2 82.2,11.1 52.1,4 C50.3,37.9 39.2,71.4 21.6,106 Z" id="Path-Copy" fill="#C9C6C5"></path>
            <path d="M21.6,102 C49.3,110.4 76.6,118.8 103.4,127 C124.1,91.9 136.3,55.1 140,19.4 C110.6,12.2 82.2,7.1 52.1,0 C50.3,33.9 39.2,67.4 21.6,102 Z" id="Path" fill="#F3F2F1"></path>
            <g id="Paper-list" transform="translate(44.000000, 22.900000)">
                <path d="M7.1,43.8 L7.1,43.8 C4.6,43.1 2,44.5 1.2,47 C1.2,47 1.2,47 1.2,47 C0.4,49.5 1.7,52.1 4.1,52.9 L4.1,52.9 C6.5,53.6 9.2,52.2 10.1,49.7 C10.1,49.7 10.1,49.7 10.1,49.7 C10.9,47.2 9.6,44.5 7.1,43.8 Z" id="Path" fill="#FFFFFF"></path>
                <path d="M14.2,21.9 C14.2,21.9 14.2,21.9 14.2,21.9 C11.7,21.2 9.2,22.6 8.6,25.1 C8.6,25.1 8.6,25.1 8.6,25.1 C8,27.6 9.5,30.2 12,31 C12,31 12,31 12,31 C14.5,31.7 17.1,30.3 17.7,27.8 C17.7,27.8 17.7,27.8 17.7,27.8 C18.3,25.2 16.7,22.6 14.2,21.9 Z" id="Path" fill="#FFFFFF"></path>
                <path d="M18.6,0.7 C18.6,0.7 18.6,0.7 18.6,0.7 C16,0 13.7,1.4 13.3,3.9 L13.3,3.9 C13,6.4 14.8,9 17.3,9.7 C17.3,9.7 17.3,9.7 17.3,9.7 C19.9,10.4 22.3,9 22.7,6.5 C22.7,6.5 22.7,6.5 22.7,6.5 C23,4 21.2,1.4 18.6,0.7 Z" id="Path" fill="#FFFFFF"></path>
                <path d="M48.4,59.2 C38.9,56.4 29.3,53.5 19.6,50.7 C18.7,50.4 17.6,51 17.3,51.9 L17.3,51.9 C17,52.9 17.5,53.9 18.4,54.2 C28,57 37.5,59.9 47,62.7 C47.9,63 49,62.4 49.4,61.5 C49.4,61.5 49.4,61.5 49.4,61.5 C49.8,60.5 49.4,59.4 48.4,59.2 Z" id="Path" fill="#C9C6C5"></path>
                <path d="M44.5,34.3 C38.8,32.7 33.1,31 27.4,29.4 C26.4,29.1 25.4,29.7 25.2,30.6 C25.2,30.6 25.2,30.6 25.2,30.6 C25,31.6 25.5,32.6 26.5,32.9 C32.2,34.5 37.9,36.2 43.6,37.8 C44.6,38.1 45.6,37.5 45.8,36.6 L45.8,36.6 C46,35.6 45.5,34.6 44.5,34.3 Z" id="Path" fill="#C9C6C5"></path>
                <path d="M61.2,15.3 C51,12.3 40.7,9.4 30.4,6.4 C29.4,6.1 28.5,6.7 28.3,7.6 L28.3,7.6 C28.2,8.6 28.8,9.6 29.8,9.9 C40.1,12.9 50.3,15.8 60.5,18.8 C61.5,19.1 62.4,18.5 62.6,17.6 C62.6,17.6 62.6,17.6 62.6,17.6 C62.9,16.6 62.2,15.6 61.2,15.3 Z" id="Path" fill="#C9C6C5"></path>
            </g>
            <path d="M19.7,109.5 C19.1,111.3 17.9,112.9 16.5,114 C16.2,114.2 16.2,114.6 16.5,114.8 C18,116.1 19.1,117.8 19.8,119.7 C20,120.2 20.6,120.2 20.8,119.7 C21.4,117.8 22.6,116.1 24.1,114.8 C24.3,114.6 24.3,114.2 24.1,114 C22.6,112.9 21.5,111.3 20.8,109.5 C20.5,109 19.8,109 19.7,109.5 Z" id="Sparkle-3" fill="#FED591"></path>
            <path d="M4.7,82.1 C3.9,84.6 2.3,86.7 0.3,88.2 C-0.1,88.5 -0.1,89 0.3,89.3 C2.3,91.1 3.9,93.3 4.7,95.9 C4.9,96.6 5.8,96.6 6,95.9 C6.9,93.3 8.4,91 10.4,89.3 C10.7,89 10.7,88.5 10.4,88.2 C8.4,86.7 6.8,84.5 6,82.1 C5.8,81.4 4.9,81.4 4.7,82.1 Z" id="Sparkle-2" fill="#FED591"></path>
            <path d="M19.7,60 C19.1,61.8 17.9,63.4 16.5,64.5 C16.2,64.7 16.2,65.1 16.5,65.3 C18,66.6 19.1,68.3 19.8,70.2 C20,70.7 20.6,70.7 20.8,70.2 C21.4,68.3 22.6,66.6 24.1,65.3 C24.3,65.1 24.3,64.7 24.1,64.5 C22.6,63.4 21.5,61.8 20.8,60 C20.5,59.6 19.8,59.6 19.7,60 Z" id="Sparkle-1" fill="#FED591"></path>
            <path d="M109.6,87.9 C110.5,87.3 111,86.8 110.9,86.5 C110.9,86.2 110.4,85.9 109.5,85.5 C108.8,85.2 108.1,84.9 107.3,84.7 C107.3,83.9 107.3,83.1 107.1,82.2 C106.9,81.1 106.6,80.6 106.3,80.5 C106,80.4 105.4,80.7 104.7,81.5 C104,82.2 103.5,82.8 103.1,83.5 C102.3,83.2 101.5,83.1 100.9,83 C99.9,82.9 99.3,82.9 99.1,83.2 C98.9,83.5 99,84.1 99.5,85.1 C99.9,85.9 100.3,86.6 100.7,87.2 C100.2,87.8 99.8,88.4 99.4,89.2 C98.9,90.2 98.8,90.8 99,91 C99.2,91.3 99.9,91.3 101,91.1 C101.8,91 102.6,90.7 103.3,90.5 C103.8,91.1 104.3,91.7 104.9,92.3 C105.7,93 106.2,93.3 106.5,93.2 C106.8,93.1 107.1,92.5 107.2,91.4 C107.3,90.5 107.3,89.7 107.3,89 C108.1,88.9 108.8,88.5 109.6,87.9 Z" id="Star-3" fill="#7988C3"></path>
            <path d="M116.2,65.9 C117.1,65.3 117.6,64.8 117.5,64.5 C117.5,64.2 117,63.9 116.1,63.5 C115.4,63.2 114.7,62.9 113.9,62.7 C113.9,61.9 113.9,61.1 113.7,60.2 C113.5,59.1 113.2,58.6 112.9,58.5 C112.6,58.4 112,58.7 111.3,59.5 C110.6,60.2 110.1,60.8 109.7,61.5 C108.9,61.2 108.1,61.1 107.5,61 C106.5,60.9 105.9,60.9 105.7,61.2 C105.5,61.5 105.6,62.1 106.1,63.1 C106.5,63.9 106.9,64.6 107.3,65.2 C106.8,65.8 106.4,66.4 106,67.2 C105.5,68.2 105.4,68.8 105.6,69 C105.8,69.3 106.5,69.3 107.6,69.1 C108.4,69 109.2,68.7 109.9,68.5 C110.4,69.1 110.9,69.7 111.5,70.3 C112.3,71 112.8,71.3 113.1,71.2 C113.4,71.1 113.7,70.5 113.8,69.4 C113.9,68.5 113.9,67.7 113.9,67 C114.7,66.8 115.4,66.4 116.2,65.9 Z" id="Star-2" fill="#7988C3"></path>
            <path d="M123.7,42.9 C124.6,42.3 125.1,41.8 125,41.5 C125,41.2 124.5,40.9 123.6,40.5 C122.9,40.2 122.2,39.9 121.4,39.7 C121.4,38.9 121.4,38.1 121.2,37.2 C121,36.1 120.7,35.6 120.4,35.5 C120.1,35.4 119.5,35.7 118.8,36.5 C118.1,37.2 117.6,37.8 117.2,38.5 C116.4,38.2 115.6,38.1 115,38 C114,37.9 113.4,37.9 113.2,38.2 C113,38.5 113.1,39.1 113.6,40.1 C114,40.9 114.4,41.6 114.8,42.2 C114.3,42.8 113.9,43.4 113.5,44.2 C113,45.2 112.9,45.8 113.1,46 C113.3,46.3 114,46.3 115.1,46.1 C115.9,46 116.7,45.7 117.4,45.5 C117.9,46.1 118.4,46.7 119,47.3 C119.8,48 120.3,48.3 120.6,48.2 C120.9,48.1 121.2,47.5 121.3,46.4 C121.4,45.5 121.4,44.7 121.4,44 C122.2,43.8 122.9,43.4 123.7,42.9 Z" id="Star-1" fill="#7988C3"></path>
        </g>
    </g>
</svg>