<svg xmlns="http://www.w3.org/2000/svg" xmlns:xlink="http://www.w3.org/1999/xlink" viewBox="0 0 150 150"><defs><radialGradient id="a" cx="65.01" cy="143.52" r="0.71" gradientTransform="translate(7710.58 -324.67) rotate(111.09) scale(48.34)" gradientUnits="userSpaceOnUse"><stop offset="0" stop-color="#e1dfdd"/><stop offset="1" stop-color="#f3f2f1"/></radialGradient><radialGradient id="b" cx="46.78" cy="92.69" r="42.17" gradientTransform="translate(0 2)" gradientUnits="userSpaceOnUse"><stop offset="0" stop-color="#dfdddb"/><stop offset="1" stop-color="#f1f0ef"/></radialGradient><radialGradient id="c" cx="61.83" cy="131.1" r="22.95" gradientTransform="translate(0 2)" gradientUnits="userSpaceOnUse"><stop offset="0.3" stop-color="#c74c5b"/><stop offset="1" stop-color="#e2646a"/></radialGradient><radialGradient id="d" cx="940.79" cy="-87.35" r="12.86" gradientTransform="matrix(-1, 0.03, 0.03, 1, 989.63, 130.9)" gradientUnits="userSpaceOnUse"><stop offset="0" stop-color="#9b643d"/><stop offset="0.88" stop-color="#ba8a63"/><stop offset="1" stop-color="#bf8f68"/></radialGradient><radialGradient id="e" cx="21.81" cy="131.78" r="24.92" gradientTransform="translate(0 2)" gradientUnits="userSpaceOnUse"><stop offset="0.09" stop-color="#c74c5b"/><stop offset="0.92" stop-color="#e2646a"/></radialGradient><radialGradient id="f" cx="96.82" cy="145.45" r="0.53" gradientTransform="translate(-1562.52 -1726.52) rotate(-8.34) scale(13.8)" gradientUnits="userSpaceOnUse"><stop offset="0" stop-color="#9b643d"/><stop offset="0.24" stop-color="#a7724b"/><stop offset="0.7" stop-color="#b88760"/><stop offset="1" stop-color="#bf8f68"/></radialGradient><radialGradient id="g" cx="25.15" cy="53.2" r="0" gradientTransform="matrix(1, 0, 0, -1, 0, 150)" xlink:href="#b"/><radialGradient id="h" cx="25.15" cy="94.8" r="0" gradientTransform="translate(0 2)" gradientUnits="userSpaceOnUse"><stop offset="0" stop-color="#c74c5b"/><stop offset="0.09" stop-color="#cb4f5d"/><stop offset="0.61" stop-color="#dc5f67"/><stop offset="1" stop-color="#e2646a"/></radialGradient></defs><title>Attention Reshare List_07.11.19</title><path d="M116,95.61a3,3,0,0,0-1.1-.15c-.63.09-1.15.16-1.56.2a2.08,2.08,0,0,0-1.53-1.09,7.19,7.19,0,0,0-2.31.7,25.83,25.83,0,0,1-2.67,1.23c-.94.45-2.28,1.11-2.92,1.5s-1.37,1-2.92,1.92c0,0-1.78,1.15-4,2.43a19.58,19.58,0,0,0-1.94,1.33h0a18.1,18.1,0,0,1,2-1.05c2.18-1.27,11.47.2,11.72.24L115.88,97C116.49,96.59,116.55,96.12,116,95.61Z" fill="#bf8f68"/><path d="M137.25,116.75c-9.94-1.64-20.18-3.36-30.76-4.94a115.78,115.78,0,0,0,2.66-42.56q18.59,1.5,36.23,3.34A127.9,127.9,0,0,1,137.25,116.75Z" fill="url(#a)"/><path d="M116.27,93h0a1.77,1.77,0,0,0-1.86,1.62.08.08,0,0,0,0,.1h0a2,2,0,0,0,1.66,2.07h0a1.81,1.81,0,0,0,1.84-1.72v-.06h0A2,2,0,0,0,116.27,93Z" fill="#9b9a9a"/><path d="M116.88,85.77h0a1.89,1.89,0,0,0-2,1.6h0a1.9,1.9,0,0,0,1.6,2h0a1.81,1.81,0,0,0,2-1.6v0h0a1.64,1.64,0,0,0-1.21-2h-.33S116.91,85.71,116.88,85.77Z" fill="#9b9a9a"/><path d="M133.44,95.79c-4-.36-7.91-.69-11.79-1.08a.68.68,0,0,0-.75.62h0a.63.63,0,0,0,.51.74h.11c3.86.3,7.74.7,11.73,1.07a.66.66,0,0,0,.75-.54v-.1h0a.59.59,0,0,0-.45-.7h-.11Z" fill="#9b9a9a"/><path d="M133.44,81.21c-4-.36-7.91-.69-11.79-1.08a.68.68,0,0,0-.75.62h0a.63.63,0,0,0,.51.74h.11c3.86.3,7.74.7,11.73,1.07A.66.66,0,0,0,134,82v-.1h0a.59.59,0,0,0-.45-.7h-.11Z" fill="#9b9a9a"/><path d="M129.28,88.09l-7-.67a.74.74,0,0,0-.8.6h0a.7.7,0,0,0,.62.75c2.3.23,4.62.4,7,.66a.73.73,0,0,0,.81-.59h0a.68.68,0,0,0-.6-.75Z" fill="#9b9a9a"/><path d="M113.65,102.54H109c-.22,0-9.78-1.47-12-.2a16.07,16.07,0,0,0-1.92,1.34l3,5.13h0l.33-.39.16-.17q.28-.33.57-.6l.38-.35.24-.21a3,3,0,0,1,1.9-.65c1,0,2.09.26,2.91.27h.29a24,24,0,0,0,4.16-1,32.44,32.44,0,0,0,4.64-1.65c.6-.22.9-.52.9-.92S114.27,102.63,113.65,102.54Z" fill="#bf8f68"/><circle cx="46.78" cy="94.69" r="42.17" fill="url(#b)"/><path d="M95.06,103.68h0c-4.87,3.7-14,9.72-16.64,10.48S67.63,97.3,67.63,97.3c-4.82-6-6.26-5.18-6.26-5.18-3.54-3.6-11.42-3.48-14.23.8-2,3-.79,6.38,1.55,10,5.86,9,23.86,25.56,28.29,25.56,2.87,0,10.94-7.76,13-10.42,2.39-3.09,5.4-6,8.14-9.22Z" fill="url(#c)"/><path d="M40.89,84.87l-.44-11.72,11.19-.35L52,84.34c.16,2.6.43,3.53,3.18,4.75C58.6,90.6,52,91.31,46.8,91.47s-12.11-.83-9.42-1.92C39.69,88.6,41.23,88,40.89,84.87Z" fill="url(#d)"/><path d="M69.48,103.58C68.73,97.91,66.3,93.27,60,90.1h-.1c-.55-.28-1.11-.53-1.69-.77h0c-2.46-1-5.22-2.43-5.66-3.72h-12c-.44,1.29-3.69,2.63-6.94,5S28.9,93.82,26.07,96l-.19.15-.71.58h0c-3.45,3-4.57,6.66-3.11,13.3.93,4.29,2.86,7.3,4.11,12.72l.09.37a69.91,69.91,0,0,1,.19,8.44A42.2,42.2,0,0,0,68.13,131c-.13-6.49,0-13.72.45-16.08A26.87,26.87,0,0,0,69.48,103.58Z" fill="url(#e)"/><path d="M25.42,60.94C28,71.4,37.88,77.94,47.6,75.55s15.54-12.8,13-23.25S52.06,34.58,38.42,37.69,22.88,50.49,25.42,60.94Z" fill="#5a4539"/><path d="M29,46.75c-.55-10.73,11-15.42,19.21-14,7.2,1.21,12.29,7,13.27,1.78,0,0,6.32,4.17,6.29,10.54s-5.08,9.67-10.46,8.71c-3.58-.64-7.87-5.45-15-7.52C36.51,44.51,29,46.75,29,46.75Z" fill="#5a4539"/><path d="M31.41,64.84c2.35,10.3,10.4,17.25,18,15.52s11.81-11.49,9.42-21.79S48.67,42.27,41.1,44,29.05,54.53,31.41,64.84Z" fill="#bf8f68"/><path d="M45.88,54.16l1.5,5a8.57,8.57,0,0,0,3.81,4.74A2.2,2.2,0,0,1,52,66.55c-.3.49-1.69,1.86-1.41,3.06l1.22,4.62,6.8-4.57-2.3-16.77Z" fill="url(#f)"/><ellipse cx="40.14" cy="63.54" rx="1.22" ry="2.05" transform="translate(-12.33 9.73) rotate(-12)" fill="#3c312d"/><ellipse cx="51.69" cy="60.91" rx="1.22" ry="2.05" transform="translate(-11.53 12.08) rotate(-12)" fill="#3c312d"/><path d="M27.09,50.46s7.26-6.13,14.22-7.73,14.43,1.18,14.43,1.18l4,14.44L59,59.57,54.24,48.68a2,2,0,0,0-2.14-1.12l-17.48,4a2,2,0,0,0-1.44,1.93l.18,11.27-4.21,1.58Z" fill="#5a4539"/><path d="M33.06,64.56l5.59-1.28h0l1.85,8.1h0l-5.6,1.28a3.82,3.82,0,0,1-4.56-2.87L30.18,69A3.8,3.8,0,0,1,33.06,64.56Z" fill="#bf8f68"/><path d="M99.2,13.19c14,.79,24.71,11,24,22.76a18.76,18.76,0,0,1-4.14,10.66c-4.18,5.29-11.12,8.82-19,9.24-1.08,0-2.19.06-3.3,0a30.24,30.24,0,0,1-8.14-1.62,18.7,18.7,0,0,1-3.33,1.3c-.71.2-1.42.38-2.15.51-5,.91-4.91-.3-3.25-2.52.58-.78,1.36-1.67,2.18-2.64-6-4.24-9.75-10.73-9.35-17.8C73.41,21.3,85.27,12.4,99.2,13.19Z" fill="#436af2"/><path d="M98,39.57a2.34,2.34,0,1,1-2.59,2.33,2.37,2.37,0,0,1,2.41-2.34Z" fill="#fff"/><path d="M95.49,25.64a2.52,2.52,0,0,1,5,0l-.41,10a2.13,2.13,0,0,1-4.25,0Z" fill="#fff"/><path d="M52.17,71.56a3.2,3.2,0,0,1-1.29,1.55,3.92,3.92,0,0,1-4.07,0,3.06,3.06,0,0,1-1.32-1.54.46.46,0,0,1,.34-.53h0a.33.33,0,0,1,.24,0h0c.59.11,1.06.21,1.51.27a8.94,8.94,0,0,0,1.27.1,6.47,6.47,0,0,0,1.24-.09c.45-.07.92-.19,1.52-.32h0a.47.47,0,0,1,.55.36.53.53,0,0,1,0,.25Z" fill="#9b643d"/><path d="M117,78.63h0a1.92,1.92,0,0,0-2.12,1.61h0a1.7,1.7,0,0,0,1.37,2h.1a.07.07,0,0,0,.09,0h0a2,2,0,0,0,2.15-1.54h0a1.69,1.69,0,0,0-1.33-2h0A.19.19,0,0,0,117,78.63Z" fill="#9b9a9a"/><path d="M25.15,96.8" fill="url(#g)"/><path d="M25.15,96.8" fill="url(#h)"/><path d="M25.88,96.19l.19-.15c-.31.23-.6.48-.89.73Z" fill="#e2646a"/><rect width="150" height="150" fill="none"/><path d="M32,96.18c-1.25-2.65-3.7-1.84-5.94-.14l-.19.15-.71.58h0a22.63,22.63,0,0,0-2.61,2.75c-5.53,7-7.89,17.3-8.71,21.45a42.43,42.43,0,0,0,10.81,9.58,3.24,3.24,0,0,1,.12-.62c.3-1.34.62-4.33,1.38-7.14a12.1,12.1,0,0,1,2.36-4.94C32.11,114,34.83,102.29,32,96.18Z" fill="#e2646a"/></svg>