<svg xmlns="http://www.w3.org/2000/svg" xmlns:xlink="http://www.w3.org/1999/xlink" width="auto" height="auto" viewBox="0 0 168 168">
    <defs>
        <circle id="a" cx="84" cy="84" r="84"/>
        <radialGradient id="c" cx="63.239%" cy="66.253%" r="43.907%" fx="63.239%" fy="66.253%" gradientTransform="matrix(.99966 .01848 -.03965 1.07142 .026 -.059)">
            <stop offset="0%" stop-opacity=".25"/>
            <stop offset="100%" stop-opacity="0"/>
        </radialGradient>
        <linearGradient id="d" x1="56.01%" x2="79.945%" y1="73.69%" y2="32.736%">
            <stop offset="0%" stop-color="#BF8F67"/>
            <stop offset="100%" stop-color="#AA7D5F"/>
        </linearGradient>
        <radialGradient id="e" cx="22.411%" cy="59.657%" r="67.513%" fx="22.411%" fy="59.657%" gradientTransform="matrix(.90619 .2279 -.42288 .48836 .273 .254)">
            <stop offset="0%" stop-color="#9B643D"/>
            <stop offset="27%" stop-color="#A46E47" stop-opacity=".76"/>
            <stop offset="87%" stop-color="#BA8962" stop-opacity=".14"/>
            <stop offset="100%" stop-color="#BF8F68" stop-opacity="0"/>
        </radialGradient>
    </defs>
    <g fill="none" fill-rule="evenodd">
        <mask id="b" fill="#fff">
            <use xlink:href="#a"/>
        </mask>
        <use fill="#D8D8D8" opacity=".2" xlink:href="#a"/>
        <g font-family="Wundercon-Light, Wundercon" font-size="24" font-weight="300" mask="url(#b)">
            <text transform="rotate(-10 190.928 97.64)">
                <tspan x="138.422" y="113.856" fill="#445DF7">l</tspan>
            </text>
            <text transform="rotate(10 74.917 27.07)">
                <tspan x="102.422" y="31.856" fill="#F5A623">K</tspan>
            </text>
            <text transform="translate(1 7)">
                <tspan x="32" y="29" fill="#445DF7">N</tspan>
            </text>
            <text transform="rotate(10 93.917 66.07)">
                <tspan x="121.422" y="70.856" fill="#6CB100">H</tspan>
            </text>
            <text transform="rotate(-10 60.344 69.596)">
                <tspan x="2.339" y="85.811" fill="#DB3A29">P</tspan>
            </text>
        </g>
        <g mask="url(#b)">
            <g transform="translate(10 23)">
                <path fill="#3A312E" d="M43.557 15.951A24.5 24.5 0 0 1 61.289 4.245a24.517 24.517 0 0 1 20.376 6.667l.055.052a26.984 26.984 0 0 1 3.371 3.756c.035.038.067.079.096.121l.048.07c.177.268.36.512.535.765l.013.122a30.44 30.44 0 0 1 5.078 14.025l.14 1.333c.111 1.778.069 3.528-.115 5.236.316 10.47-.857 23.234 6.625 42.158 4 6.833 6.005 14.714 5.353 22.945-1.837 23.225-24.12 40.448-49.77 38.468-25.649-1.98-44.952-22.413-43.114-45.639.674-8.524 4.103-16.24 9.44-22.494 17.563-24.317 15.734-38.978 21.364-51.307a22.797 22.797 0 0 1 2.773-4.572z"/>
                <path d="M46.023 100.705h38.871v38.064h-38.87z"/>
                <path fill="#445DF7" d="M33.046 89.564c.8 5.318 2.951 9.114 4.01 15.978 1.713 11.123-.252 30.448-2.68 40.227h56.167c-2.902-12.44-5.373-35.446-2.247-46.754 2.103-6.356 2.243-9.913 2-13.563-.457-6.849-3.003-12.576-10.293-16.854-.044-.022-.077-.044-.12-.066-4.62-2.7-10.268-4.316-16.38-4.367a135.11 135.11 0 0 0-1.016-.004c-5.05 0-8.696.395-14.103 2.892-.033.011-17.452 8.462-15.338 22.511z"/>
                <path fill="url(#c)" d="M33.046 89.564c.8 5.318 2.951 9.114 4.01 15.978 1.713 11.123-.252 30.448-2.68 40.227h56.167c-2.902-12.44-5.373-35.446-2.247-46.754 2.103-6.356 2.243-9.913 2-13.563-.457-6.849-3.003-12.576-10.293-16.854-.044-.022-.077-.044-.12-.066-4.62-2.7-10.268-4.316-16.38-4.367a135.11 135.11 0 0 0-1.016-.004c-5.05 0-8.696.395-14.103 2.892-.033.011-17.452 8.462-15.338 22.511z"/>
                <path fill="#F3C77B" d="M59 97h26v58H59z"/>
                <path fill="#EBB75B" d="M85 97h41v58H85z"/>
                <path fill="#CC5040" d="M101 97h12v17l-6-1.778-6 1.778V97zm8.688 11.438l-1.063-3.188 2.688-1.937H108l-1-3.125-1 3.125h-3.313l2.688 1.937-1.063 3.188L107 106.5l2.688 1.938z"/>
                <path fill="url(#d)" d="M57.602 60.144c.163 3.838-1.714 4.367-4.563 5.317-3.3 1.1 4.923 2.824 11.115 3.03 6.191.204 14.177-.126 10.214-2.2-3.194-1.672-3.446-2.798-3.437-5.93l.458-13.824-13.398-.445-.39 14.052z"/>
                <path fill="#BF8F68" d="M49.964 66.412c4.703 2.55 10.92 4.12 18.09 4.181 4.77.04 8.048-1.4 9.878-3.11-5.137-2.873-8.655-4.01-14.436-4.059-5.295-.045-8.409.398-13.532 2.988"/>
                <ellipse cx="81.86" cy="44.7" fill="#F8C954" rx="3.86" ry="3.7"/>
                <path fill="#BF8F68" d="M51.966 34.274c2.013 12.502 11.106 21.437 20.308 19.955 9.203-1.482 15.032-12.818 13.018-25.321-2.013-12.503-10.92-20.284-20.123-18.802-9.202 1.482-15.215 11.666-13.203 24.168"/>
                <path fill="#BF8F68" d="M61.33 42.811l-6.374 1.027a4.98 4.98 0 0 1-1.583-9.832l6.374-1.027 1.583 9.832z"/>
                <ellipse cx="53.682" cy="46.787" fill="#F8C954" rx="3.86" ry="3.7"/>
                <path fill="url(#e)" d="M70.161 20.732l1.475 6.622c.634 3.465 2.946 6.203 4.495 7.702.76.735.81 1.927.157 2.757-1.06 1.35-2.348 3.376-2.141 5.05l.843 3.953 10.144-.747-3.616-27.036-11.357 1.699z"/>
                <path fill="#3A312E" d="M65.407 33.29c.196 1.34-.292 2.52-1.089 2.636-.797.117-1.601-.875-1.796-2.216-.196-1.34.293-2.52 1.09-2.636.797-.116 1.6.877 1.795 2.216M79.425 31.033c.196 1.34-.292 2.52-1.09 2.637-.796.115-1.6-.876-1.796-2.216-.195-1.34.292-2.52 1.09-2.637.796-.116 1.6.876 1.796 2.216"/>
                <path fill="#9B643D" d="M76.864 45.182c-.651 1.476-2.404 2.421-4.145 2.299a4.625 4.625 0 0 1-2.385-.825c-.678-.483-1.23-1.14-1.46-1.943a.556.556 0 0 1 .675-.69l.055.015c.695.184 1.249.34 1.786.449.533.11 1.022.178 1.507.216.484.034.967.032 1.5-.02.54-.04 1.112-.157 1.833-.265l.045-.007a.554.554 0 0 1 .59.771"/>
                <path fill="#3A312E" d="M77.553 11.944a17.547 17.547 0 0 1-11.379 11.259c-13.56 4.68-13.628 12.493-13.628 12.493s-6.914-9.544 2.668-21.135c9.873-11.902 22.34-2.617 22.34-2.617z"/>
            </g>
        </g>
        <path fill="#445DF7" d="M51.185 122.365c-7.96 7.48-12.401 13.957-19.878 30.416-.621 1.368-13.919-3.447-10.84-12.669 2.527-7.572 13.257-28.644 25.01-40.124 3.228-3.152 9.523-8.542 11.58-3.297 2.951 7.526-1.26 21.34-5.872 25.674"/>
        <path fill="#445DF7" d="M40.46 133.959c.802 1.003-3.495 4.879-.484 6.364 6.717 3.315 17.213 5.688 25.48 6.128l.318 4.938c-3.29.531-27.568 11.291-42.87-2.553-4.663-4.218 8.43-26.303 17.557-14.877"/>
        <path fill="#BF8F68" d="M64.33 146.83l1.437 4.5 6.708.803c1.468.196 3.113.219 4.933.07 1.526-.087 2.761-.267 3.708-.542.576-.197 1.706-.51 3.392-.94 1.448-.455 2.334-.834 2.656-1.132.507-.531.702-1.265.583-2.205.405-.278.932-.62 1.58-1.025.398-.314.694-.646.892-.996.088-.867-.322-1.264-1.232-1.19l-10.587.3 1.577-1.313c1.193-.944 2.094-1.71 2.703-2.3.5-.567.618-1.018.357-1.348-.307-.361-.82-.408-1.535-.144-2.143.642-3.985 1.335-5.527 2.08-1.055.49-2.473 1.095-4.252 1.814l-7.393 3.568z"/>
    </g>
</svg>
