<?xml version="1.0" encoding="UTF-8"?>
<svg width="auto" height="auto" viewBox="0 0 168 168" version="1.1" xmlns="http://www.w3.org/2000/svg" xmlns:xlink="http://www.w3.org/1999/xlink">
    <!-- Generator: Sketch 64 (93537) - https://sketch.com -->
    <title>ImportErrorIllustration</title>
    <desc>Created with Sketch.</desc>
    <g id="ImportErrorIllustration" stroke="none" stroke-width="1" fill="none" fill-rule="evenodd">
        <path d="M68.6804,92.15538 L99.5456,102.95358 C100.5002,103.28718 101.003,104.33178 100.6688,105.28578 L96.8708,116.14218 C93.8591137,124.751047 85.0266642,129.661417 76.3297828,128.004395 C76.0334228,129.044605 75.4012581,131.021073 74.37968,133.05498 C72.28508,137.22318 69.53768,139.60878 66.43328,139.95378 C61.97828,140.45118 59.04488,138.29478 56.45648,136.39278 C53.71628,134.37978 51.35108,132.63918 47.18648,133.66218 C45.34568,134.11278 44.00468,135.12978 43.08728,136.77138 C39.51128,143.16738 43.57088,155.99658 43.61228,156.12558 C43.92008,157.08138 43.39448,158.10498 42.43928,158.41278 C42.25388,158.47218 42.06608,158.50098 41.88128,158.50098 C41.11388,158.50098 40.40048,158.01078 40.15208,157.24038 C39.96248,156.65478 35.56628,142.78218 39.91028,135.00198 C41.32748,132.46398 43.48448,130.82538 46.32128,130.12998 C52.13228,128.70558 55.57388,131.23338 58.60928,133.46298 C60.95828,135.18798 62.98448,136.67238 66.03128,136.33998 C69.6593243,135.937051 72.0460364,129.892228 72.8477733,126.972339 C63.9306524,123.347453 59.3364194,113.321549 62.5502,104.13558 L66.3482,93.27918 C66.6824,92.32458 67.7264,91.82178 68.6804,92.15538 Z" id="Combined-Shape" fill="#8B8CC7"></path>
        <path d="M94.63634,85.82742 C95.07794,84.56382 96.46094,83.89782 97.72454,84.34002 L97.72454,84.34002 L97.8793406,84.4000464 C99.041716,84.8966627 99.635715,86.21727 99.21194,87.42822 L99.21194,87.42822 L94.40954,101.15622 L89.83334,99.55542 Z M78.62006,80.22408 C79.06166,78.96048 80.44466,78.29448 81.70826,78.73668 L81.70826,78.73668 L81.8630606,78.7967064 C83.025436,79.2933227 83.619435,80.61393 83.19566,81.82488 L83.19566,81.82488 L78.39326,95.55348 L73.81706,93.95208 Z" id="Combined-Shape" fill="#E2E2F6"></path>
        <path d="M131.28842,72.96258 L134.10542,83.66898 C134.19782,84.16698 134.74502,84.43338 135.19382,84.19878 L152.89382,74.95578 C153.67682,74.54598 154.40222,75.58878 153.74582,76.18158 L128.56562,98.90658 C128.12222,99.30618 127.41302,99.05598 127.31822,98.46738 L125.45402,86.88078 C125.37122,86.36898 124.80782,86.09178 124.35242,86.33898 L106.95122,95.78118 C106.15502,96.21318 105.41462,95.12778 106.10762,94.54398 L130.06382,72.52398 C130.50482,72.15198 131.18342,72.39498 131.28842,72.96258 Z M121.04498,10.73178 L117.76598,58.27638 C117.70838,59.11218 116.74718,59.55258 116.07698,59.04918 L102.88598,49.15638 C102.30278,48.71898 101.46278,48.98898 101.24318,49.68378 L92.86658,76.20918 C92.48318,77.42358 90.67598,77.04858 90.80678,75.78198 L93.53558,30.14418 C93.61898,29.33778 94.54178,28.92138 95.20178,29.39298 L108.49718,37.46658 C109.07618,37.87998 109.89038,37.61538 110.11538,36.94038 L118.98698,10.32438 C119.37998,9.14598 121.13078,9.49278 121.04498,10.73178 Z" id="Combined-Shape" fill="#F7C6C8"></path>
    </g>
</svg>