<svg xmlns="http://www.w3.org/2000/svg" width="auto" height="auto" viewBox="0 0 16 16">
    <g fill="none" fill-rule="nonzero">
        <rect width="16" height="16" fill="#FFF" rx="6"/>
        <path fill="#D64B32" d="M5.128 1.2c-1.445 0-1.973.102-2.516.392a2.435 2.435 0 0 0-1.02 1.02c-.29.543-.392 1.071-.392 2.516v5.744c0 1.445.102 1.973.392 2.516.237.443.577.783 1.02 1.02.543.29 1.071.392 2.516.392h5.744c1.445 0 1.973-.102 2.516-.392a2.435 2.435 0 0 0 1.02-1.02c.29-.543.392-1.071.392-2.516V5.128c0-1.445-.102-1.973-.392-2.516a2.435 2.435 0 0 0-1.02-1.02c-.543-.29-1.071-.392-2.516-.392H5.128zm0-1.2h5.744c1.783 0 2.43.186 3.082.534.652.349 1.163.86 1.512 1.512.348.652.534 1.299.534 3.082v5.744c0 1.783-.186 2.43-.534 3.082a3.635 3.635 0 0 1-1.512 1.512c-.652.348-1.299.534-3.082.534H5.128c-1.783 0-2.43-.186-3.082-.534a3.635 3.635 0 0 1-1.512-1.512C.186 13.302 0 12.655 0 10.872V5.128c0-1.783.186-2.43.534-3.082A3.635 3.635 0 0 1 2.046.534C2.698.186 3.345 0 5.128 0z"/>
        <path fill="#D64B32" d="M3.333.667h9.334v12.47a.2.2 0 0 1-.203.196.209.209 0 0 1-.065-.01L8 11.895l-4.4 1.428a.204.204 0 0 1-.256-.124.192.192 0 0 1-.01-.063V.666zM8 4l-.85 2.5H4.667l2.026 1.597-.72 2.57L8 9.139l2.092 1.528-.785-2.57L11.333 6.5H8.784L8 4z"/>
    </g>
</svg>
