<?xml version="1.0" encoding="UTF-8"?>
<svg viewBox="0 0 150 150" version="1.1" xmlns="http://www.w3.org/2000/svg" xmlns:xlink="http://www.w3.org/1999/xlink">
    <!-- Generator: Sketch 59.1 (86144) - https://sketch.com -->
    <title>List / Tasks</title>
    <desc>Created with Sketch.</desc>
    <defs>
        <linearGradient x1="12.224596%" y1="35.3150678%" x2="87.7373453%" y2="66.8077582%" id="linearGradient-1">
            <stop stop-color="#5C6FB2" offset="0%"></stop>
            <stop stop-color="#6A7BBA" offset="24.78%"></stop>
            <stop stop-color="#7585C1" offset="57.05%"></stop>
            <stop stop-color="#7988C3" offset="92.02%"></stop>
        </linearGradient>
    </defs>
    <g id="List-/-Tasks" stroke="none" stroke-width="1" fill="none" fill-rule="evenodd">
        <g id="Microsoft-To-Do_Empty-State_Tasks-Smartlist_Light-Theme" transform="translate(16.000000, 9.000000)" fill-rule="nonzero">
            <path d="M110.58,56.31 C109.591217,59.2256461 107.752286,61.7785553 105.3,63.64 C105.099734,63.7858526 104.97723,64.0153359 104.967483,64.262893 C104.957737,64.5104501 105.06182,64.7488543 105.25,64.91 C107.693559,67.0606007 109.522497,69.8212619 110.55,72.91 C110.655318,73.2610837 110.97846,73.5015152 111.345,73.5015152 C111.71154,73.5015152 112.034682,73.2610837 112.14,72.91 C113.167503,69.8212619 114.996441,67.0606007 117.44,64.91 C117.634005,64.7563645 117.747133,64.5224707 117.747133,64.275 C117.747133,64.0275293 117.634005,63.7936355 117.44,63.64 C114.969208,61.7857256 113.112321,59.2320713 112.11,56.31 C112.007116,55.9737074 111.696679,55.7440406 111.345,55.7440406 C110.993321,55.7440406 110.682884,55.9737074 110.58,56.31 Z" id="Path" fill="#FED591"></path>
            <path d="M43.13,114.31 C42.1414906,117.214946 40.31035,119.759744 37.87,121.62 C37.6759952,121.773636 37.5628668,122.007529 37.5628668,122.255 C37.5628668,122.502471 37.6759952,122.736364 37.87,122.89 C40.3080408,125.021136 42.1369383,127.761032 43.17,130.83 C43.2753184,131.181084 43.5984598,131.421515 43.965,131.421515 C44.3315402,131.421515 44.6546816,131.181084 44.76,130.83 C45.7930617,127.761032 47.6219592,125.021136 50.06,122.89 C50.2540048,122.736364 50.3671332,122.502471 50.3671332,122.255 C50.3671332,122.007529 50.2540048,121.773636 50.06,121.62 C47.5678332,119.779825 45.6864172,117.232945 44.66,114.31 C44.5571162,113.973707 44.2466786,113.744041 43.895,113.744041 C43.5433214,113.744041 43.2328838,113.973707 43.13,114.31 Z" id="Path" fill="#FED591"></path>
            <path d="M21.87,18.57 C20.8873139,21.4887821 19.0471922,24.043345 16.59,25.9 C16.3957152,26.0556222 16.2826402,26.2910726 16.2826402,26.54 C16.2826402,26.7889274 16.3957152,27.0243778 16.59,27.18 C19.0280408,29.311136 20.8569383,32.0510316 21.89,35.12 C21.9953184,35.4710837 22.3184598,35.7115152 22.685,35.7115152 C23.0515402,35.7115152 23.3746816,35.4710837 23.48,35.12 C24.5130617,32.0510316 26.3419592,29.311136 28.78,27.18 C28.9742848,27.0243778 29.0873598,26.7889274 29.0873598,26.54 C29.0873598,26.2910726 28.9742848,26.0556222 28.78,25.9 C26.3259379,24.0402878 24.4865774,21.4867816 23.5,18.57 C23.5,18.1198879 23.1351121,17.755 22.685,17.755 C22.2348879,17.755 21.87,18.1198879 21.87,18.57 L21.87,18.57 Z" id="Path" fill="#FED591"></path>
            <path d="M92.67,100.09 C94.87,98.57 95.99,97.44 95.87,96.73 C95.75,96.02 94.72,95.16 92.58,94.2 C90.8828692,93.4403082 89.1313221,92.8085479 87.34,92.31 C87.3744991,90.2969383 87.1968523,88.2858423 86.81,86.31 C86.33,83.66 85.69,82.31 84.87,82.05 C84.05,81.79 82.76,82.6 80.87,84.47 C79.4447068,85.9103603 78.186727,87.5071559 77.12,89.23 C75.34322,88.6654157 73.5240687,88.2440681 71.68,87.97 C69.26,87.61 67.8,87.72 67.31,88.4 C66.82,89.08 67.12,90.62 68.31,93.11 C69.1400869,94.8980911 70.1449774,96.5997056 71.31,98.19 C70.0463966,99.699353 68.9624609,101.350425 68.08,103.11 C66.91,105.44 66.61,106.91 67.18,107.58 C67.75,108.25 69.34,108.31 71.91,107.85 C73.8327494,107.505207 75.72778,107.020587 77.58,106.4 C78.7746402,107.962479 80.1138966,109.408876 81.58,110.72 C83.45,112.46 84.79,113.23 85.58,113 C86.37,112.77 86.93,111.36 87.23,108.76 C87.4988542,106.865922 87.5759112,104.949549 87.46,103.04 C89.2941161,102.239696 91.0401501,101.251059 92.67,100.09 Z" id="Path-Copy" fill="#D3A14D"></path>
            <path d="M91.67,98.09 C93.87,96.57 94.99,95.44 94.87,94.73 C94.75,94.02 93.72,93.16 91.58,92.2 C89.8828692,91.4403082 88.1313221,90.8085479 86.34,90.31 C86.3744991,88.2969383 86.1968523,86.2858423 85.81,84.31 C85.33,81.66 84.69,80.31 83.87,80.05 C83.05,79.79 81.76,80.6 79.87,82.47 C78.4447068,83.9103603 77.186727,85.5071559 76.12,87.23 C74.34322,86.6654157 72.5240687,86.2440681 70.68,85.97 C68.26,85.61 66.8,85.72 66.31,86.4 C65.82,87.08 66.12,88.62 67.31,91.11 C68.1400869,92.8980911 69.1449774,94.5997056 70.31,96.19 C69.0463966,97.699353 67.9624609,99.3504254 67.08,101.11 C65.91,103.44 65.61,104.91 66.18,105.58 C66.75,106.25 68.34,106.31 70.91,105.85 C72.8327494,105.505207 74.72778,105.020587 76.58,104.4 C77.7746402,105.962479 79.1138966,107.408876 80.58,108.72 C82.45,110.46 83.79,111.23 84.58,111 C85.37,110.77 85.93,109.36 86.23,106.76 C86.4988542,104.865922 86.5759112,102.949549 86.46,101.04 C88.2941161,100.239696 90.0401501,99.2510588 91.67,98.09 Z" id="Path" fill="#FED591"></path>
            <path d="M53,49.13 C47.9641145,44.2212876 45.1780075,37.4514093 45.3,30.42 C45.1764307,23.3853624 47.9625689,16.6117902 53,11.7 C57.9090612,6.65853073 64.6844603,3.87164115 71.72,4 C78.7525383,3.87201888 85.524701,6.65906607 90.43,11.7 C95.4741331,16.6080367 98.2645439,23.3831973 98.14,30.42 C98.2629666,37.4535751 95.4725868,44.2250415 90.43,49.13 C85.5264106,54.174609 78.7540282,56.9653662 71.72,56.84 C64.6831973,56.9645439 57.9080367,54.1741331 53,49.13 Z" id="Path" fill="#C9C6C5"></path>
            <path d="M50,46.13 C44.9641145,41.2212876 42.1780075,34.4514093 42.3,27.42 C42.1764307,20.3853624 44.9625689,13.6117902 50,8.7 C54.9090612,3.65853073 61.6844603,0.87164115 68.72,1 C75.7525383,0.872018879 82.524701,3.65906607 87.43,8.7 C92.4741331,13.6080367 95.2645439,20.3831973 95.14,27.42 C95.2629666,34.4535751 92.4725868,41.2250415 87.43,46.13 C82.5264106,51.174609 75.7540282,53.9653662 68.72,53.84 C61.6831973,53.9645439 54.9080367,51.1741331 50,46.13 Z M67.87,35.4 L79.57,23.56 C80.1099119,23.0366067 80.4070963,22.3117666 80.39,21.56 C80.3923128,20.7903606 80.0987408,20.0492704 79.57,19.49 C79.0410971,18.9080501 78.2862133,18.5834865 77.5,18.6 C76.7297545,18.5782359 75.9845836,18.8748573 75.44,19.42 L65.87,29.2 L61.97,25.31 C60.8165308,24.2304261 59.0234692,24.2304261 57.87,25.31 C56.7715781,26.467563 56.7715781,28.282437 57.87,29.44 L63.78,35.36 C64.304773,35.8978699 65.0286842,36.1946735 65.78,36.18 C66.547836,36.1800058 67.2899107,35.9030592 67.87,35.4 Z" id="Shape" fill="#F3F2F1"></path>
            <path d="M67.87,35.4 L79.57,23.56 C80.1099119,23.0366067 80.4070963,22.3117666 80.39,21.56 C80.3923128,20.7903606 80.0987408,20.0492704 79.57,19.49 C79.0410971,18.9080501 78.2862133,18.5834865 77.5,18.6 C76.7297545,18.5782359 75.9845836,18.8748573 75.44,19.42 L65.87,29.2 L61.97,25.31 C60.8165308,24.2304261 59.0234692,24.2304261 57.87,25.31 C56.7715781,26.467563 56.7715781,28.282437 57.87,29.44 L63.78,35.36 C64.304773,35.8978699 65.0286842,36.1946735 65.78,36.18 C66.547836,36.1800058 67.2899107,35.9030592 67.87,35.4 Z" id="Path" fill="url(#linearGradient-1)"></path>
            <path d="M8.36,81.24 C9.59729202,81.6953406 10.4352836,82.8550068 10.4792064,84.1726931 C10.5231293,85.4903795 9.76422319,86.7032756 8.56,87.24 L7.09,87.91 C6.31000117,88.269036 5.41651161,88.2907402 4.62,87.97 C3.80107222,87.6738468 3.14191118,87.0509034 2.8,86.25 C2.440964,85.4700012 2.4192598,84.5765116 2.74,83.78 C3.02723226,82.971289 3.63489878,82.3166006 4.42,81.97 L5.87,81.31 C6.65428436,80.941976 7.55627854,80.9166187 8.36,81.24 L8.36,81.24 Z M7.87,67.61 C8.72459469,67.8659791 9.42093339,68.489019 9.77,69.31 C10.5167086,70.9641452 9.78289767,72.910534 8.13,73.66 C7.34128432,74.0302215 6.42871568,74.0302215 5.64,73.66 L4.17,73.08 C3.33230215,72.8026678 2.6499589,72.1856553 2.29,71.38 C1.92172641,70.6028163 1.89633305,69.7067934 2.22,68.91 C2.5127424,68.0866457 3.13634966,67.4231566 3.94,67.08 C4.72776509,66.7055405 5.64223491,66.7055405 6.43,67.08 L7.87,67.61 Z M20.18,94.71 L19.63,96.18 C19.3726739,97.0114442 18.7669457,97.6901517 17.97,98.04 C17.1811773,98.4158502 16.2711559,98.4448548 15.46,98.12 C14.6475461,97.840564 13.9881151,97.2354818 13.64,96.45 C13.2942952,95.6386223 13.2942952,94.7213777 13.64,93.91 L14.2,92.44 C14.4441094,91.6044139 15.0494801,90.921996 15.85,90.58 C16.6411224,90.2016304 17.5539013,90.1690312 18.37,90.49 C19.1769583,90.7978334 19.8258235,91.4178601 20.17,92.21 C20.5369404,93.0021806 20.5405913,93.9149093 20.18,94.71 Z M26.87,67.79 C30.5799375,69.1603631 33.0896632,72.6419429 33.217034,76.5948289 C33.3444048,80.5477149 31.064021,84.1836427 27.45,85.79 C25.1151532,86.8975428 22.4265539,86.9916256 20.02,86.05 C16.3100625,84.6796369 13.8003368,81.1980571 13.672966,77.2451711 C13.5455952,73.2922851 15.825979,69.6563573 19.44,68.05 C21.7748468,66.9424572 24.4634461,66.8483744 26.87,67.79 Z M18.87,75.19 C18.1799903,77.0336723 18.6703158,79.1114916 20.1117732,80.4521785 C21.5532307,81.7928653 23.6610784,82.131584 25.45,81.31 C27.8910986,80.2054305 28.9745695,77.3310986 27.87,74.89 C26.7654305,72.4489014 23.8910986,71.3654305 21.45,72.47 C20.2471343,72.9754946 19.3112864,73.962125 18.87,75.19 L18.87,75.19 Z M19.09,61.81 C18.8006658,62.6185576 18.1956657,63.2751305 17.4134224,63.6294962 C16.631179,63.9838618 15.7386341,64.0056949 14.94,63.69 C14.1306839,63.4092582 13.4748467,62.8041488 13.13,62.02 L12.46,60.54 C12.100964,59.7600012 12.0792598,58.8665116 12.4,58.07 C12.6885359,57.2703921 13.3027541,56.6307329 14.09,56.31 C15.7199555,55.5932738 17.6240468,56.3078629 18.38,57.92 L19.05,59.31 C19.4176967,60.098517 19.4394463,61.0047516 19.11,61.81 L19.09,61.81 Z M34.41,93.31 C35.0734201,94.9242299 34.3390438,96.7738902 32.7490377,97.4934353 C31.1590316,98.2129805 29.2847874,97.5438316 28.51,95.98 L27.87,94.46 C27.3236385,93.2702942 27.5519672,91.8682271 28.4475775,90.9133485 C29.3431877,89.9584699 30.7277701,89.6408891 31.95,90.11 C32.7645425,90.3819558 33.4234911,90.989936 33.76,91.78 L34.41,93.31 Z M26.71,59.14 L27.26,57.67 C27.5173261,56.8385558 28.1230543,56.1598483 28.92,55.81 C29.7088754,55.4368683 30.6164264,55.4043267 31.43,55.72 C32.226206,55.9829762 32.8824861,56.5563198 33.25,57.31 C33.5957048,58.1213777 33.5957048,59.0386223 33.25,59.85 L32.69,61.32 C32.4484484,62.1569971 31.8422258,62.8403752 31.04,63.18 C30.2466707,63.5469735 29.3392028,63.5799873 28.5213049,63.2716304 C27.703407,62.9632735 27.0436009,62.3393794 26.69,61.54 C26.334418,60.7604769 26.3417394,59.8636141 26.71,59.09 L26.71,59.14 Z M37.12,84.53 C36.7495964,83.7363434 36.7206824,82.8255525 37.04,82.01 C37.3359041,81.1885801 37.9584761,80.5261925 38.76,80.18 C39.5487157,79.8097785 40.4612843,79.8097785 41.25,80.18 L42.72,80.74 C43.5583256,81.0203303 44.2427472,81.6359476 44.61,82.44 C45.326764,84.0860868 44.5869218,86.0025455 42.95,86.74 C42.1622349,87.1144595 41.2477651,87.1144595 40.46,86.74 L38.98,86.19 C38.1485558,85.9326739 37.4698483,85.3269457 37.12,84.53 Z M38.53,72.53 C37.7256644,72.2381902 37.0728598,71.6345592 36.7190797,70.8554904 C36.3652997,70.0764215 36.3403976,69.187656 36.65,68.39 C36.9338435,67.576887 37.542156,66.9178818 38.33,66.57 L39.8,65.9 C41.42924,65.1599385 43.3499383,65.8807601 44.0899999,67.5100001 C44.8300614,69.13924 44.1092399,71.0599384 42.48,71.8 L41,72.47 C40.2241625,72.8387453 39.3306166,72.8713037 38.53,72.56 L38.53,72.53 Z" id="Shape-Copy" fill="#D3A14D" opacity="0.968489607"></path>
            <path d="M7.36,80.24 C8.59729202,80.6953406 9.43528356,81.8550068 9.47920644,83.1726931 C9.52312932,84.4903795 8.76422319,85.7032756 7.56,86.24 L6.09,86.91 C5.31000117,87.269036 4.41651161,87.2907402 3.62,86.97 C2.80107222,86.6738468 2.14191118,86.0509034 1.8,85.25 C1.440964,84.4700012 1.4192598,83.5765116 1.74,82.78 C2.02723226,81.971289 2.63489878,81.3166006 3.42,80.97 L4.87,80.31 C5.65428436,79.941976 6.55627854,79.9166187 7.36,80.24 L7.36,80.24 Z M6.87,66.61 C7.72459469,66.8659791 8.42093339,67.489019 8.77,68.31 C9.51670863,69.9641452 8.78289767,71.910534 7.13,72.66 C6.34128432,73.0302215 5.42871568,73.0302215 4.64,72.66 L3.17,72.08 C2.33230215,71.8026678 1.6499589,71.1856553 1.29,70.38 C0.921726412,69.6028163 0.896333051,68.7067934 1.22,67.91 C1.5127424,67.0866457 2.13634966,66.4231566 2.94,66.08 C3.72776509,65.7055405 4.64223491,65.7055405 5.43,66.08 L6.87,66.61 Z M19.18,93.71 L18.63,95.18 C18.3726739,96.0114442 17.7669457,96.6901517 16.97,97.04 C16.1811773,97.4158502 15.2711559,97.4448548 14.46,97.12 C13.6475461,96.840564 12.9881151,96.2354818 12.64,95.45 C12.2942952,94.6386223 12.2942952,93.7213777 12.64,92.91 L13.2,91.44 C13.4441094,90.6044139 14.0494801,89.921996 14.85,89.58 C15.6411224,89.2016304 16.5539013,89.1690312 17.37,89.49 C18.1769583,89.7978334 18.8258235,90.4178601 19.17,91.21 C19.5369404,92.0021806 19.5405913,92.9149093 19.18,93.71 Z M25.87,66.79 C29.5799375,68.1603631 32.0896632,71.6419429 32.217034,75.5948289 C32.3444048,79.5477149 30.064021,83.1836427 26.45,84.79 C24.1151532,85.8975428 21.4265539,85.9916256 19.02,85.05 C15.3100625,83.6796369 12.8003368,80.1980571 12.672966,76.2451711 C12.5455952,72.2922851 14.825979,68.6563573 18.44,67.05 C20.7748468,65.9424572 23.4634461,65.8483744 25.87,66.79 Z M18.09,60.81 C17.8006658,61.6185576 17.1956657,62.2751305 16.4134224,62.6294962 C15.631179,62.9838618 14.7386341,63.0056949 13.94,62.69 C13.1306839,62.4092582 12.4748467,61.8041488 12.13,61.02 L11.46,59.54 C11.100964,58.7600012 11.0792598,57.8665116 11.4,57.07 C11.6885359,56.2703921 12.3027541,55.6307329 13.09,55.31 C14.7199555,54.5932738 16.6240468,55.3078629 17.38,56.92 L18.05,58.31 C18.4176967,59.098517 18.4394463,60.0047516 18.11,60.81 L18.09,60.81 Z M33.41,92.31 C34.0734201,93.9242299 33.3390438,95.7738902 31.7490377,96.4934353 C30.1590316,97.2129805 28.2847874,96.5438316 27.51,94.98 L26.87,93.46 C26.3236385,92.2702942 26.5519672,90.8682271 27.4475775,89.9133485 C28.3431877,88.9584699 29.7277701,88.6408891 30.95,89.11 C31.7645425,89.3819558 32.4234911,89.989936 32.76,90.78 L33.41,92.31 Z M25.71,58.14 L26.26,56.67 C26.5173261,55.8385558 27.1230543,55.1598483 27.92,54.81 C28.7088754,54.4368683 29.6164264,54.4043267 30.43,54.72 C31.226206,54.9829762 31.8824861,55.5563198 32.25,56.31 C32.5957048,57.1213777 32.5957048,58.0386223 32.25,58.85 L31.69,60.32 C31.4484484,61.1569971 30.8422258,61.8403752 30.04,62.18 C29.2466707,62.5469735 28.3392028,62.5799873 27.5213049,62.2716304 C26.703407,61.9632735 26.0436009,61.3393794 25.69,60.54 C25.334418,59.7604769 25.3417394,58.8636141 25.71,58.09 L25.71,58.14 Z M36.12,83.53 C35.7495964,82.7363434 35.7206824,81.8255525 36.04,81.01 C36.3359041,80.1885801 36.9584761,79.5261925 37.76,79.18 C38.5487157,78.8097785 39.4612843,78.8097785 40.25,79.18 L41.72,79.74 C42.5583256,80.0203303 43.2427472,80.6359476 43.61,81.44 C44.326764,83.0860868 43.5869218,85.0025455 41.95,85.74 C41.1622349,86.1144595 40.2477651,86.1144595 39.46,85.74 L37.98,85.19 C37.1485558,84.9326739 36.4698483,84.3269457 36.12,83.53 Z M37.53,71.53 C36.7256644,71.2381902 36.0728598,70.6345592 35.7190797,69.8554904 C35.3652997,69.0764215 35.3403976,68.187656 35.65,67.39 C35.9338435,66.576887 36.542156,65.9178818 37.33,65.57 L38.8,64.9 C40.42924,64.1599385 42.3499383,64.8807601 43.0899999,66.5100001 C43.8300614,68.13924 43.1092399,70.0599384 41.48,70.8 L40,71.47 C39.2241625,71.8387453 38.3306166,71.8713037 37.53,71.56 L37.53,71.53 Z" id="Shape" fill="#FED591"></path>
        </g>
    </g>
</svg>