<svg xmlns="http://www.w3.org/2000/svg" width="164" height="160" viewBox="0 0 164 160">
    <g fill="none" fill-rule="evenodd">
        <path fill="#B2B0AC" d="M124.774 82.797l-22.476 14.05L92 80.653l22.476-14.049zM160.562 63.213c-8.259 3.25-16.179 7.781-23.465 13.523a68.83 68.83 0 0 1-5.677-20.534c10.336-5.966 21.428-9.253 32.235-9.86a41.237 41.237 0 0 0-3.093 16.871"/>
        <path fill="#B2B0AC" d="M137.76 61.905c-8.23 3.262-16.143 7.697-23.485 13.247a70.758 70.758 0 0 1-6.215-22.942c8.535-5.377 17.663-8.786 26.698-10.21-.518 7.11.617 13.9 3.001 19.905"/>
        <path fill="#787673" d="M132.682 64.032c-.51-2.867-.939-5.627-1.285-8.282l4.137-1.702c.567 3.005 1.32 5.607 2.257 7.805-1.893.719-3.081 1.237-5.11 2.179z"/>
        <g>
            <path fill="#605D5A" d="M83.982 82.332c4.252-7.743 9.744-14.995 16.371-21.474a70.181 70.181 0 0 0-19.858-8.12c-7.22 9.458-11.852 19.99-13.767 30.572a42.11 42.11 0 0 1 17.254-.978"/>
            <path fill="#605D5A" d="M85.434 59.689c4.26-7.713 9.655-14.97 16.097-21.527-6.71-4.123-14.205-7.179-22.202-8.947-6.413 7.755-10.929 16.336-13.447 25.07 7.175.362 13.832 2.316 19.552 5.404"/>
            <path fill="#33312E" d="M88.174 55.069a193.311 193.311 0 0 0-8.198-2.41l-2.133 3.771c2.965.972 5.505 2.067 7.62 3.285.916-1.734 1.558-2.813 2.711-4.646z"/>
        </g>
        <path fill="#605D5A" d="M130 18.559c-8.26 3.755-16.059 9.283-22.83 16.441A71.174 71.174 0 0 1 101 18.715c5.945-8.35 13.312-14.653 21.085-18.715 1.365 7.21 4.212 13.505 7.915 18.559"/>
        <g>
            <path fill="#5785CC" d="M32 105h36v55H32z"/>
            <path fill="#4B79BF" d="M78 85h65l-10 20H68zM22 85h36l10 20H32z" opacity=".8"/>
            <path fill="#4D7CC1" d="M68 105h65v55H68z"/>
            <g fill-rule="nonzero" transform="rotate(15 -377.756 439.692)">
                <rect width="20" height="20" fill="#F9F9F9" rx="6"/>
                <path fill="#D64B32" d="M7.128 3.2c-1.445 0-1.973.102-2.516.392a2.435 2.435 0 0 0-1.02 1.02c-.29.543-.392 1.071-.392 2.516v5.744c0 1.445.102 1.973.392 2.516.237.443.577.783 1.02 1.02.543.29 1.071.392 2.516.392h5.744c1.445 0 1.973-.102 2.516-.392a2.435 2.435 0 0 0 1.02-1.02c.29-.543.392-1.071.392-2.516V7.128c0-1.445-.102-1.973-.392-2.516a2.435 2.435 0 0 0-1.02-1.02c-.543-.29-1.071-.392-2.516-.392H7.128zm0-1.2h5.744c1.783 0 2.43.186 3.082.534.652.349 1.163.86 1.512 1.512.348.652.534 1.299.534 3.082v5.744c0 1.783-.186 2.43-.534 3.082a3.635 3.635 0 0 1-1.512 1.512c-.652.348-1.299.534-3.082.534H7.128c-1.783 0-2.43-.186-3.082-.534a3.635 3.635 0 0 1-1.512-1.512C2.186 15.302 2 14.655 2 12.872V7.128c0-1.783.186-2.43.534-3.082a3.635 3.635 0 0 1 1.512-1.512C4.698 2.186 5.345 2 7.128 2z"/>
                <path fill="#D64B32" d="M5.333 2.667h9.334v12.47a.2.2 0 0 1-.203.196.209.209 0 0 1-.065-.01L10 13.895l-4.4 1.428a.204.204 0 0 1-.256-.124.192.192 0 0 1-.01-.063V2.666zM10 6l-.85 2.5H6.667l2.026 1.597-.72 2.57L10 11.139l2.092 1.528-.785-2.57L13.333 8.5h-2.549L10 6z"/>
            </g>
        </g>
    </g>
</svg>
